<?xml version="1.0" standalone="no"?>
<!DOCTYPE svg PUBLIC "-//W3C//DTD SVG 20010904//EN"
 "http://www.w3.org/TR/2001/REC-SVG-20010904/DTD/svg10.dtd">
<svg version="1.0" xmlns="http://www.w3.org/2000/svg"
 width="1756.000000pt" height="1756.000000pt" viewBox="0 0 1756.000000 1756.000000"
 preserveAspectRatio="xMidYMid meet">

<g transform="translate(0.000000,1756.000000) scale(0.100000,-0.100000)"
fill="#000000" stroke="none">
<path d="M8700 17540 c0 -22 1 -23 24 -14 23 9 20 34 -4 34 -13 0 -20 -7 -20
-20z"/>
<path d="M8940 17540 c0 -27 -25 -35 -69 -24 -32 8 -85 3 -131 -14 -8 -3 -19
-4 -25 -2 -25 7 -91 -2 -105 -15 -37 -33 -97 -45 -208 -39 -145 8 -151 7 -226
-21 -72 -27 -198 -34 -265 -15 -28 8 -39 6 -65 -13 -54 -38 -91 -55 -140 -62
-57 -9 -199 -56 -220 -74 -8 -7 -30 -17 -48 -21 -61 -16 -103 -35 -126 -57
-12 -13 -26 -23 -31 -23 -6 0 -31 -14 -56 -31 -30 -21 -63 -33 -93 -36 -26 -3
-66 -13 -89 -24 -24 -10 -54 -19 -67 -19 -13 0 -29 -7 -36 -15 -13 -15 -42
-22 -125 -29 -64 -5 -195 -36 -195 -46 0 -14 -98 -40 -152 -40 -66 0 -143 -27
-228 -79 -8 -6 -30 -16 -47 -23 -18 -7 -33 -16 -33 -20 0 -3 -23 -14 -51 -23
-28 -10 -59 -25 -68 -34 -9 -9 -35 -29 -56 -45 -22 -17 -44 -36 -48 -43 -4 -7
-13 -13 -18 -13 -6 0 -25 -11 -43 -25 -18 -14 -36 -25 -40 -25 -4 0 -20 -16
-37 -35 -17 -19 -36 -35 -43 -35 -14 0 -77 -84 -119 -159 -17 -31 -49 -72 -69
-91 -21 -19 -63 -57 -93 -85 -30 -27 -54 -53 -55 -56 0 -4 -29 -36 -65 -70
-91 -88 -143 -141 -224 -230 -61 -67 -70 -82 -76 -125 -3 -27 -8 -66 -11 -86
-3 -21 -22 -63 -43 -95 -20 -32 -44 -73 -52 -90 -7 -18 -17 -33 -21 -33 -5 0
-8 -12 -8 -27 -1 -33 -23 -119 -33 -129 -4 -4 -7 -15 -7 -24 0 -9 -15 -32 -34
-52 -44 -47 -65 -78 -69 -106 -2 -12 -6 -25 -10 -28 -4 -4 -7 -22 -7 -39 0
-40 -17 -92 -43 -128 -11 -16 -28 -54 -38 -85 -10 -32 -41 -102 -69 -157 -27
-55 -50 -108 -50 -117 0 -21 -59 -115 -90 -143 -34 -30 -58 -85 -75 -170 -9
-43 -20 -85 -25 -94 -33 -62 -120 -254 -120 -264 0 -7 -4 -17 -9 -22 -9 -10
-43 -68 -70 -120 -16 -32 -49 -64 -67 -65 -12 0 -54 -42 -54 -54 0 -5 -13 -27
-28 -50 -25 -37 -49 -116 -58 -196 -2 -14 -6 -34 -9 -45 -4 -15 2 -24 25 -37
17 -10 28 -13 24 -7 -3 6 1 9 9 7 8 -2 24 8 35 21 l19 25 17 -32 c20 -39 20
-66 1 -82 -8 -7 -13 -15 -10 -19 5 -9 -58 -33 -74 -29 -6 2 -17 -7 -24 -18
-52 -90 -56 -102 -62 -205 -7 -143 -14 -228 -25 -334 -5 -49 -14 -132 -19
-184 -7 -60 -15 -97 -25 -105 -8 -6 -19 -37 -26 -68 -6 -32 -15 -60 -20 -63
-4 -3 -11 -23 -15 -44 -4 -22 -13 -42 -20 -45 -8 -3 -18 -36 -26 -80 -6 -42
-18 -81 -25 -87 -8 -6 -14 -23 -14 -37 0 -27 -14 -75 -36 -128 -7 -17 -20 -55
-28 -85 -28 -103 -38 -134 -46 -144 -4 -5 -11 -25 -15 -43 -4 -18 -13 -36 -20
-38 -17 -7 -45 -76 -45 -113 0 -38 -18 -88 -34 -94 -8 -3 -16 -18 -20 -34 -13
-54 -51 -143 -61 -143 -5 0 -15 -10 -21 -23 -35 -69 -48 -93 -56 -98 -5 -3
-11 -36 -12 -72 -3 -69 -16 -97 -47 -97 -22 0 -25 -5 -33 -53 -8 -49 -30 -82
-66 -97 -35 -14 -53 -35 -55 -61 -1 -12 5 -19 15 -19 17 0 30 -36 30 -84 0
-13 15 -40 33 -62 22 -25 38 -60 47 -98 14 -58 14 -59 22 -28 13 48 18 39 12
-20 -5 -48 -38 -146 -53 -158 -3 -3 -13 -18 -21 -34 -8 -16 -23 -31 -32 -34
-23 -6 -50 -54 -76 -133 -28 -85 -49 -134 -64 -151 -8 -7 -31 -47 -52 -88 -21
-41 -42 -82 -46 -90 -5 -8 -25 -58 -45 -110 -20 -52 -50 -126 -67 -165 -16
-38 -32 -78 -35 -87 -5 -18 -43 -26 -43 -9 0 17 -33 21 -49 6 -9 -8 -26 -23
-38 -33 -17 -12 -24 -31 -27 -67 -6 -60 -32 -149 -49 -167 -22 -24 -47 -76
-47 -97 0 -46 94 -49 115 -3 6 14 22 24 45 28 19 3 42 7 50 10 8 2 24 -10 36
-27 l21 -30 -28 -71 c-16 -38 -29 -76 -29 -83 0 -7 -4 -15 -10 -17 -12 -4 -40
-104 -49 -174 -8 -57 -43 -112 -94 -146 -70 -46 -92 -115 -63 -201 l16 -46
-41 -83 c-32 -67 -39 -93 -38 -133 2 -52 21 -122 33 -117 20 7 26 -3 26 -42 0
-53 -14 -66 -70 -64 -66 2 -81 -23 -73 -116 4 -57 2 -83 -12 -120 -10 -25 -21
-46 -26 -46 -16 0 -110 -208 -124 -275 -20 -96 -30 -297 -17 -364 6 -31 6 -64
2 -75 -9 -21 -9 -21 -10 -1 0 15 -2 17 -9 6 -5 -7 -6 -22 -4 -32 3 -11 -1 -27
-8 -37 -29 -35 -49 -81 -49 -110 0 -35 18 -52 31 -31 8 11 12 10 25 -6 8 -11
18 -18 22 -15 4 3 8 -21 10 -54 3 -50 0 -62 -20 -83 -34 -36 -58 -26 -91 40
-16 31 -33 57 -38 57 -16 0 -52 -46 -78 -100 -24 -51 -26 -63 -23 -165 2 -60
8 -130 14 -155 14 -59 30 -259 31 -380 0 -85 -10 -151 -41 -272 -5 -20 -8 -39
-6 -41 3 -2 -5 -26 -17 -53 -43 -100 -69 -205 -69 -283 0 -42 -9 -112 -19
-157 -11 -44 -23 -105 -27 -135 -3 -30 -22 -90 -41 -134 -34 -77 -35 -84 -34
-198 1 -97 -1 -118 -14 -123 -8 -4 -15 -15 -15 -25 0 -11 -7 -22 -15 -25 -8
-4 -15 -10 -15 -16 0 -5 -13 -26 -29 -46 -39 -50 -84 -180 -83 -239 1 -5 -6
-12 -14 -16 -8 -4 -14 -16 -15 -25 0 -9 -9 -30 -19 -47 -29 -46 -80 -152 -80
-168 0 -7 -4 -17 -8 -22 -5 -6 -19 -39 -32 -75 -12 -36 -29 -76 -37 -88 -8
-13 -17 -35 -19 -49 -3 -14 -18 -51 -33 -82 -29 -57 -73 -180 -86 -238 -3 -18
-11 -35 -16 -38 -5 -4 -9 -15 -9 -26 0 -10 -21 -61 -47 -111 -26 -51 -50 -111
-54 -133 -15 -75 -57 -218 -67 -224 -9 -6 -14 -28 -28 -138 -3 -24 -10 -43
-14 -43 -5 0 -11 -18 -15 -40 -4 -26 -12 -40 -22 -40 -13 0 -14 -12 -9 -78 3
-42 8 -149 12 -237 3 -89 11 -163 16 -166 7 -4 7 -33 2 -80 -7 -68 -9 -71 -14
-34 l-6 40 -6 -35 c-4 -19 -7 -44 -7 -55 -2 -106 -14 -285 -21 -305 -5 -14
-12 -54 -16 -90 -3 -36 -20 -117 -36 -180 -17 -63 -35 -140 -40 -170 -6 -30
-14 -59 -19 -65 -5 -5 -9 -21 -9 -35 0 -14 -4 -30 -9 -35 -21 -23 -106 -351
-116 -450 -3 -33 -11 -84 -16 -113 -6 -29 -8 -66 -4 -82 l7 -30 8449 0 8449 0
-2 1643 -3 1642 -34 17 c-18 9 -39 25 -47 36 -8 11 -28 23 -44 27 -17 4 -43
17 -58 29 -15 13 -52 39 -82 58 -30 19 -61 42 -69 51 -7 9 -18 14 -23 11 -5
-3 -17 0 -26 8 -26 22 -139 88 -149 88 -6 0 -18 10 -29 21 -17 19 -80 60 -150
97 -14 8 -28 20 -31 28 -3 8 -10 14 -17 14 -6 0 -24 11 -40 25 -16 14 -33 25
-38 25 -5 0 -68 59 -139 130 -71 72 -134 130 -139 130 -13 0 -120 103 -120
116 0 6 -19 29 -42 51 -89 85 -178 180 -178 190 0 13 -268 283 -281 283 -6 0
-42 31 -80 69 -39 39 -74 71 -79 73 -16 6 -174 142 -231 201 -32 31 -62 57
-67 57 -6 0 -40 29 -75 65 -36 36 -70 65 -75 65 -6 0 -32 18 -58 41 -25 22
-67 50 -93 62 -25 12 -62 32 -81 45 -19 13 -49 30 -67 39 -18 8 -33 19 -33 24
0 5 -5 9 -11 9 -17 0 -90 54 -149 110 -30 29 -72 63 -92 77 -21 14 -38 30 -38
34 0 5 -4 9 -9 9 -5 0 -38 16 -73 36 -34 20 -83 48 -108 62 -25 14 -59 39 -76
56 -30 30 -74 108 -74 131 0 23 -70 92 -120 118 -29 15 -67 27 -85 27 -19 0
-36 4 -39 9 -3 5 -20 11 -38 14 -18 4 -49 9 -68 12 -19 4 -45 11 -57 17 -25
12 -93 109 -93 132 0 8 -4 18 -10 21 -5 3 -10 21 -10 39 0 17 -4 36 -9 42 -12
11 -21 139 -20 297 0 98 -3 118 -16 123 -10 4 -13 13 -10 25 4 10 -1 29 -9 41
-20 28 -20 98 -1 162 20 67 19 126 -6 214 -16 58 -18 80 -10 104 6 18 7 37 2
47 -6 11 -4 23 5 35 10 14 11 23 3 32 -19 23 -1 189 28 252 12 27 15 95 18
350 1 174 7 378 13 452 25 304 34 663 26 974 -9 357 -8 1000 2 1161 15 242 6
558 -26 875 -5 52 -18 237 -29 410 -19 317 -29 407 -57 490 -38 114 -64 212
-79 295 -38 210 -70 309 -144 434 -72 122 -117 254 -131 380 -6 57 -18 123
-26 147 -8 23 -17 63 -21 89 -3 26 -12 49 -19 52 -8 3 -14 11 -14 18 0 7 -5
15 -11 17 -6 2 -14 19 -18 38 -4 19 -13 34 -18 33 -18 -4 -32 21 -38 67 -3 24
-12 55 -20 69 -18 33 -35 70 -45 96 -4 11 -15 37 -24 58 -9 21 -16 46 -16 57
0 10 -6 25 -12 32 -14 14 -31 55 -55 133 -8 27 -24 60 -34 74 -10 13 -19 30
-19 37 0 17 -18 51 -42 79 -25 30 -78 137 -78 157 0 10 -4 18 -9 18 -5 0 -12
21 -16 47 -8 53 -26 93 -54 120 -16 16 -24 38 -50 140 -5 17 -23 52 -40 78
-17 25 -31 49 -31 53 0 4 -16 25 -35 45 -19 20 -35 46 -35 56 0 11 -4 23 -10
26 -5 3 -10 17 -10 30 0 13 -8 30 -18 37 -9 7 -26 27 -36 43 -11 17 -25 34
-33 38 -7 4 -13 12 -13 18 0 5 -9 29 -20 51 -11 23 -20 48 -20 55 0 7 -9 21
-20 30 -11 10 -20 24 -20 33 0 8 -14 35 -30 59 -17 24 -30 47 -30 51 0 4 -11
13 -25 20 -15 8 -25 22 -25 35 0 13 -7 28 -15 35 -8 7 -15 9 -15 5 0 -4 -7 -2
-15 5 -9 7 -13 15 -10 18 9 9 -38 52 -57 52 -10 0 -18 6 -18 14 0 7 -7 20 -17
27 -9 8 -34 38 -55 66 -21 29 -44 53 -49 53 -6 0 -27 14 -46 30 -18 17 -38 30
-43 30 -5 0 -16 22 -24 49 -19 64 -34 91 -50 91 -15 0 -56 42 -56 58 0 7 -8
12 -17 12 -10 0 -27 7 -37 15 -11 8 -30 15 -42 15 -13 0 -25 8 -28 18 -4 10
-24 29 -46 41 -22 12 -40 26 -40 31 0 4 -24 23 -52 41 -29 19 -74 57 -100 84
-25 28 -64 60 -85 70 -36 19 -87 57 -145 110 -15 14 -31 25 -36 25 -6 0 -32
18 -60 39 -27 21 -66 48 -88 59 -21 11 -45 30 -52 41 -7 12 -17 21 -23 21 -6
0 -42 25 -81 55 -38 30 -75 55 -81 55 -11 0 -116 67 -132 85 -5 6 -37 24 -70
39 -33 16 -80 45 -105 65 -24 20 -52 41 -61 46 -84 49 -173 95 -204 106 -20 8
-41 22 -46 31 -9 17 -36 18 -374 18 -300 0 -365 -2 -365 -14 0 -17 -40 -60
-63 -69 -10 -4 -28 -2 -39 4 -16 9 -19 18 -15 45 l6 34 -80 0 c-43 0 -79 -4
-79 -9 0 -15 -49 -19 -67 -5 -10 7 -30 14 -45 14 -22 0 -28 -5 -28 -20z
m-2158 -1527 c-2 -42 1 -54 18 -66 13 -9 18 -20 14 -31 -7 -18 -34 -22 -34 -5
0 7 -11 9 -29 6 -36 -8 -50 8 -44 48 2 17 5 36 5 43 1 6 5 12 10 12 4 0 8 8 8
18 0 25 10 33 35 30 18 -3 20 -9 17 -55z m-182 -88 c0 -8 -7 -15 -15 -15 -16
0 -20 12 -8 23 11 12 23 8 23 -8z m-212 -253 c7 -34 7 -51 -1 -61 -9 -10 -8
-16 4 -25 9 -6 24 -27 34 -46 10 -19 26 -41 36 -48 10 -7 19 -22 21 -35 2 -15
10 -22 26 -23 29 -2 37 -10 52 -57 7 -23 21 -43 36 -49 24 -11 34 -38 14 -38
-5 0 -10 5 -10 10 0 6 -10 10 -22 9 l-23 0 23 -11 c60 -29 -16 -115 -91 -103
-23 4 -43 2 -52 -5 -9 -8 -19 -8 -32 -1 -10 5 -26 12 -35 15 -24 7 -26 123 -3
132 8 4 15 13 15 21 0 8 -5 11 -10 8 -6 -3 -19 14 -30 39 -18 44 -21 46 -60
46 -46 0 -55 13 -46 64 7 34 41 79 66 88 12 4 11 9 -3 32 -27 41 -19 80 18 86
50 10 61 2 73 -48z m249 -444 c4 -7 8 -17 9 -23 1 -5 5 -18 9 -27 4 -11 3 -18
-4 -18 -6 0 -11 -7 -11 -15 0 -8 -6 -15 -14 -15 -13 0 -28 -55 -18 -65 3 -3
19 -5 36 -6 17 0 40 -4 51 -8 12 -5 25 -3 34 6 10 11 17 11 25 3 8 -8 5 -16
-13 -29 -13 -10 -21 -23 -17 -29 3 -6 2 -21 -3 -34 l-9 -24 62 7 c92 9 107 16
100 44 -3 13 -1 32 5 42 9 16 10 15 11 -9 0 -21 5 -28 19 -28 30 0 51 11 51
26 0 8 5 14 11 14 21 0 94 -24 100 -33 3 -5 25 -11 48 -14 33 -5 45 -11 52
-31 9 -23 13 -24 69 -20 38 3 60 0 61 -6 0 -6 3 -5 6 2 2 6 9 12 14 12 6 0 7
-4 4 -10 -3 -5 2 -10 13 -10 10 0 25 -11 32 -25 11 -21 27 -31 60 -40 3 -1 13
-5 22 -9 9 -4 26 -2 38 4 12 6 30 8 43 4 12 -4 30 -7 40 -5 9 1 17 -2 17 -8 0
-5 21 -13 46 -17 25 -3 48 -13 51 -21 4 -9 18 -13 44 -11 34 2 41 6 51 35 13
35 43 52 61 34 7 -7 7 -11 1 -11 -6 0 -16 -10 -21 -23 -10 -21 -7 -25 22 -41
18 -10 38 -15 44 -12 15 10 170 -13 201 -29 43 -22 94 -35 116 -29 12 3 25 1
28 -5 4 -6 18 -11 31 -11 39 0 55 -11 55 -36 0 -17 8 -27 25 -34 14 -5 25 -14
25 -19 0 -5 9 -12 19 -16 12 -4 18 -12 14 -21 -3 -9 2 -14 16 -14 22 0 22 1 5
29 -10 17 -21 28 -25 25 -9 -5 -43 61 -37 74 2 5 17 5 36 0 18 -5 30 -13 27
-18 -4 -6 5 -14 19 -20 14 -5 26 -14 26 -20 0 -6 11 -15 24 -20 18 -7 23 -14
19 -29 -5 -18 -1 -21 28 -21 36 0 74 -28 105 -75 9 -14 22 -25 30 -25 7 0 20
-15 29 -34 12 -24 21 -32 34 -29 13 3 22 -4 31 -26 12 -30 41 -48 59 -37 5 3
19 -9 31 -27 12 -18 45 -43 73 -57 32 -16 56 -37 67 -58 21 -38 57 -72 77 -72
17 0 96 -49 106 -66 4 -8 14 -14 22 -14 8 0 20 -9 28 -21 17 -23 82 -61 91
-52 3 3 12 0 20 -6 9 -7 24 -10 36 -6 35 11 84 -3 95 -27 10 -22 63 -40 202
-68 53 -11 65 -17 77 -41 14 -28 14 -29 -12 -30 -24 -2 -24 -2 -4 -6 12 -2 22
-10 22 -17 0 -18 46 -40 67 -31 17 6 16 8 -4 22 -29 20 -31 53 -3 46 11 -3 20
-9 20 -12 0 -4 10 -7 22 -7 15 1 24 -6 26 -19 7 -35 34 -65 57 -65 13 0 29
-10 39 -24 8 -13 29 -27 46 -31 16 -4 33 -13 37 -20 8 -13 12 -15 33 -15 6 0
10 -7 10 -15 0 -9 11 -21 25 -27 14 -6 25 -14 25 -18 0 -4 18 -10 41 -14 26
-4 52 -17 71 -36 16 -17 41 -33 54 -36 13 -3 28 -12 32 -18 4 -7 22 -20 40
-29 33 -16 60 -13 74 7 5 7 8 7 8 -2 0 -7 4 -11 9 -8 10 7 71 -22 71 -34 0 -4
-9 -6 -20 -3 -22 6 -27 -11 -8 -23 7 -4 28 -11 48 -14 19 -3 34 -12 33 -18 -2
-7 8 -12 22 -12 14 0 33 -8 43 -17 10 -10 40 -29 66 -42 27 -13 63 -39 79 -58
16 -18 35 -33 43 -33 17 0 18 -17 2 -23 -9 -4 -8 -6 3 -6 8 -1 28 -21 43 -46
20 -31 39 -48 65 -56 20 -6 42 -19 49 -28 11 -14 14 -14 22 -1 7 11 10 8 15
-12 4 -14 15 -28 26 -31 11 -3 19 -14 19 -26 0 -12 8 -25 17 -28 35 -14 93
-70 93 -90 0 -18 38 -72 68 -96 12 -10 22 -27 22 -38 0 -11 7 -22 15 -25 8 -4
15 -13 15 -22 0 -23 23 -82 32 -82 4 0 8 -7 8 -15 0 -8 4 -14 9 -12 14 3 60
-89 63 -126 1 -17 10 -40 20 -50 18 -18 22 -29 19 -58 -1 -8 8 -24 19 -34 11
-10 20 -24 20 -30 0 -7 9 -24 21 -39 11 -14 19 -36 18 -48 -1 -13 1 -30 4 -38
6 -13 27 -133 27 -151 0 -4 7 -6 16 -5 23 2 63 -126 70 -224 7 -96 7 -93 23
-106 15 -12 17 -24 26 -149 3 -38 7 -95 10 -125 2 -30 5 -84 6 -120 1 -70 7
-90 20 -69 7 11 11 10 23 -6 11 -15 12 -21 2 -23 -9 -2 -12 -22 -10 -65 1 -34
-2 -72 -7 -84 -5 -13 -5 -33 1 -48 6 -16 6 -26 -1 -31 -6 -3 -8 -17 -5 -29 3
-13 1 -27 -4 -30 -6 -4 -10 -25 -9 -48 1 -23 -4 -52 -11 -63 -17 -27 -7 -52
23 -63 28 -11 40 -55 27 -100 -12 -42 -2 -74 21 -68 10 3 20 0 23 -7 2 -6 5
-3 5 7 1 9 8 17 16 17 23 0 18 -46 -6 -64 -17 -11 -18 -15 -5 -18 10 -2 13 -7
7 -17 -11 -18 -31 -5 -31 20 0 10 -4 19 -9 19 -18 0 -35 -33 -36 -72 -1 -21
-7 -43 -14 -47 -10 -6 -9 -10 3 -14 20 -8 21 -31 1 -51 -20 -19 -19 -32 2 -40
13 -5 14 -9 4 -19 -9 -9 -14 -9 -20 2 -7 11 -10 10 -13 -5 -2 -10 1 -27 6 -36
8 -14 6 -21 -9 -32 -19 -14 -19 -15 9 -37 27 -21 27 -23 10 -36 -17 -12 -16
-13 5 -13 15 0 25 9 32 29 8 23 18 31 42 33 36 4 48 27 18 35 -28 7 -27 21 4
29 14 3 25 10 25 14 0 15 -50 61 -60 55 -6 -3 -10 1 -10 9 0 9 9 16 20 16 11
0 20 -4 20 -10 0 -5 5 -10 10 -10 6 0 10 7 10 15 0 8 -9 15 -20 15 -11 0 -20
6 -20 14 0 8 -5 16 -12 18 -7 3 -9 12 -5 22 4 9 11 15 16 12 5 -3 12 6 15 19
4 14 11 23 16 20 14 -8 12 -49 -2 -63 -9 -9 -7 -13 7 -18 12 -5 22 -1 31 10 8
11 20 16 31 12 17 -5 18 -19 17 -173 -1 -93 -7 -180 -12 -194 -6 -15 -8 -30
-5 -33 4 -3 1 -6 -5 -6 -7 0 -12 -7 -12 -15 0 -8 6 -15 14 -15 10 0 16 -20 21
-66 4 -37 15 -87 26 -111 10 -25 19 -57 19 -72 0 -15 7 -36 15 -47 8 -10 15
-35 15 -54 0 -19 9 -52 19 -71 14 -27 19 -53 17 -98 -1 -33 1 -61 5 -61 4 0 9
-18 11 -39 2 -22 0 -37 -4 -35 -5 3 -8 0 -8 -5 0 -6 7 -11 15 -11 9 0 15 -6
14 -12 -1 -7 0 -20 4 -28 29 -78 28 -100 -7 -130 -9 -7 -16 -17 -16 -23 0 -7
4 -7 12 1 7 7 16 12 20 12 14 0 27 -44 16 -57 -5 -6 -8 -17 -7 -25 1 -7 -5
-29 -14 -50 -15 -33 -15 -39 -1 -68 9 -17 14 -44 12 -60 -3 -16 -1 -31 4 -32
4 -2 2 -21 -4 -42 -10 -31 -10 -40 0 -44 17 -5 15 -29 -4 -36 -11 -4 -14 -14
-11 -29 9 -42 -6 -72 -38 -72 -16 -1 -31 -7 -33 -14 -2 -7 3 -11 13 -9 10 2
20 -3 22 -9 3 -8 -4 -13 -16 -13 -12 0 -21 -4 -21 -10 0 -5 7 -10 15 -10 21 0
19 -20 -2 -21 -10 0 -13 -3 -7 -5 18 -8 4 -44 -16 -44 -10 0 -22 -9 -25 -20
-3 -11 -9 -20 -13 -20 -4 0 -8 -12 -8 -27 -2 -38 -34 -165 -46 -180 -6 -7 -5
-14 2 -18 6 -3 8 -11 4 -16 -3 -5 -9 -7 -13 -4 -5 2 -11 -13 -15 -35 -3 -22
-10 -40 -15 -40 -5 0 -11 -23 -15 -50 -4 -30 -13 -53 -21 -57 -8 -3 -12 -9 -9
-14 3 -5 0 -9 -6 -9 -7 0 -10 -7 -7 -15 4 -8 -4 -22 -17 -32 -13 -11 -26 -35
-30 -56 -4 -21 -16 -53 -26 -70 -24 -40 -50 -96 -50 -109 0 -5 -11 -29 -25
-53 -14 -23 -24 -47 -23 -52 2 -5 -11 -22 -29 -38 -18 -17 -40 -46 -51 -65
-10 -19 -28 -39 -40 -45 -18 -8 -22 -18 -22 -53 0 -26 -4 -41 -10 -37 -5 3
-12 -12 -16 -35 -4 -22 -11 -43 -15 -46 -5 -3 -9 -14 -9 -25 0 -10 -6 -19 -14
-19 -7 0 -19 -13 -26 -30 -7 -16 -19 -30 -26 -30 -7 0 -21 -11 -30 -25 -9 -13
-24 -27 -33 -30 -10 -3 -25 -21 -34 -40 -9 -19 -21 -35 -26 -35 -5 0 -12 -8
-15 -17 -4 -10 -24 -37 -46 -60 -22 -23 -40 -45 -39 -50 4 -23 -4 -35 -28 -45
-16 -6 -32 -10 -37 -9 -5 1 -6 -7 -3 -18 3 -14 -3 -29 -19 -43 -13 -13 -24
-31 -24 -40 0 -10 -4 -18 -8 -18 -4 0 -16 -13 -25 -30 -10 -16 -25 -30 -33
-30 -8 0 -13 -4 -9 -9 3 -6 -2 -14 -12 -20 -10 -5 -24 -30 -32 -56 -9 -31 -21
-49 -33 -53 -11 -2 -24 -15 -29 -28 -5 -15 -17 -24 -31 -24 -29 -1 -58 -22
-58 -43 0 -8 -5 -17 -12 -19 -6 -2 -12 -14 -13 -26 -1 -11 2 -19 6 -16 4 2 10
0 13 -5 11 -17 -24 -34 -57 -28 -41 6 -61 -4 -53 -29 8 -29 -18 -55 -60 -60
-45 -6 -66 -21 -46 -33 15 -9 6 -61 -9 -61 -5 0 -14 -11 -19 -25 -12 -32 -33
-32 -55 1 -12 19 -14 29 -5 39 6 7 9 19 8 26 -2 9 8 15 25 17 15 2 27 6 27 10
-1 15 -39 52 -54 52 -9 0 -16 5 -16 11 0 7 -11 9 -32 5 -18 -4 -49 -8 -68 -9
-29 -2 -35 -6 -35 -26 0 -29 -22 -40 -27 -14 -2 12 -10 3 -25 -29 -13 -26 -29
-50 -36 -55 -8 -4 -20 -19 -27 -33 -7 -14 -26 -38 -42 -55 -69 -72 -101 -112
-114 -145 -14 -33 -67 -80 -92 -80 -7 0 -12 -7 -12 -16 0 -12 -7 -15 -29 -12
-17 3 -27 0 -24 -5 7 -12 -16 -27 -45 -27 -24 0 -112 -74 -112 -95 0 -7 -6
-13 -12 -12 -41 1 -54 -6 -66 -33 -8 -17 -19 -30 -27 -30 -7 0 -18 -7 -25 -15
-7 -8 -16 -12 -21 -9 -5 3 -9 2 -9 -3 0 -4 -27 -25 -59 -46 -33 -21 -62 -45
-65 -54 -5 -11 -10 -12 -19 -5 -8 7 -18 7 -27 1 -13 -8 -13 -10 0 -19 16 -10
-9 -14 -92 -13 -21 0 -35 -4 -32 -9 8 -13 -15 -38 -36 -38 -9 0 -32 -13 -51
-29 -26 -23 -40 -28 -62 -24 -20 4 -32 1 -41 -13 -13 -17 -15 -17 -30 -1 -10
9 -21 17 -26 17 -5 0 -11 9 -15 20 -3 11 -14 19 -23 18 -40 -3 -51 2 -45 20 6
15 5 16 -13 2 -10 -8 -22 -19 -26 -25 -4 -5 -16 -1 -28 10 -13 11 -32 18 -46
17 -15 -2 -24 2 -24 10 0 17 -108 41 -143 32 -15 -3 -38 1 -57 11 -27 14 -37
15 -56 4 -13 -7 -24 -16 -24 -20 0 -5 -7 -6 -15 -3 -8 4 -15 13 -15 21 0 8 -8
13 -17 12 -10 -1 -22 0 -28 1 -5 1 -14 3 -20 5 -5 1 -25 3 -43 3 -19 1 -31 6
-27 12 3 6 -3 10 -15 10 -12 0 -19 4 -15 9 5 9 -28 33 -50 37 -26 4 -55 17
-55 26 0 12 -26 39 -32 32 -6 -5 -78 64 -78 74 0 4 -13 13 -30 19 -20 7 -30
18 -30 31 0 34 -11 52 -32 52 -12 0 -18 6 -16 16 2 11 -14 25 -49 43 -29 14
-53 31 -53 36 0 6 -15 22 -33 36 -17 14 -43 49 -57 77 -14 29 -28 52 -32 52
-12 0 -58 47 -58 58 0 6 -18 32 -40 57 -22 25 -40 50 -40 56 0 5 -5 9 -11 9
-14 0 -39 26 -39 40 0 6 -16 20 -35 31 -20 12 -44 39 -56 65 -13 24 -27 44
-31 44 -5 0 -6 -6 -2 -12 5 -9 2 -9 -9 1 -9 7 -17 19 -17 25 0 7 -13 25 -30
41 -16 16 -30 34 -30 41 0 6 -7 17 -15 24 -9 7 -23 29 -32 49 -20 42 -30 51
-61 51 -13 0 -20 4 -17 10 3 6 -4 10 -18 10 -13 0 -33 11 -45 25 -12 14 -26
25 -32 25 -5 0 -10 6 -10 13 0 16 -43 59 -56 56 -28 -5 -46 4 -55 29 -11 27
-11 27 -20 5 -8 -23 -29 -32 -29 -13 0 6 -8 10 -17 10 -16 0 -16 2 -3 10 13 9
13 12 -2 24 -10 7 -18 22 -18 32 0 13 -14 25 -46 38 -25 10 -47 16 -50 13 -8
-8 -44 25 -44 40 0 7 -7 13 -15 13 -9 0 -25 16 -36 35 -12 19 -25 35 -31 35
-5 0 -7 4 -4 9 7 10 -18 34 -27 25 -11 -11 -43 15 -44 38 -2 24 -36 58 -59 58
-12 0 -19 19 -15 43 1 4 -9 11 -22 16 -14 6 -28 26 -40 59 -14 37 -25 52 -42
56 -29 7 -49 40 -42 67 3 10 2 19 -3 19 -4 0 -10 9 -13 21 -4 14 -10 18 -18
13 -8 -5 -11 -2 -6 8 3 9 0 21 -6 28 -9 9 -9 11 3 9 21 -3 50 11 50 25 0 6 9
17 20 24 22 13 26 42 9 59 -15 15 -3 34 16 27 9 -4 18 1 21 11 5 13 8 14 15 3
6 -9 11 -4 20 19 8 26 13 30 23 20 7 -6 16 -21 20 -32 7 -18 9 -19 15 -2 6 16
8 16 24 -3 20 -23 37 -18 37 11 0 14 -7 19 -26 19 -22 0 -24 3 -15 14 9 10 9
16 1 21 -7 4 -14 -2 -17 -14 -3 -12 -10 -21 -15 -21 -6 0 -8 6 -5 14 7 17 -23
46 -46 46 -20 0 -23 -16 -4 -23 9 -4 8 -8 -3 -16 -21 -15 -46 -13 -64 4 -8 8
-29 15 -46 15 -23 0 -33 5 -37 20 -3 12 -14 20 -26 20 -11 0 -17 -3 -14 -7 15
-15 -14 -28 -53 -25 -30 3 -40 8 -36 18 3 8 -1 14 -8 14 -7 0 -19 7 -26 15 -7
9 -8 15 -2 15 5 0 12 7 16 15 4 11 -2 15 -25 15 -22 0 -32 -5 -36 -20 -7 -26
-13 -25 -42 5 -13 14 -21 32 -17 40 3 10 -1 18 -11 22 -9 4 -19 1 -21 -5 -5
-17 -42 9 -42 29 0 10 -11 20 -25 23 -14 4 -25 12 -25 18 0 19 -32 48 -52 48
-11 0 -22 9 -25 20 -6 22 -33 28 -34 8 0 -10 -2 -10 -6 0 -2 6 -9 10 -13 7 -5
-3 -13 9 -18 27 -6 23 -14 33 -28 33 -22 0 -39 34 -24 49 7 7 1 14 -17 21 -17
7 -28 19 -28 31 0 12 -8 20 -23 22 -17 3 -21 8 -16 26 4 18 1 25 -16 29 -13 3
-20 11 -18 19 3 7 -2 18 -11 24 -13 10 -13 14 -1 29 13 15 12 17 -5 13 -15 -3
-25 7 -42 42 -13 25 -23 56 -23 68 0 15 -7 26 -18 29 -20 5 -43 81 -45 145 -1
28 -6 39 -24 47 -13 6 -23 17 -23 25 0 9 -6 30 -14 48 -49 115 -104 352 -113
490 -3 54 -10 98 -16 98 -6 0 -8 27 -5 70 3 38 1 71 -3 72 -13 4 -30 104 -30
173 0 33 -2 121 -4 195 -2 74 -2 145 1 158 9 42 24 11 24 -49 0 -35 4 -59 11
-59 6 0 9 8 6 18 -4 22 15 61 42 86 l21 19 -15 -49 c-8 -27 -15 -55 -15 -61 0
-18 29 -16 37 2 7 19 63 50 63 36 0 -6 7 -8 15 -5 14 6 16 0 17 -66 1 -3 -2
-20 -5 -37 -6 -30 -4 -33 18 -33 13 0 27 -5 30 -11 4 -5 19 -7 35 -4 20 4 29
2 34 -11 4 -10 11 -13 19 -8 15 11 55 11 131 0 33 -5 61 -5 65 0 3 5 16 14 28
21 20 11 22 10 25 -12 3 -24 4 -24 32 -10 15 8 37 15 47 15 10 0 22 8 27 17 6
9 24 18 42 19 19 1 38 10 46 23 10 13 26 21 44 21 17 0 48 8 70 17 33 15 40
22 38 43 -3 20 2 25 26 30 20 3 33 15 45 40 10 22 24 36 39 38 12 2 22 10 22
18 0 8 -5 13 -11 11 -6 -1 -14 4 -16 11 -3 7 3 12 14 12 17 0 43 40 43 66 0 6
9 14 20 17 11 3 20 13 20 24 1 23 36 66 49 59 5 -3 12 1 15 10 3 8 11 14 18
13 7 -1 21 1 31 6 24 10 67 -2 67 -20 0 -14 4 -13 31 1 35 18 79 7 79 -20 0
-8 14 -26 31 -41 44 -36 53 -22 50 72 -2 43 -3 94 -3 113 1 19 -4 40 -9 46 -6
7 -17 52 -26 101 -20 119 -21 126 -22 144 -1 8 -10 25 -22 38 -25 27 -41 75
-40 119 1 25 -4 35 -23 43 -19 9 -26 24 -35 70 -8 36 -17 59 -25 59 -18 0 -66
71 -66 99 0 12 -4 19 -10 16 -5 -3 -10 1 -10 10 0 9 -16 32 -36 52 -26 25 -38
48 -42 76 -3 28 -11 41 -24 45 -18 4 -18 5 -1 18 17 13 17 14 -4 20 -11 3 -23
14 -26 25 -3 11 -14 19 -27 19 -24 0 -90 49 -90 68 0 6 -9 12 -20 12 -11 0
-20 6 -20 14 0 8 -13 17 -30 21 -19 4 -37 19 -50 41 -12 19 -26 34 -31 34 -6
0 -7 -4 -4 -10 3 -5 1 -10 -5 -10 -7 0 -14 9 -17 20 -4 14 -14 20 -32 20 -15
0 -31 3 -35 7 -3 4 -16 8 -29 9 -124 14 -194 18 -325 18 -83 1 -152 4 -152 9
0 4 -9 7 -20 7 -11 0 -20 5 -20 10 0 6 -6 10 -12 8 -7 -1 -23 4 -36 11 -18 9
-27 10 -37 1 -10 -8 -24 -8 -52 -1 -57 16 -113 14 -113 -4 0 -8 -5 -15 -11
-15 -6 0 -8 8 -5 18 5 14 -2 17 -39 20 -24 1 -47 -2 -50 -8 -3 -5 -17 -10 -30
-10 -13 0 -28 -6 -32 -14 -4 -7 -31 -15 -60 -18 -47 -4 -58 -10 -107 -59 -31
-30 -56 -58 -56 -62 0 -12 -27 -37 -39 -37 -5 0 -13 4 -16 10 -9 15 -18 150
-19 298 -1 72 -4 132 -8 132 -4 0 -14 12 -21 28 -16 31 -21 95 -6 87 5 -4 9 1
9 9 0 9 4 16 9 16 14 0 4 209 -10 226 -8 10 -8 14 -1 14 6 0 12 15 14 33 2 17
8 31 13 30 16 -4 25 47 12 74 -7 17 -8 27 -1 31 19 12 25 70 9 76 -30 11 -17
48 20 55 6 2 17 9 26 17 9 8 19 11 24 7 4 -5 6 2 3 13 -3 12 -2 28 3 35 4 7 3
19 -2 26 -19 22 -27 124 -13 152 18 34 18 66 -1 81 -14 12 -11 57 4 70 8 7 11
111 3 106 -4 -2 -16 13 -26 34 -17 36 -17 40 -2 55 9 9 19 28 22 43 3 15 10
41 14 57 5 17 8 48 8 70 0 22 5 63 11 90 7 28 12 55 13 62 1 7 7 14 14 17 7 3
15 20 19 38 9 38 27 68 72 117 17 19 29 39 27 43 -3 5 -8 6 -12 4 -4 -2 -7 6
-7 19 0 13 3 21 8 18 4 -2 7 1 7 7 0 6 5 8 10 5 9 -6 14 8 11 28 0 4 6 7 14 7
9 0 18 7 21 15 4 8 14 15 25 15 28 0 68 21 63 34 -3 7 16 11 58 11 58 0 63 -2
66 -22 6 -39 33 -26 116 57 44 44 82 80 85 80 4 0 13 15 20 33 8 17 41 58 73
89 32 32 58 61 58 64 0 15 34 44 52 44 10 0 18 6 18 14 0 8 21 25 48 38 26 13
53 31 60 41 7 9 24 17 36 17 13 0 30 7 37 16 12 15 78 57 146 93 14 7 28 21
30 31 3 10 18 24 34 30 32 14 35 20 17 38 -9 9 -9 12 0 12 6 0 9 7 6 15 -7 16
31 54 56 55 23 2 92 43 101 60 4 8 10 23 13 33 4 12 16 17 41 17 19 0 35 5 35
10 0 6 -9 10 -19 10 -36 0 -34 22 6 59 22 20 42 41 44 46 2 6 29 22 60 37 32
16 60 38 67 52 10 22 8 24 -18 29 -48 10 -48 51 -1 110 12 15 12 17 0 18 -8 0
-6 4 6 9 19 8 19 9 -2 9 -24 1 -33 21 -9 21 8 0 14 6 13 13 -1 32 4 48 13 42
6 -3 10 -2 10 2 0 5 10 13 23 18 13 6 21 17 19 28 -3 20 13 23 25 5z m1301
-388 c10 -16 10 -20 -2 -20 -8 0 -21 -3 -30 -6 -12 -5 -16 0 -16 20 0 32 29
36 48 6z m272 -74 c0 -2 -7 -6 -15 -10 -8 -3 -15 -1 -15 4 0 6 7 10 15 10 8 0
15 -2 15 -4z m688 -239 c-3 -9 68 -46 90 -47 6 0 12 5 12 10 0 6 7 10 15 10 8
0 15 -7 15 -15 0 -8 3 -14 8 -13 19 5 91 -13 102 -27 7 -8 27 -15 45 -15 18 0
38 -7 45 -15 7 -9 18 -14 23 -12 12 4 47 -28 47 -43 0 -5 8 -14 19 -19 10 -6
28 -26 40 -46 11 -19 26 -35 34 -35 7 0 13 -10 14 -22 1 -12 9 -26 18 -30 8
-5 15 -18 15 -28 0 -11 5 -20 10 -20 6 0 10 -5 10 -10 0 -6 -11 -3 -26 6 -18
12 -28 14 -36 6 -22 -22 8 -40 57 -35 38 5 49 1 82 -26 21 -17 46 -31 55 -31
12 0 18 -8 18 -21 0 -16 -5 -20 -19 -16 -14 3 -20 -2 -24 -20 -4 -19 2 -26 28
-37 18 -8 36 -19 39 -25 11 -17 -60 -14 -78 4 -8 8 -21 15 -28 15 -7 0 -37 16
-65 35 -32 22 -54 31 -58 24 -5 -7 -14 -4 -26 7 -10 9 -19 14 -19 10 0 -4 -12
-1 -27 8 -16 8 -54 26 -86 41 -32 15 -77 45 -100 67 -23 22 -52 49 -65 61 -12
12 -32 22 -45 22 -17 0 -22 6 -22 28 -1 21 -9 32 -35 45 -19 11 -42 36 -54 60
-12 23 -27 42 -34 42 -14 0 -26 27 -36 83 -7 37 -6 38 19 35 14 -2 24 -7 23
-11z m-2938 -106 c0 -5 -9 -12 -19 -16 -12 -4 -18 -12 -14 -21 4 -10 0 -12
-11 -8 -16 6 -22 35 -9 47 10 10 53 8 53 -2z m-455 -358 c-3 -16 -23 -46 -44
-68 -20 -22 -50 -57 -65 -77 -29 -41 -61 -50 -68 -20 -7 23 24 88 40 85 7 -2
12 4 12 12 0 8 4 15 9 15 5 0 28 18 52 40 53 48 74 52 64 13z m7367 -1066 c5
-10 27 -26 48 -37 52 -27 84 -57 110 -107 11 -23 27 -44 35 -47 13 -4 91 -157
113 -221 6 -16 14 -55 18 -85 8 -70 10 -79 24 -126 17 -58 8 -235 -17 -319
-26 -87 -45 -139 -59 -156 -16 -21 -54 -98 -54 -110 0 -6 -8 -23 -18 -37 -10
-15 -29 -61 -42 -102 -13 -41 -30 -88 -38 -104 -8 -17 -23 -68 -33 -115 -11
-47 -22 -97 -25 -111 -3 -14 -10 -34 -14 -45 -5 -11 -18 -47 -29 -80 -11 -33
-38 -96 -61 -140 -22 -44 -40 -89 -40 -100 0 -11 -7 -31 -15 -45 -8 -14 -30
-56 -50 -95 -20 -38 -45 -86 -55 -105 -11 -19 -19 -43 -20 -54 0 -10 -12 -41
-26 -70 -21 -39 -26 -66 -26 -116 0 -36 -7 -77 -14 -92 -8 -15 -14 -35 -14
-45 -1 -10 -11 -26 -23 -35 -12 -10 -35 -29 -51 -42 -70 -59 -246 -56 -246 4
0 11 -9 28 -21 38 -51 48 -57 80 -51 257 l2 51 35 -4 c19 -2 38 -8 41 -13 11
-18 24 -8 24 18 0 30 31 102 44 103 10 0 35 31 36 43 0 4 -18 -4 -40 -18 l-40
-25 0 44 c0 53 -15 68 -32 31 -14 -30 -45 -30 -39 0 2 11 6 53 8 93 4 70 6 73
41 97 20 14 42 25 49 25 7 0 13 8 13 18 0 10 6 26 14 37 7 11 16 32 20 47 3
15 16 33 29 39 22 12 37 28 37 41 0 8 -103 -44 -129 -64 -9 -8 -28 -20 -43
-28 -26 -12 -29 -11 -50 15 -32 40 -36 54 -31 100 6 54 5 75 -3 112 -6 32 -5
33 40 45 25 7 46 17 47 23 6 77 5 80 -26 79 -25 -1 -31 2 -30 20 0 11 4 26 8
33 4 6 -1 27 -12 46 -23 41 -12 72 22 61 25 -8 47 -28 47 -43 0 -13 13 -14 26
-2 5 5 20 11 34 13 20 2 26 -2 28 -19 4 -28 18 -30 25 -5 2 11 14 22 26 25 21
5 22 3 16 -33 -10 -57 10 -57 51 0 20 27 40 50 45 50 5 0 7 11 3 24 -3 14 0
29 10 39 18 18 23 132 6 142 -8 5 -8 11 0 20 7 9 8 26 1 57 -11 49 -20 112
-25 171 -2 21 -5 40 -8 43 -8 7 -29 -107 -22 -118 7 -11 -13 -28 -34 -28 -10
0 -12 8 -7 31 5 20 2 36 -8 47 -20 24 -28 97 -15 157 6 27 12 63 13 78 4 35
13 46 25 27 7 -11 11 -11 24 -1 8 7 19 10 25 7 15 -9 21 20 14 72 -6 56 22
123 60 143 12 7 26 18 30 25 5 9 27 14 65 14 55 0 59 -3 110 -50 46 -44 55
-49 73 -39 23 12 69 4 69 -11 0 -6 8 -10 18 -10 10 0 23 -5 29 -11 5 -5 25
-18 44 -27 28 -14 35 -24 40 -57 4 -22 3 -50 -2 -62 -4 -12 -4 -25 0 -27 5 -3
11 -19 14 -36 8 -35 29 -39 44 -7 27 59 31 89 22 150 -5 34 -12 87 -16 117
-11 110 -95 211 -205 249 -86 30 -288 11 -381 -35 -27 -13 -30 -12 -57 15 -25
24 -28 34 -23 65 3 20 9 36 12 36 4 0 15 17 26 38 27 54 54 80 105 106 25 13
59 31 75 40 41 24 193 18 207 -7z m-520 -830 c-7 -29 -32 -67 -43 -67 -17 0
-9 35 11 53 11 9 20 24 20 32 0 9 4 14 9 11 5 -3 7 -16 3 -29z m113 -507 c-3
-5 -11 -10 -16 -10 -6 0 -7 5 -4 10 3 6 11 10 16 10 6 0 7 -4 4 -10z m-220
-20 c-3 -5 -11 -10 -16 -10 -6 0 -7 5 -4 10 3 6 11 10 16 10 6 0 7 -4 4 -10z
m-6930 -360 c0 -1 27 -4 60 -7 33 -2 66 -9 73 -15 9 -8 18 -6 31 6 28 25 74
11 169 -51 25 -17 39 -20 52 -13 13 7 21 5 30 -4 6 -8 22 -13 36 -10 13 2 24
1 24 -4 0 -4 10 -19 21 -31 19 -20 28 -22 69 -17 36 5 50 3 60 -9 7 -8 23 -15
36 -15 13 0 28 -9 34 -20 6 -11 18 -20 28 -20 9 0 23 -4 31 -9 11 -7 9 -13 -7
-29 -16 -16 -32 -21 -66 -18 -25 1 -49 5 -52 9 -11 11 -72 8 -79 -3 -9 -15
-51 -12 -65 5 -16 19 -49 19 -70 0 -17 -15 -50 -11 -50 6 0 5 -7 9 -15 9 -8 0
-15 -6 -15 -14 0 -15 -30 -26 -72 -26 -27 0 -28 2 -28 56 0 40 -3 54 -12 51
-7 -2 -12 -12 -10 -21 3 -14 -1 -16 -17 -11 -18 5 -21 2 -21 -21 0 -26 0 -27
20 -9 19 17 20 17 20 1 0 -23 -18 -56 -31 -56 -6 0 -20 -11 -31 -25 -25 -32
-87 -51 -117 -36 -11 7 -21 16 -21 21 0 6 -7 10 -15 10 -13 0 -20 -20 -12 -35
1 -3 -13 -14 -31 -25 -27 -17 -40 -19 -67 -11 -43 11 -60 -5 -53 -52 3 -17 3
-38 1 -44 -6 -15 -33 -17 -33 -3 0 6 -16 10 -35 10 -26 0 -33 -3 -29 -15 9
-23 -29 -19 -51 5 -10 11 -23 20 -29 20 -7 0 -20 20 -30 44 -10 25 -25 47 -33
51 -10 3 -13 13 -10 25 3 11 -2 35 -11 53 -12 24 -16 53 -13 117 3 87 11 107
54 123 9 3 17 13 17 22 0 22 40 34 86 26 21 -4 53 -4 69 1 17 4 38 5 48 2 9
-3 17 -1 17 4 0 6 30 9 73 7 39 -2 72 -4 72 -5z m698 -317 c46 -9 41 -23 -7
-23 -25 0 -46 2 -46 4 0 2 -3 12 -7 22 -5 14 -3 16 13 10 10 -4 31 -10 47 -13z
m-115 -10 c-2 -12 -12 -18 -28 -18 -16 0 -26 6 -28 18 -3 13 3 17 28 17 25 0
31 -4 28 -17z m-348 -43 c0 -13 -28 -25 -38 -16 -3 4 0 11 8 16 20 13 30 12
30 0z m-70 -44 c0 -19 -5 -38 -11 -41 -15 -10 -59 3 -59 18 0 22 31 57 51 57
15 0 19 -7 19 -34z m-480 -96 c0 -5 -2 -10 -4 -10 -3 0 -8 5 -11 10 -3 6 -1
10 4 10 6 0 11 -4 11 -10z m1545 -38 c6 -23 17 -35 35 -39 56 -14 124 -92 113
-131 -5 -21 -7 -21 -22 -8 -42 40 -75 66 -82 66 -5 0 -9 6 -9 13 0 21 -43 67
-62 67 -21 0 -42 36 -34 56 11 28 50 12 61 -24z m-470 -36 c18 -13 17 -14 -8
-30 -29 -19 -47 -14 -47 13 0 33 23 40 55 17z m355 -65 c0 -5 24 -15 53 -23
49 -14 52 -16 53 -49 2 -61 -39 -109 -92 -109 -17 0 -37 -7 -44 -15 -7 -8 -20
-15 -30 -15 -10 0 -32 -16 -49 -35 -28 -32 -51 -45 -51 -29 0 4 15 21 34 38
18 18 39 49 46 70 7 21 18 50 26 64 8 15 14 36 14 47 0 36 12 65 26 65 8 0 14
-4 14 -9z m-709 -21 c12 -7 19 -21 19 -40 0 -17 9 -39 20 -50 11 -11 20 -27
20 -35 0 -8 5 -15 10 -15 6 0 10 6 9 13 -1 6 -1 29 0 49 1 32 5 37 32 43 49
11 64 -11 48 -66 -7 -24 -19 -48 -25 -54 -26 -21 15 -105 50 -105 8 0 16 -7
19 -15 10 -24 70 -43 140 -43 65 0 137 -18 137 -34 0 -5 -10 -29 -21 -54 -15
-31 -24 -41 -30 -33 -6 10 -14 8 -33 -10 -24 -22 -28 -23 -52 -11 -20 11 -29
12 -44 2 -11 -7 -27 -12 -35 -12 -8 0 -15 -9 -15 -19 0 -11 -5 -23 -10 -26
-13 -8 -42 14 -34 26 7 12 -8 11 -62 -2 -24 -6 -44 -16 -44 -21 0 -12 -171 -7
-188 6 -10 7 -16 5 -23 -5 -8 -11 -9 -10 -7 6 2 11 -3 25 -12 32 -13 10 -13
13 4 26 19 14 19 15 -2 26 -12 6 -21 15 -20 19 5 23 -28 95 -48 102 -24 10
-38 48 -35 99 3 36 5 39 64 101 20 22 37 47 37 55 0 8 7 15 15 15 8 0 15 4 15
9 0 4 15 13 33 19 43 14 45 14 68 2z m6169 -20 c0 -5 -7 -10 -15 -10 -8 0 -15
5 -15 10 0 6 7 10 15 10 8 0 15 -4 15 -10z m-23 -52 c-3 -8 -6 -5 -6 6 -1 11
2 17 5 13 3 -3 4 -12 1 -19z m-5297 -135 c0 -9 -10 -31 -22 -49 -17 -25 -33
-35 -63 -40 -43 -7 -75 -29 -75 -52 0 -9 -6 -12 -16 -8 -9 3 -24 6 -35 6 -27
0 -27 50 1 57 11 3 20 10 20 15 0 28 45 48 140 62 13 2 26 9 28 15 6 17 22 13
22 -6z m-3266 -134 c-8 -13 -24 -1 -24 18 0 13 3 13 15 3 8 -7 12 -16 9 -21z
m8486 -93 c8 -15 9 -32 4 -43 -6 -15 -9 -12 -12 15 -2 17 -7 32 -13 32 -5 0
-9 5 -9 10 0 18 16 10 30 -14z m-6510 -28 c0 -36 -4 -35 -14 5 -4 16 -2 27 4
27 5 0 10 -14 10 -32z m75 22 c3 -5 1 -10 -4 -10 -6 0 -11 5 -11 10 0 6 2 10
4 10 3 0 8 -4 11 -10z m-35 -107 c0 -48 -10 -83 -22 -83 -5 0 -8 18 -7 40 2
21 0 42 -4 46 -14 14 -7 34 13 34 16 0 20 -7 20 -37z m-2550 -1103 c0 -21 -34
-45 -50 -35 -19 12 -10 25 18 26 23 2 24 2 4 6 -26 5 -20 23 9 23 12 0 19 -7
19 -20z m-115 1 c3 -5 1 -12 -5 -16 -5 -3 -10 1 -10 9 0 18 6 21 15 7z m-59
-866 c-15 -23 -56 -33 -56 -14 0 8 12 24 27 36 20 18 28 20 34 11 5 -7 2 -22
-5 -33z m12 -202 c0 -5 2 -16 6 -25 11 -25 -6 -69 -37 -91 -51 -39 -70 18 -30
96 9 18 21 27 38 27 14 0 24 -3 23 -7z m9512 -193 c0 -5 -2 -10 -4 -10 -3 0
-8 5 -11 10 -3 6 -1 10 4 10 6 0 11 -4 11 -10z m344 -11 c-3 -5 4 -22 15 -38
12 -16 21 -43 21 -59 0 -17 5 -34 11 -38 6 -3 8 -17 4 -33 -4 -14 -8 -33 -9
-41 -1 -8 -8 -28 -14 -45 -7 -16 -17 -42 -23 -57 -6 -15 -20 -30 -30 -33 -10
-4 -22 -18 -25 -33 -4 -15 -16 -38 -28 -52 -12 -14 -30 -42 -40 -62 -11 -21
-25 -38 -31 -38 -26 0 -60 -26 -60 -45 0 -13 -7 -20 -20 -20 -11 0 -21 -9 -25
-20 -10 -37 -40 -85 -54 -85 -7 0 -19 -11 -26 -25 -7 -14 -24 -32 -37 -40 -12
-9 -23 -20 -23 -26 0 -19 -67 -80 -240 -219 -68 -54 -120 -90 -132 -91 -7 0
-33 -16 -58 -35 -49 -38 -149 -88 -158 -79 -3 3 -1 5 5 5 6 0 13 15 17 32 10
51 29 88 46 88 19 1 51 25 49 36 -1 5 1 17 6 28 5 12 3 21 -6 26 -17 11 -40
-7 -32 -27 4 -11 -1 -14 -22 -11 -37 4 -42 22 -12 48 18 15 23 28 19 47 -4 24
-3 25 21 19 23 -5 26 -3 32 35 5 26 13 43 24 46 9 2 24 26 34 52 11 31 24 51
37 54 15 4 20 14 20 39 0 19 3 38 8 42 4 4 7 11 7 16 0 12 72 80 85 80 5 0 10
7 10 15 0 8 9 24 20 35 11 11 20 29 20 40 0 11 5 20 10 20 6 0 10 7 10 15 0 8
5 15 11 15 6 0 9 6 6 14 -3 8 -1 16 4 18 6 2 11 10 13 18 10 50 29 83 54 95
12 5 23 19 23 30 2 18 2 17 6 -2 5 -28 23 -30 23 -4 0 24 39 39 52 20 4 -8 6
-26 4 -41 -3 -16 -2 -28 3 -28 5 0 15 -32 22 -71 10 -56 17 -73 33 -79 30 -11
36 -4 36 46 0 49 16 89 49 118 12 11 21 27 21 37 0 9 15 26 34 37 22 13 35 30
39 51 7 32 24 39 56 21 17 -8 18 -5 14 33 -6 59 18 115 51 115 14 0 23 -4 20
-9z m-6064 -9 c0 -5 -4 -10 -10 -10 -5 0 -10 5 -10 10 0 6 5 10 10 10 6 0 10
-4 10 -10z m5710 -46 c0 -8 -5 -12 -10 -9 -6 4 -8 11 -5 16 9 14 15 11 15 -7z
m1174 -807 c4 -35 1 -70 -8 -98 -8 -24 -21 -69 -31 -101 -9 -31 -25 -64 -36
-74 -10 -9 -19 -22 -19 -29 0 -13 -49 -111 -73 -145 -9 -14 -17 -32 -17 -41 0
-10 -11 -31 -25 -47 -14 -17 -25 -34 -25 -40 0 -5 -7 -23 -15 -38 -8 -16 -15
-37 -15 -46 0 -10 -10 -28 -21 -39 -12 -12 -24 -33 -28 -48 -4 -14 -21 -35
-39 -46 -17 -11 -29 -26 -27 -33 3 -7 -6 -28 -20 -46 -14 -18 -25 -39 -25 -48
0 -8 -13 -24 -30 -36 -16 -13 -30 -30 -30 -38 0 -9 -13 -33 -28 -53 -16 -20
-37 -51 -48 -70 -10 -18 -30 -46 -44 -61 -43 -48 -70 -88 -70 -102 0 -8 -11
-25 -24 -37 -13 -13 -27 -34 -30 -47 -4 -13 -19 -30 -35 -38 -18 -10 -30 -26
-34 -45 -4 -20 -16 -35 -35 -45 -20 -10 -31 -26 -36 -46 -4 -20 -13 -34 -26
-37 -11 -3 -20 -12 -20 -20 0 -19 -43 -93 -54 -93 -13 0 -35 -32 -36 -52 0 -9
-16 -25 -35 -37 -19 -11 -35 -27 -35 -36 0 -9 -15 -25 -33 -35 -19 -11 -40
-31 -47 -45 -7 -13 -26 -27 -42 -30 -16 -4 -32 -13 -35 -21 -3 -8 -10 -14 -17
-14 -6 0 -19 -8 -28 -17 -25 -28 -61 -53 -75 -53 -7 0 -27 -13 -45 -30 -17
-17 -37 -30 -45 -30 -7 0 -16 -7 -19 -15 -4 -8 -12 -15 -19 -15 -7 0 -29 -13
-50 -30 -21 -16 -47 -30 -59 -30 -12 0 -25 -9 -31 -22 -6 -13 -19 -25 -30 -27
-11 -2 -33 -13 -50 -25 -36 -25 -60 -41 -99 -64 -16 -9 -39 -26 -50 -37 -12
-12 -46 -37 -76 -57 -30 -20 -66 -48 -79 -62 -14 -14 -32 -26 -42 -26 -9 0
-19 -9 -22 -20 -3 -11 -16 -24 -30 -29 -26 -10 -151 -93 -177 -117 -8 -8 -44
-33 -80 -56 -36 -23 -69 -48 -75 -54 -5 -6 -23 -16 -40 -21 -16 -6 -55 -27
-85 -47 -30 -20 -60 -36 -67 -36 -7 0 -13 -5 -13 -11 0 -5 -15 -17 -32 -25
-18 -8 -40 -19 -48 -24 -43 -28 -120 -69 -141 -75 -13 -4 -37 -17 -54 -30 -16
-12 -41 -26 -55 -30 -14 -4 -41 -17 -60 -28 -52 -32 -143 -76 -157 -77 -7 0
-16 -6 -20 -13 -4 -7 -38 -25 -75 -41 -38 -16 -68 -32 -68 -36 0 -4 -30 -22
-67 -40 -38 -19 -75 -39 -83 -45 -8 -6 -35 -20 -60 -30 -25 -10 -55 -29 -68
-42 -13 -13 -31 -23 -40 -23 -10 0 -27 -7 -38 -15 -10 -8 -27 -15 -36 -15 -9
0 -23 -7 -32 -15 -8 -9 -43 -26 -76 -39 -34 -12 -70 -30 -81 -39 -10 -9 -27
-17 -36 -17 -9 0 -24 -6 -32 -14 -9 -7 -42 -21 -73 -30 -32 -9 -58 -21 -58
-26 0 -6 -5 -10 -11 -10 -12 0 -118 -43 -161 -66 -15 -8 -53 -23 -85 -33 -32
-10 -74 -28 -93 -39 -19 -12 -53 -25 -75 -31 -22 -5 -58 -14 -80 -20 -22 -5
-45 -17 -51 -25 -6 -9 -21 -16 -33 -16 -12 0 -32 -6 -44 -14 -12 -7 -42 -17
-67 -20 -25 -4 -55 -14 -68 -22 -12 -8 -28 -14 -35 -13 -6 1 -28 -5 -47 -13
-22 -10 -53 -14 -83 -12 -31 3 -58 -1 -75 -11 -68 -37 -191 -37 -219 1 -23 29
-11 144 23 226 22 55 25 72 16 90 -16 33 -21 99 -9 126 7 16 7 26 -1 34 -6 6
-7 19 -2 33 5 13 3 61 -5 119 -7 53 -10 109 -6 124 4 15 6 47 5 72 -7 164 -3
317 9 337 6 9 1 65 -8 91 -3 7 1 23 7 37 8 18 8 28 0 38 -8 10 -6 21 9 46 11
18 21 55 23 82 3 53 9 65 26 54 7 -4 9 -19 5 -36 -4 -19 -3 -29 5 -29 8 0 9
-7 5 -17 -14 -32 -18 -145 -16 -453 2 -412 5 -522 15 -543 5 -10 3 -30 -4 -48
-11 -26 -10 -35 10 -74 13 -25 31 -47 41 -50 10 -3 21 -14 24 -25 3 -10 22
-31 43 -46 59 -46 72 -62 72 -95 0 -27 2 -30 23 -23 12 4 30 7 41 6 19 -1 132
39 179 64 15 9 35 14 45 12 10 -2 38 7 63 18 88 42 120 54 147 54 15 0 36 7
46 15 11 8 30 15 43 15 13 0 31 9 40 20 9 11 41 24 69 30 29 6 64 20 77 31 14
10 30 19 36 19 7 0 29 9 51 20 22 11 49 20 60 20 11 0 23 6 26 14 3 8 26 20
52 27 26 7 58 21 71 31 13 10 34 18 47 18 12 0 26 5 29 10 4 6 38 25 76 42 38
17 69 35 69 39 0 5 13 9 28 9 16 0 37 8 46 19 9 10 30 21 46 24 15 4 40 18 54
32 16 16 36 25 56 25 16 0 30 3 30 8 0 8 39 32 125 76 34 17 74 41 89 54 16
12 39 22 52 22 12 0 29 9 36 19 8 11 39 29 70 41 31 11 62 27 68 35 7 8 19 15
27 15 8 0 31 11 51 25 20 14 45 25 55 25 11 0 32 11 49 25 16 14 37 25 45 25
9 0 30 11 47 24 17 13 42 27 56 31 14 4 35 16 48 26 13 10 36 20 51 24 17 3
31 14 34 26 3 11 17 21 35 25 16 3 46 21 67 40 21 19 47 34 57 34 10 0 18 4
18 9 0 9 64 51 143 93 17 10 39 26 47 37 8 10 26 22 40 26 14 4 39 22 57 41
18 19 39 34 47 34 9 0 23 11 32 25 9 14 23 25 31 25 8 0 31 16 51 35 76 71
105 95 117 95 7 0 30 16 51 35 22 19 48 35 58 35 11 0 31 13 45 29 14 16 40
31 56 35 22 5 34 15 42 36 9 24 17 30 40 30 45 0 71 10 76 30 2 10 24 27 48
38 24 10 53 29 63 41 11 11 27 21 36 21 9 0 27 11 40 25 13 14 31 25 40 25 21
0 40 20 40 42 0 10 16 26 39 38 22 11 42 29 46 40 4 11 20 23 38 28 22 6 33
15 35 30 2 13 14 29 27 38 13 8 28 27 35 42 20 49 37 72 73 100 20 15 35 32
32 38 -2 7 12 26 30 44 18 18 31 38 29 45 -3 7 6 20 20 29 16 10 26 26 26 40
0 12 9 31 20 41 11 10 20 23 20 30 0 6 14 21 30 33 17 13 30 31 30 41 0 10 14
30 30 44 17 15 30 32 30 37 0 11 67 109 85 125 25 22 75 94 75 108 0 9 5 19
11 23 19 11 89 126 89 145 0 10 8 20 18 23 17 6 42 49 42 73 0 8 10 24 23 36
12 12 33 55 46 95 13 40 32 79 43 86 10 7 21 26 24 42 3 16 12 36 20 46 9 9
17 27 18 40 2 13 15 36 29 50 15 15 27 35 27 44 0 9 11 41 25 71 15 31 28 81
32 118 7 81 28 87 37 12z m-6304 -22 c0 -8 -4 -15 -9 -15 -5 0 -11 7 -15 15
-3 9 0 15 9 15 8 0 15 -7 15 -15z m3504 -790 c3 -9 0 -15 -9 -15 -8 0 -15 7
-15 15 0 8 4 15 9 15 5 0 11 -7 15 -15z m-1109 -645 c3 -5 1 -10 -4 -10 -6 0
-11 5 -11 10 0 6 2 10 4 10 3 0 8 -4 11 -10z m-7235 -202 c0 -7 -9 -26 -20
-43 -18 -28 -20 -28 -20 -7 0 24 20 62 32 62 5 0 8 -6 8 -12z m6000 -62 c0 -3
-4 -8 -10 -11 -5 -3 -10 -1 -10 4 0 6 5 11 10 11 6 0 10 -2 10 -4z m0 -56 c0
-10 -5 -22 -11 -25 -6 -4 -8 -13 -5 -20 2 -7 -2 -22 -10 -33 -7 -11 -16 -53
-19 -93 -3 -41 -7 -90 -10 -109 -2 -19 -6 -51 -7 -70 -2 -25 -8 -36 -22 -38
-37 -8 -49 53 -17 82 14 13 21 38 26 94 13 142 44 250 67 236 4 -3 8 -14 8
-24z m-76 -466 c4 -33 2 -61 -3 -68 -6 -7 -8 -21 -5 -33 3 -12 -2 -27 -12 -38
-10 -9 -18 -31 -18 -49 -1 -20 -6 -31 -15 -31 -20 0 -33 51 -16 65 7 6 15 46
19 93 8 98 13 117 30 117 9 0 16 -20 20 -56z"/>
<path d="M8620 14394 c0 -30 72 -116 85 -102 2 2 -2 24 -8 51 -10 39 -15 47
-34 47 -13 0 -23 5 -23 10 0 6 -4 10 -10 10 -5 0 -10 -7 -10 -16z"/>
<path d="M9168 12875 c-3 -3 -29 -8 -58 -11 -28 -2 -60 -9 -71 -14 -13 -7 -19
-7 -19 0 0 17 -29 11 -50 -10 -16 -16 -35 -20 -87 -22 -125 -3 -145 -6 -174
-27 -16 -12 -34 -19 -39 -16 -13 8 -50 -4 -50 -16 0 -5 11 -9 25 -9 31 0 31
-3 -1 -46 -23 -30 -32 -34 -65 -32 -30 1 -44 -4 -60 -21 -17 -18 -29 -22 -56
-18 -46 8 -79 -6 -95 -40 -11 -24 -20 -28 -61 -31 -40 -3 -49 -7 -57 -28 -5
-13 -15 -24 -21 -24 -13 0 -82 -31 -89 -40 -10 -14 -49 -30 -72 -30 -13 0 -28
-8 -34 -17 -6 -10 -27 -27 -45 -37 -29 -17 -32 -17 -20 -3 8 10 11 21 7 25 -4
4 -18 -5 -30 -20 -11 -15 -35 -32 -52 -38 -17 -6 -36 -22 -42 -35 -7 -15 -20
-25 -32 -25 -12 0 -41 -5 -66 -11 -32 -8 -44 -16 -44 -29 0 -30 -11 -50 -29
-50 -20 -1 -56 -30 -64 -52 -4 -10 -13 -18 -22 -18 -8 0 -34 -18 -57 -41 -35
-34 -48 -40 -75 -37 -26 3 -34 0 -39 -15 -3 -11 -1 -23 6 -27 14 -9 -21 -20
-62 -20 -18 0 -31 -8 -39 -22 -7 -13 -29 -42 -50 -65 -22 -24 -39 -49 -39 -57
0 -8 -6 -17 -12 -19 -7 -3 4 -6 25 -6 34 -1 38 -3 32 -21 -4 -11 -20 -35 -36
-52 -35 -40 -36 -46 -4 -54 16 -4 24 -12 23 -22 -2 -12 8 -20 35 -26 20 -5 37
-15 37 -22 0 -6 14 -14 31 -18 45 -9 49 -8 49 9 0 22 50 32 62 11 12 -21 38
-21 38 2 0 18 35 46 48 38 10 -6 115 57 112 68 -2 10 29 30 36 23 8 -7 -8 -37
-20 -37 -12 0 -15 -138 -2 -158 6 -11 -5 -17 -26 -13 -20 3 -5 -27 22 -42 32
-19 35 -27 21 -55 -31 -62 -34 -73 -24 -94 26 -56 33 -82 33 -118 0 -33 3 -40
20 -40 15 0 20 -7 20 -25 0 -14 4 -25 9 -25 5 0 11 -9 14 -20 3 -11 14 -20 25
-20 21 0 46 -23 35 -33 -3 -4 1 -7 10 -7 10 0 17 -5 17 -11 0 -7 13 -10 34 -7
42 5 50 -14 36 -77 -13 -54 -12 -65 3 -65 20 0 50 37 44 54 -3 8 0 20 8 26 10
8 13 7 12 -2 -3 -78 4 -116 22 -121 12 -3 24 -20 32 -46 8 -29 16 -38 23 -31
19 19 53 11 60 -14 7 -28 33 -41 53 -25 17 14 22 10 25 -21 5 -46 57 -81 119
-82 25 0 43 -6 46 -14 7 -19 23 -18 38 3 11 14 15 15 29 4 8 -7 35 -14 59 -16
24 -1 53 -6 65 -9 16 -5 22 -3 22 8 0 8 -10 17 -22 19 -22 4 -22 4 -2 6 24 1
56 31 34 31 -7 0 -18 8 -25 17 -11 14 -10 23 1 45 14 26 54 40 54 19 0 -6 13
-24 28 -41 34 -37 67 -34 52 5 -7 17 -5 27 7 37 13 10 17 10 20 1 3 -7 11 -13
18 -13 8 0 18 -8 24 -17 9 -17 11 -17 45 0 20 9 43 17 50 17 7 0 27 14 44 30
24 23 42 30 74 32 86 3 102 5 106 17 2 6 7 9 12 6 4 -3 6 4 3 14 -3 10 2 30
10 42 11 18 13 30 5 49 -6 15 -12 20 -15 13 -3 -7 -16 -13 -30 -13 -16 0 -23
4 -19 13 3 6 9 20 12 30 8 20 54 24 54 3 0 -8 8 -23 18 -34 25 -28 56 -9 59
37 1 19 8 38 17 43 9 5 16 15 16 21 0 16 36 47 55 47 8 0 15 -4 15 -10 0 -19
37 -10 60 15 13 14 33 25 44 25 37 0 105 34 108 54 4 23 17 31 81 47 27 6 47
17 47 25 0 7 11 21 25 30 14 9 25 23 25 30 0 8 6 17 14 20 17 7 29 51 30 114
1 50 26 67 45 32 12 -23 53 -19 44 4 -4 11 5 14 34 14 47 0 56 6 42 32 -16 30
18 92 54 96 15 2 27 9 27 18 0 8 10 14 24 14 31 0 64 40 72 89 10 59 13 66 44
101 17 19 30 40 30 47 0 7 4 13 10 13 12 0 33 77 26 95 -6 17 -46 8 -46 -10 0
-14 -22 -25 -51 -25 -10 0 -19 -4 -19 -10 0 -5 -5 -10 -11 -10 -5 0 -7 5 -3
11 4 8 -3 9 -26 4 -23 -5 -30 -4 -26 4 4 6 13 11 19 11 7 0 21 14 30 30 10 17
13 30 8 30 -6 0 -11 -7 -11 -15 0 -17 -46 -17 -60 0 -5 6 -10 32 -11 58 -3 44
-4 47 -30 47 -15 0 -31 -4 -34 -10 -16 -26 -24 -4 -21 58 1 37 -1 74 -5 82 -4
8 -10 23 -13 33 -6 18 -26 24 -26 8 0 -12 -55 -94 -73 -109 -12 -11 -41 -2
-37 12 4 13 -12 81 -22 94 -14 17 -33 0 -60 -52 -23 -45 -35 -56 -53 -49 -7 2
-22 -7 -33 -22 -16 -20 -26 -24 -46 -19 -21 5 -26 2 -27 -12 0 -11 -5 -4 -10
14 -7 24 -19 36 -39 44 -22 7 -30 16 -30 34 0 14 -6 24 -14 24 -15 0 -28 -19
-66 -97 -28 -58 -50 -57 -50 3 0 40 -2 45 -15 34 -8 -7 -15 -23 -15 -35 0 -16
-6 -22 -21 -21 -21 1 -32 13 -43 48 -3 11 -11 15 -21 12 -8 -4 -22 -1 -29 6
-21 16 -66 -15 -66 -45 0 -12 -7 -28 -15 -35 -13 -11 -15 -8 -15 13 0 34 -10
58 -21 51 -5 -3 -9 -16 -9 -29 0 -23 -24 -40 -41 -29 -6 3 -17 0 -25 -7 -12
-10 -17 -9 -28 6 -7 10 -18 15 -23 12 -6 -4 -16 0 -23 8 -10 12 -15 10 -35
-13 -19 -23 -25 -24 -39 -13 -9 7 -16 19 -16 27 0 26 -17 23 -40 -8 -12 -17
-22 -41 -22 -54 0 -18 -8 -25 -31 -30 -19 -4 -33 -2 -35 4 -2 6 -10 8 -18 5
-8 -3 -14 1 -14 8 0 8 -5 6 -13 -5 -15 -21 -52 -18 -52 3 0 8 -5 16 -12 18 -7
3 -13 -10 -15 -34 -2 -30 -7 -38 -23 -38 -14 0 -21 -8 -25 -30 -8 -44 -35 -44
-75 2 -31 34 -41 34 -36 1 0 -4 -8 -12 -19 -18 -14 -8 -20 -21 -20 -45 0 -28
-4 -35 -20 -35 -12 0 -26 12 -35 30 -8 16 -24 34 -35 40 -11 6 -20 17 -20 24
0 8 -6 19 -14 25 -21 17 -51 -1 -64 -39 -8 -22 -19 -32 -41 -36 -17 -4 -29
-11 -28 -17 4 -19 -50 -32 -77 -18 -13 7 -34 10 -47 6 -13 -3 -19 -3 -14 2 6
4 15 21 20 37 6 19 19 32 35 36 14 4 41 21 60 39 19 17 45 31 57 31 13 0 23 5
23 10 0 6 29 31 65 57 36 26 65 50 65 54 0 4 13 10 30 14 16 4 32 11 35 16 4
5 18 9 32 9 17 0 44 18 84 57 33 31 71 65 86 74 15 10 30 25 35 33 5 9 21 16
35 16 14 0 35 10 47 23 34 35 108 92 120 92 6 0 10 -6 9 -12 -5 -24 33 -13 63
17 16 16 34 30 41 30 6 0 19 8 29 18 17 16 32 20 101 25 17 1 40 10 50 20 11
9 28 17 38 17 30 0 138 22 162 32 11 6 26 7 31 4 6 -3 30 0 54 8 37 13 45 13
65 1 12 -8 41 -17 65 -19 24 -3 53 -8 65 -11 14 -5 37 -1 59 10 26 12 39 14
47 6 8 -8 5 -11 -11 -11 -12 0 -22 -5 -22 -11 0 -8 23 -10 70 -7 38 2 64 0 57
-4 -14 -9 -12 -10 36 -26 20 -8 47 -10 60 -7 18 6 20 5 10 -6 -19 -19 -16 -29
10 -28 47 1 100 -10 108 -23 6 -9 31 -13 83 -13 56 1 70 -2 59 -10 -14 -10
-13 -13 1 -28 9 -9 23 -14 31 -10 9 3 21 1 28 -5 15 -12 45 -10 70 4 31 17 19
67 -18 79 -50 16 -95 54 -95 79 0 31 -19 46 -57 46 -22 0 -37 7 -45 20 -7 11
-21 20 -32 20 -11 0 -28 8 -38 17 -10 9 -33 16 -51 16 -17 0 -35 5 -39 10 -3
6 -15 11 -25 12 -36 3 -88 18 -101 28 -7 6 -31 11 -54 12 -27 1 -46 8 -54 20
-11 15 -29 19 -101 20 -78 1 -90 -1 -106 -19 l-17 -21 -18 21 c-13 15 -35 23
-77 27 -33 4 -82 10 -110 13 -27 3 -53 3 -57 -1z m-49 -34 c8 -5 9 -11 3 -15
-14 -8 -43 4 -36 15 7 11 15 11 33 0z m66 -661 c3 -5 1 -10 -4 -10 -6 0 -11 5
-11 10 0 6 2 10 4 10 3 0 8 -4 11 -10z m-1335 -367 c0 -14 -2 -15 -9 -5 -6 10
-13 7 -28 -14 -12 -16 -25 -24 -31 -20 -20 12 -13 26 21 41 42 19 47 18 47 -2z
m-90 -43 c0 -5 -4 -10 -10 -10 -5 0 -10 5 -10 10 0 6 5 10 10 10 6 0 10 -4 10
-10z m1577 -194 c18 -1 42 -11 55 -24 14 -12 28 -19 31 -15 12 12 7 -23 -11
-78 -10 -30 -18 -60 -18 -66 -2 -28 -5 -33 -19 -33 -8 0 -15 -7 -15 -15 0 -8
5 -15 11 -15 19 0 -9 -27 -35 -34 -13 -3 -31 -17 -40 -31 -9 -14 -23 -25 -30
-25 -8 0 -19 -13 -25 -30 -7 -22 -16 -30 -33 -30 -27 0 -108 -72 -108 -95 0
-11 -12 -15 -40 -15 -37 0 -120 -34 -120 -49 0 -4 -11 -14 -25 -21 -13 -7 -24
-20 -23 -29 4 -57 -3 -101 -17 -101 -11 0 -15 12 -15 44 0 25 -4 48 -10 51 -5
3 -10 22 -10 41 0 19 -4 34 -10 34 -15 0 -60 -42 -60 -57 0 -15 -26 -18 -35
-3 -9 15 -36 12 -57 -7 -15 -13 -22 -14 -41 -4 -12 6 -40 11 -62 10 -22 -1
-55 3 -73 9 -25 8 -32 8 -31 -1 3 -20 -12 -47 -27 -47 -10 0 -12 8 -7 31 6 29
5 30 -14 18 -18 -10 -26 -9 -59 10 -24 14 -57 23 -91 25 -51 1 -53 1 -51 -24
3 -23 0 -25 -39 -24 -23 0 -49 6 -57 14 -19 15 -22 72 -3 69 16 -3 63 17 72
31 3 5 11 8 16 5 5 -4 12 1 15 9 3 9 10 13 15 10 13 -8 11 10 -3 24 -9 9 -9
12 1 12 7 0 9 5 6 11 -4 6 3 13 15 16 14 4 18 8 10 13 -9 6 -5 18 14 46 14 21
26 44 26 51 0 7 9 13 19 13 12 0 23 11 29 28 5 16 32 52 60 80 40 41 57 52 82
52 26 0 33 -6 46 -35 7 -19 14 -45 14 -57 0 -13 9 -34 20 -48 11 -14 20 -29
20 -33 0 -16 53 -77 66 -77 8 0 14 -4 14 -8 0 -5 19 -15 42 -22 24 -6 48 -21
56 -31 31 -45 172 -47 216 -3 13 13 39 29 57 36 68 23 95 49 131 127 24 51 40
104 48 161 17 123 17 123 48 114 15 -4 41 -8 59 -8z m-429 -17 c4 -23 -26 -51
-52 -47 -22 3 -32 28 -22 54 8 21 70 15 74 -7z m252 -515 c0 -17 -22 -14 -28
4 -2 7 3 12 12 12 9 0 16 -7 16 -16z m-420 -88 c0 -7 -9 -25 -20 -39 -11 -14
-20 -33 -20 -44 0 -34 -12 -63 -26 -63 -7 0 -18 -8 -23 -17 -7 -13 -9 -7 -4
22 3 22 9 42 12 45 3 3 12 23 20 45 7 22 18 46 23 53 14 16 38 15 38 -2z m279
-22 c10 -23 10 -26 -4 -20 -9 3 -19 6 -21 6 -2 0 -4 9 -4 20 0 28 15 25 29 -6z
m-510 -13 c9 -6 10 -10 2 -16 -16 -9 -44 2 -36 15 8 12 16 12 34 1z m-209
-111 c0 -5 -4 -10 -10 -10 -5 0 -10 5 -10 10 0 6 5 10 10 10 6 0 10 -4 10 -10z"/>
<path d="M9607 12599 c7 -7 15 -10 18 -7 3 3 -2 9 -12 12 -14 6 -15 5 -6 -5z"/>
<path d="M4840 12494 c0 -8 5 -12 10 -9 6 3 10 10 10 16 0 5 -4 9 -10 9 -5 0
-10 -7 -10 -16z"/>
<path d="M10105 11740 c-3 -5 -1 -10 4 -10 6 0 11 5 11 10 0 6 -2 10 -4 10 -3
0 -8 -4 -11 -10z"/>
<path d="M6510 11196 c0 -2 7 -6 15 -10 8 -3 15 -1 15 4 0 6 -7 10 -15 10 -8
0 -15 -2 -15 -4z"/>
<path d="M7792 11068 c6 -18 25 -20 31 -3 5 10 0 15 -14 15 -12 0 -19 -5 -17
-12z"/>
<path d="M8920 10729 c0 -5 5 -7 10 -4 6 3 10 8 10 11 0 2 -4 4 -10 4 -5 0
-10 -5 -10 -11z"/>
<path d="M8918 10703 c7 -3 16 -2 19 1 4 3 -2 6 -13 5 -11 0 -14 -3 -6 -6z"/>
<path d="M11760 10492 c0 -4 5 -13 12 -20 16 -16 28 -15 28 2 0 8 -7 17 -16
20 -21 8 -24 8 -24 -2z"/>
<path d="M11745 10450 c-3 -5 -1 -10 4 -10 6 0 11 5 11 10 0 6 -2 10 -4 10 -3
0 -8 -4 -11 -10z"/>
<path d="M11880 10010 c0 -5 5 -10 11 -10 5 0 7 5 4 10 -3 6 -8 10 -11 10 -2
0 -4 -4 -4 -10z"/>
<path d="M12070 9133 c0 -5 5 -15 10 -23 8 -12 10 -11 10 8 0 12 -4 22 -10 22
-5 0 -10 -3 -10 -7z"/>
<path d="M8766 9058 c-9 -35 -8 -38 14 -38 11 0 20 -4 20 -10 0 -5 6 -10 14
-10 7 0 16 -10 20 -22 9 -37 7 -48 -9 -42 -8 4 -15 16 -15 28 0 15 -3 17 -9 8
-4 -8 -12 -13 -17 -13 -16 1 -23 -47 -8 -60 8 -6 14 -8 14 -3 0 5 8 -7 19 -26
20 -38 51 -53 51 -25 0 36 27 48 91 41 32 -4 59 -3 59 1 0 4 -10 31 -22 60
-20 45 -26 51 -45 46 -17 -4 -23 -1 -23 11 0 10 -9 16 -25 16 -14 0 -28 7 -31
15 -4 8 -14 15 -24 15 -10 0 -20 7 -24 15 -9 23 -43 18 -50 -7z m191 -144 c-3
-3 -12 -4 -19 -1 -8 3 -5 6 6 6 11 1 17 -2 13 -5z"/>
<path d="M8530 9011 c0 -5 7 -11 15 -15 8 -3 15 -15 15 -26 0 -11 6 -20 14
-20 8 0 24 -9 37 -19 23 -19 24 -20 5 -34 -19 -14 -19 -15 1 -25 15 -8 22 -24
25 -52 2 -22 0 -40 -4 -40 -17 0 -7 -20 10 -21 10 0 12 -3 5 -6 -16 -6 -17
-33 -2 -33 19 0 -2 -44 -37 -77 -38 -37 -46 -39 -68 -18 -9 9 -17 11 -21 5 -3
-5 -19 -7 -36 -3 -25 5 -31 2 -36 -16 -4 -18 -11 -21 -29 -17 -28 7 -67 -25
-58 -48 3 -9 -4 -15 -24 -18 -32 -5 -54 0 -48 10 9 15 -97 13 -119 -2 -23 -15
-65 -11 -65 6 0 7 -16 8 -40 5 -22 -3 -40 -1 -40 4 0 5 -7 9 -15 9 -16 0 -10
-29 9 -42 7 -5 7 -8 -2 -8 -7 0 -24 11 -37 24 -21 22 -26 22 -44 9 -12 -8 -21
-21 -21 -29 0 -9 -10 -14 -29 -14 -15 0 -43 -11 -62 -25 -19 -13 -45 -29 -59
-35 -14 -6 -37 -24 -52 -41 -15 -16 -34 -29 -43 -29 -8 0 -20 -12 -27 -27 -6
-16 -19 -47 -29 -70 -11 -24 -19 -56 -19 -73 0 -22 -5 -30 -18 -30 -19 0 -62
-39 -62 -57 0 -5 -12 -15 -26 -22 -26 -12 -27 -11 -21 19 8 36 8 36 -41 10
-38 -20 -72 -19 -72 2 0 6 -16 7 -40 3 -39 -7 -40 -6 -47 27 -4 18 -6 36 -5
41 4 14 -19 7 -24 -8 -7 -18 -24 -20 -24 -2 0 18 -93 59 -102 44 -5 -8 -13 -5
-28 11 -11 12 -28 22 -38 22 -14 0 -15 2 -2 10 8 5 12 11 10 13 -3 2 -26 19
-52 37 -27 18 -48 37 -48 41 0 3 -10 9 -22 12 -20 6 -20 7 -6 29 18 27 9 46
-30 67 -18 10 -25 9 -37 -3 -19 -18 -19 -83 -1 -117 7 -14 16 -43 20 -63 4
-20 13 -39 21 -42 20 -8 38 -61 31 -94 -5 -27 6 -42 17 -22 2 4 3 2 1 -4 -1
-7 6 -20 18 -30 11 -11 35 -35 54 -54 19 -18 49 -39 67 -45 17 -5 32 -14 32
-20 0 -5 15 -18 35 -29 19 -10 37 -22 38 -27 2 -5 10 -9 18 -9 8 0 14 -6 14
-13 0 -19 33 -47 53 -47 10 0 17 -8 17 -20 0 -11 6 -20 14 -20 8 0 17 -7 20
-16 3 -8 10 -13 15 -9 5 3 28 1 50 -4 29 -6 41 -6 41 3 0 7 4 6 9 -3 6 -9 18
-11 40 -6 18 4 37 2 44 -3 7 -5 26 -12 42 -15 17 -4 24 -4 18 -1 -20 9 -15 24
8 24 12 0 30 11 41 25 11 14 27 25 36 25 21 0 103 40 125 60 50 46 54 48 72
23 16 -21 35 -9 35 23 0 16 -6 24 -17 25 -14 0 -13 2 5 9 18 8 22 17 22 49 0
22 5 43 10 46 6 3 10 18 10 33 0 15 11 40 25 56 14 16 25 34 25 40 0 12 23 37
73 81 19 17 40 25 66 25 36 0 59 8 144 51 22 10 50 19 63 19 13 0 24 4 24 9 0
5 14 14 30 20 17 5 30 14 30 19 0 5 26 14 58 21 31 7 65 17 74 22 10 5 26 9
37 9 11 0 28 10 38 23 10 12 27 27 38 33 10 6 26 31 34 56 9 25 22 52 29 61 7
8 13 24 13 34 -2 64 -9 122 -19 144 -6 15 -14 43 -17 63 -4 20 -11 36 -16 36
-5 0 -9 7 -9 15 0 9 -10 19 -23 24 -13 5 -31 21 -40 35 -13 20 -26 26 -52 26
-19 0 -35 -4 -35 -9z m130 -101 c0 -5 -4 -10 -10 -10 -5 0 -10 5 -10 10 0 6 5
10 10 10 6 0 10 -4 10 -10z m-175 -326 c-9 -9 -18 -14 -21 -11 -9 9 6 27 22
27 13 0 13 -2 -1 -16z m-1215 -468 c0 -11 -19 -15 -25 -6 -3 5 1 10 9 10 9 0
16 -2 16 -4z"/>
<path d="M8765 8990 c3 -5 8 -10 11 -10 2 0 4 5 4 10 0 6 -5 10 -11 10 -5 0
-7 -4 -4 -10z"/>
<path d="M8295 8885 c-3 -8 -7 -22 -10 -30 -8 -25 15 -72 41 -84 35 -16 65
-14 58 3 -3 8 -1 17 5 20 11 7 3 75 -12 94 -14 17 -77 16 -82 -3z"/>
<path d="M5500 8746 c0 -9 5 -16 10 -16 6 0 10 4 10 9 0 6 -4 13 -10 16 -5 3
-10 -1 -10 -9z"/>
<path d="M9675 8719 c-4 -6 -13 -8 -21 -5 -7 3 -18 -4 -24 -14 -12 -23 -78
-28 -98 -8 -9 9 -15 8 -24 -4 -17 -21 -78 -13 -78 11 -1 14 -2 14 -13 1 -7 -8
-21 -20 -32 -26 -11 -6 -21 -23 -23 -38 -3 -20 -9 -26 -30 -27 -21 -1 -23 -2
-7 -6 11 -3 35 -18 53 -34 25 -23 43 -29 80 -30 26 -1 50 -1 55 0 4 0 7 -4 7
-10 0 -6 10 -9 23 -8 12 2 28 -1 36 -6 10 -5 16 -4 19 3 4 13 93 5 102 -9 3
-5 30 -5 60 0 41 7 59 6 70 -4 20 -16 100 -29 100 -15 0 14 27 13 32 -2 5 -15
227 -20 245 -6 7 5 18 8 25 5 23 -8 49 13 43 33 -4 13 1 25 14 37 12 10 21 23
21 30 0 8 13 13 35 13 28 0 35 4 35 20 0 11 -7 20 -15 20 -7 0 -18 7 -23 16
-8 14 -28 17 -113 18 -71 1 -108 -3 -117 -11 -22 -21 -37 -15 -17 7 10 11 16
22 14 24 -10 8 -99 15 -103 7 -3 -4 -27 -5 -53 -1 -54 9 -122 2 -141 -13 -9
-7 -16 -7 -24 1 -7 7 -27 12 -44 12 -18 0 -39 7 -48 15 -10 10 -17 12 -21 4z
m396 -48 c-8 -5 -20 -7 -28 -4 -21 8 -15 13 15 13 20 0 23 -3 13 -9z"/>
<path d="M8557 8644 c6 -15 23 -19 23 -5 0 5 -7 11 -14 14 -10 4 -13 1 -9 -9z"/>
<path d="M5577 8580 c-6 -24 18 -48 27 -25 6 17 -2 45 -14 45 -4 0 -10 -9 -13
-20z"/>
<path d="M5650 8381 c0 -12 5 -21 10 -21 6 0 10 6 10 14 0 8 -4 18 -10 21 -5
3 -10 -3 -10 -14z"/>
<path d="M7568 8243 c7 -3 16 -2 19 1 4 3 -2 6 -13 5 -11 0 -14 -3 -6 -6z"/>
<path d="M7380 8155 c-10 -12 -10 -15 4 -15 9 0 16 7 16 15 0 8 -2 15 -4 15
-2 0 -9 -7 -16 -15z"/>
<path d="M9824 8125 c-14 -14 -31 -25 -39 -25 -8 0 -15 -5 -15 -10 0 -6 -12
-16 -27 -22 -16 -7 -41 -25 -57 -40 -16 -15 -39 -31 -50 -34 -11 -4 -46 -33
-77 -65 -30 -33 -62 -59 -71 -59 -8 0 -23 -9 -33 -20 -10 -11 -26 -20 -35 -20
-9 0 -25 -7 -36 -15 -10 -8 -27 -15 -36 -15 -9 0 -29 -10 -45 -23 -34 -29 -52
-36 -109 -42 -23 -3 -56 -12 -71 -20 -15 -8 -35 -15 -44 -15 -8 0 -37 -11 -65
-24 -48 -23 -141 -44 -239 -53 -27 -3 -54 -9 -60 -13 -9 -6 -104 -23 -143 -25
-7 0 -17 -6 -21 -14 -6 -10 -20 -12 -46 -8 -25 4 -45 1 -61 -10 -13 -8 -30
-13 -38 -10 -15 6 -71 -17 -81 -33 -3 -5 -12 -7 -19 -4 -7 3 -19 -2 -26 -11
-7 -8 -19 -15 -26 -15 -8 0 -14 -4 -14 -10 0 -5 -12 -10 -27 -10 -15 0 -39
-11 -54 -26 -23 -22 -37 -26 -87 -27 -35 0 -67 5 -76 12 -11 10 -20 10 -37 0
-18 -9 -25 -9 -33 2 -7 8 -34 15 -68 17 -47 2 -62 -2 -78 -18 -11 -11 -27 -20
-35 -20 -28 0 -124 -52 -140 -76 -8 -13 -24 -24 -35 -24 -11 0 -24 -9 -30 -20
-12 -23 -70 -54 -120 -65 -19 -4 -38 -12 -41 -18 -21 -31 -139 -42 -139 -12 0
8 -9 10 -26 7 -19 -3 -25 -1 -20 7 12 19 -20 23 -53 6 -28 -14 -31 -20 -31
-60 0 -25 3 -44 8 -44 18 3 26 -2 16 -9 -20 -13 -25 -59 -9 -72 9 -7 19 -10
22 -6 4 4 1 11 -7 16 -12 8 -10 10 9 10 16 0 21 4 17 15 -3 8 -1 15 4 15 6 0
10 -5 10 -11 0 -6 7 -9 15 -6 8 4 17 2 20 -3 7 -11 53 -32 105 -48 76 -23 211
-31 273 -16 21 5 27 3 27 -10 0 -19 13 -20 41 -3 17 10 22 9 32 -4 16 -22 65
-31 168 -33 53 -1 92 -6 101 -14 12 -10 18 -9 28 3 7 8 30 20 51 27 22 6 39
16 39 21 0 6 5 6 13 0 31 -25 119 -32 144 -11 7 6 20 7 30 4 9 -4 20 -1 24 5
7 13 59 34 124 51 22 6 44 15 50 19 5 5 17 9 27 9 10 0 21 7 25 16 4 11 13 14
29 10 13 -4 40 0 60 9 20 8 47 15 60 15 16 0 28 8 33 23 5 12 23 32 40 45 17
13 29 27 26 31 -7 13 20 32 47 33 13 1 32 8 43 15 11 7 29 13 41 13 17 0 20 5
17 24 -6 28 9 39 48 38 16 0 31 4 34 9 4 5 17 9 30 9 13 0 27 5 30 11 4 6 13
8 21 5 8 -3 14 1 14 10 0 8 -4 12 -10 9 -5 -3 -10 -3 -10 2 1 12 90 75 101 71
6 -2 29 14 52 35 45 41 131 87 164 87 10 0 28 -7 39 -15 25 -19 68 -19 84 0 7
8 20 15 30 15 20 0 77 68 85 103 4 14 15 33 26 43 10 9 19 23 19 30 0 7 11 25
25 40 14 15 24 33 21 40 -3 7 4 20 15 30 10 9 19 23 19 30 0 8 11 21 24 30 26
16 51 75 48 109 -2 11 7 27 19 35 62 42 74 57 60 74 -19 23 -48 20 -77 -9z
m-1034 -875 c0 -5 -4 -10 -10 -10 -5 0 -10 5 -10 10 0 6 5 10 10 10 6 0 10 -4
10 -10z"/>
<path d="M9948 8123 c6 -2 18 -2 25 0 6 3 1 5 -13 5 -14 0 -19 -2 -12 -5z"/>
<path d="M6660 7710 c0 -5 6 -10 14 -10 8 0 18 5 21 10 3 6 -3 10 -14 10 -12
0 -21 -4 -21 -10z"/>
<path d="M8947 7088 c-8 -13 -27 -36 -43 -53 -16 -16 -29 -32 -29 -35 -1 -14
-51 -60 -61 -56 -11 4 -28 -13 -51 -50 -6 -10 -17 -18 -23 -16 -17 4 -80 -66
-80 -89 0 -11 -4 -19 -10 -19 -5 0 -10 -6 -10 -14 0 -22 -22 -31 -34 -14 -6 9
-26 19 -44 22 -25 6 -32 4 -32 -8 0 -10 -9 -16 -25 -16 -26 0 -34 -14 -12 -24
8 -4 7 -5 -3 -4 -8 1 -23 -3 -34 -7 -11 -5 -26 -3 -38 4 -21 13 -38 7 -38 -15
0 -17 -12 -18 -26 -4 -8 8 -15 6 -24 -5 -11 -13 -9 -15 14 -15 21 0 26 -5 26
-24 0 -31 -16 -42 -23 -16 -3 11 -11 20 -19 20 -10 0 -9 -3 2 -11 11 -8 12
-12 3 -16 -7 -2 -13 -16 -13 -29 0 -26 -27 -74 -41 -74 -5 0 -9 7 -9 15 0 8
-7 15 -15 15 -8 0 -15 -5 -15 -11 0 -15 -39 -49 -56 -49 -7 0 -16 5 -19 10 -3
6 -26 10 -51 10 -38 0 -46 4 -56 25 -6 14 -17 25 -24 25 -15 0 -26 28 -17 43
4 7 0 8 -11 4 -10 -4 -20 -7 -22 -7 -3 0 -2 -5 2 -11 8 -14 -14 -29 -33 -22
-7 3 -13 12 -13 20 0 8 -4 11 -10 8 -5 -3 -10 -1 -10 5 0 6 -4 8 -10 5 -5 -3
-10 -1 -10 4 0 6 12 11 27 11 27 0 26 1 -21 49 -43 44 -54 50 -88 48 -47 -2
-48 -16 -6 -51 26 -21 30 -29 19 -35 -20 -13 -55 3 -60 25 -5 28 -21 44 -37
37 -15 -6 -54 23 -54 40 0 5 8 15 17 22 15 11 13 13 -13 13 -16 0 -34 -5 -41
-10 -8 -6 -18 -3 -32 11 -12 12 -30 21 -40 21 -11 0 -22 4 -25 9 -3 5 -20 11
-36 13 -23 3 -34 0 -41 -13 -6 -11 -5 -20 1 -24 5 -3 10 -22 10 -41 0 -21 -4
-33 -10 -29 -5 3 -20 8 -32 10 -12 3 -25 10 -30 17 -11 18 -10 5 2 -27 6 -15
15 -23 21 -20 7 5 9 -6 4 -36 -6 -42 -5 -45 25 -62 22 -13 30 -25 28 -40 -3
-27 9 -47 27 -47 23 0 103 -53 108 -70 2 -9 20 -24 40 -33 19 -10 37 -22 39
-28 2 -5 15 -11 29 -13 13 -1 29 -5 34 -8 6 -3 26 -9 45 -13 40 -8 73 -33 64
-47 -4 -6 5 -2 20 7 25 17 26 17 26 -4 0 -21 14 -28 24 -12 9 13 55 19 59 7 2
-5 14 -11 28 -12 13 -1 31 -4 39 -7 35 -14 164 -19 335 -14 97 2 114 5 142 26
29 21 35 23 62 11 33 -13 115 -5 92 9 -16 10 9 21 49 21 16 0 32 5 35 10 3 6
17 10 30 10 13 0 27 5 31 12 5 8 11 6 20 -6 11 -16 14 -15 38 8 14 15 30 26
36 26 5 0 10 8 10 18 0 11 8 18 22 19 12 1 29 11 38 22 8 12 35 31 60 43 25
13 44 29 43 35 -2 7 3 10 10 7 16 -6 41 77 33 110 -4 15 -1 26 7 29 8 4 9 8 1
14 -14 11 -18 141 -5 157 6 7 12 31 13 54 2 25 8 42 16 42 6 0 12 6 12 14 0 7
8 24 19 37 25 32 38 119 18 119 -8 0 -17 -10 -21 -23 -4 -16 -12 -23 -28 -23
-15 1 -27 -8 -36 -26 -7 -16 -21 -28 -30 -28 -9 0 -28 -18 -42 -40 -13 -22
-30 -40 -37 -40 -7 0 -20 -12 -30 -26 -9 -15 -32 -33 -49 -40 -18 -8 -35 -22
-39 -31 -8 -25 -76 -56 -87 -40 -6 8 -8 6 -6 -7 2 -10 -3 -21 -9 -23 -8 -3
-13 4 -13 17 0 12 -4 19 -8 16 -5 -3 -14 10 -20 29 -6 23 -7 35 0 35 5 0 12
-9 15 -20 6 -22 23 -28 23 -7 0 6 25 28 54 47 54 34 76 63 76 100 0 10 7 23
14 27 8 5 17 25 19 46 2 20 7 40 10 44 13 12 7 23 -12 23 -10 0 -25 -10 -34
-22z m-127 -228 c0 -5 -4 -10 -10 -10 -5 0 -10 5 -10 10 0 6 5 10 10 10 6 0
10 -4 10 -10z m-1164 -254 c10 -8 16 -17 12 -21 -7 -7 -48 16 -48 27 0 12 14
9 36 -6z"/>
<path d="M7080 7066 c0 -24 17 -28 23 -6 3 13 0 20 -9 20 -8 0 -14 -6 -14 -14z"/>
<path d="M7941 6904 c0 -11 3 -14 6 -6 3 7 2 16 -1 19 -3 4 -6 -2 -5 -13z"/>
<path d="M7660 6810 c0 -5 5 -10 10 -10 6 0 10 5 10 10 0 6 -4 10 -10 10 -5 0
-10 -4 -10 -10z"/>
<path d="M10480 6269 c0 -17 31 -38 55 -39 12 0 25 10 32 25 6 14 7 25 3 25
-5 0 -10 -5 -12 -11 -3 -9 -9 -9 -25 0 -28 14 -53 14 -53 0z"/>
<path d="M8885 5390 c-3 -5 1 -10 10 -10 9 0 13 5 10 10 -3 6 -8 10 -10 10 -2
0 -7 -4 -10 -10z"/>
<path d="M9170 5310 c0 -5 4 -10 9 -10 6 0 13 5 16 10 3 6 -1 10 -9 10 -9 0
-16 -4 -16 -10z"/>
<path d="M9152 14373 c2 -14 8 -28 15 -30 19 -7 133 -121 133 -132 0 -10 24
-21 45 -21 10 0 11 8 6 28 -6 21 -14 28 -37 30 -21 2 -34 11 -42 30 -33 72
-52 96 -86 107 -35 12 -36 12 -34 -12z"/>
<path d="M9516 14045 c-3 -9 0 -15 9 -15 16 0 20 16 6 24 -5 3 -11 -1 -15 -9z"/>
<path d="M12490 12193 c0 -31 3 -54 6 -51 10 11 14 108 4 108 -6 0 -10 -25
-10 -57z"/>
<path d="M12832 11498 c-13 -42 -9 -59 9 -41 12 12 21 71 11 77 -4 2 -13 -14
-20 -36z"/>
<path d="M12791 11320 c-7 -23 -19 -44 -26 -47 -8 -3 -25 -21 -37 -41 -12 -21
-42 -57 -66 -82 -48 -50 -62 -77 -62 -121 0 -43 13 -36 43 25 14 30 40 65 57
77 16 13 30 27 30 33 0 5 13 24 28 41 19 20 33 50 41 88 15 68 10 85 -8 27z"/>
<path d="M12398 11259 c-25 -14 -22 -29 5 -29 12 0 29 -4 36 -9 9 -6 22 -6 34
1 16 8 17 12 6 23 -20 18 -61 25 -81 14z"/>
<path d="M12567 10903 c-5 -13 -25 -36 -45 -53 -26 -22 -33 -33 -25 -41 30
-30 88 33 81 88 -3 27 -4 27 -11 6z"/>
<path d="M12480 10707 c0 -9 -6 -14 -12 -12 -16 6 -68 -39 -68 -58 0 -18 19
-34 45 -39 12 -2 19 2 17 10 -3 17 20 40 36 34 18 -6 15 53 -3 68 -12 10 -15
10 -15 -3z"/>
<path d="M12310 10545 c0 -2 16 -20 35 -39 32 -30 40 -33 78 -29 44 6 77 27
77 50 0 7 -7 13 -15 13 -8 0 -15 -4 -15 -9 0 -18 -42 -18 -92 0 -54 19 -68 22
-68 14z"/>
<path d="M5140 10945 c0 -8 5 -15 10 -15 6 0 10 7 10 15 0 8 -4 15 -10 15 -5
0 -10 -7 -10 -15z"/>
<path d="M5121 10864 c0 -11 3 -14 6 -6 3 7 2 16 -1 19 -3 4 -6 -2 -5 -13z"/>
<path d="M5812 10459 c2 -6 8 -10 13 -10 5 0 11 4 13 10 2 6 -4 11 -13 11 -9
0 -15 -5 -13 -11z"/>
<path d="M6070 10170 c0 -5 5 -10 10 -10 6 0 10 5 10 10 0 6 -4 10 -10 10 -5
0 -10 -4 -10 -10z"/>
<path d="M2925 10444 c-32 -29 -21 -46 23 -35 18 5 27 15 29 34 5 35 -15 35
-52 1z"/>
<path d="M3015 10450 c-3 -5 1 -10 9 -10 9 0 16 5 16 10 0 6 -4 10 -9 10 -6 0
-13 -4 -16 -10z"/>
<path d="M3235 10190 c3 -5 8 -10 11 -10 2 0 4 5 4 10 0 6 -5 10 -11 10 -5 0
-7 -4 -4 -10z"/>
<path d="M2817 9563 c-6 -34 -3 -53 7 -42 9 10 16 79 8 79 -5 0 -12 -17 -15
-37z"/>
</g>
</svg>
