<?xml version="1.0" encoding="UTF-8"?>
<svg version="1.1" xmlns="http://www.w3.org/2000/svg" width="1000" height="1000">
<path d="M0 0 C330 0 660 0 1000 0 C1000 330 1000 660 1000 1000 C670 1000 340 1000 0 1000 C0 670 0 340 0 0 Z " fill="#FEFEFE" transform="translate(0,0)"/>
<path d="M0 0 C2.79132146 0.00916863 5.58180413 0.00227751 8.37304688 -0.02050781 C53.19221275 -0.38369391 98.0086371 6.99536008 140.44726562 21.44604492 C141.44806152 21.78651855 142.44885742 22.12699219 143.47998047 22.4777832 C163.72975893 29.43157688 183.45274785 37.5242927 202.453125 47.41430664 C204.56265635 48.50574634 206.68392594 49.57190058 208.80664062 50.63745117 C227.01456988 59.87906092 244.45321049 70.68157874 260.66992188 83.09692383 C262.55926955 84.53106328 264.46918345 85.93388458 266.38476562 87.33276367 C275.82484036 94.25442348 284.73477313 101.63197466 293.44726562 109.44604492 C293.96788574 109.90881836 294.48850586 110.3715918 295.02490234 110.84838867 C302.71406307 117.70085351 310.02741233 124.92767251 317.32226562 132.19604492 C318.6605542 133.52732422 318.6605542 133.52732422 320.02587891 134.88549805 C325.04011026 139.91196612 329.84745364 145.0388348 334.44726562 150.44604492 C335.33607564 151.46732485 336.22536482 152.48818807 337.11523438 153.50854492 C344.29034278 161.87394263 350.96356996 170.53617934 357.44726562 179.44604492 C357.98722168 180.18145508 358.52717773 180.91686523 359.08349609 181.67456055 C397.87421046 234.72440175 423.52731381 296.85095039 435.07226562 361.44604492 C435.26643066 362.50460693 435.4605957 363.56316895 435.66064453 364.65380859 C439.57379262 387.45727248 440.95574465 410.33254375 440.83837891 433.43945312 C440.82127069 436.83268443 440.83149793 440.22521019 440.84869385 443.61841774 C440.95116282 467.48282794 439.00043392 490.96507018 434.69726562 514.44604492 C434.57065552 515.14596558 434.44404541 515.84588623 434.31359863 516.5670166 C427.0491901 556.54697629 414.65831698 596.35812521 395.54150391 632.35913086 C394.2708266 634.78254665 393.0448896 637.22655822 391.81835938 639.67260742 C381.16250643 660.75443506 368.71888568 680.62438935 354.44726562 699.44604492 C353.97337402 700.0715625 353.49948242 700.69708008 353.01123047 701.34155273 C346.15952712 710.32857181 338.90747778 718.96002154 331.44726562 727.44604492 C330.65707031 728.34967773 329.866875 729.25331055 329.05273438 730.18432617 C323.07268656 736.85995305 316.78450449 743.23620793 310.4725647 749.59597778 C309.47295591 750.60362648 308.47483208 751.61275093 307.47836304 752.62350464 C301.56417848 758.61341115 295.48479339 764.22112236 288.89892578 769.48242188 C286.33769083 771.53380733 283.87441801 773.66872362 281.41821289 775.84301758 C260.1428411 794.6152052 235.42448412 809.71934746 210.59179688 823.26733398 C208.69982609 824.30722867 206.82173915 825.36726002 204.94726562 826.43823242 C187.86985215 835.9652154 168.29322424 845.12514145 149.44726562 850.44604492 C148.45726562 850.11604492 147.46726562 849.78604492 146.44726562 849.44604492 C146.96675781 849.03354492 147.48625 848.62104492 148.02148438 848.19604492 C152.97150874 844.09694896 156.57637201 840.20826556 159.44726562 834.44604492 C160.03701172 833.26268555 160.03701172 833.26268555 160.63867188 832.05541992 C164.97945249 821.95213961 165.03733292 810.89096718 161.44726562 800.57104492 C158.71540492 794.34548067 155.03066931 789.42575795 150.44726562 784.44604492 C149.86460937 783.7834668 149.28195312 783.12088867 148.68164062 782.43823242 C139.63926501 772.72750731 127.81964673 765.64737455 116.82226562 758.38354492 C96.02560038 744.63262237 77.81960874 730.19337882 70.80273438 705.14526367 C66.18088581 670.04968832 84.53873135 641.51129021 103.14208984 613.44360352 C104.64194615 611.14808831 106.06773641 608.81575887 107.44726562 606.44604492 C106.57328125 606.09993164 106.57328125 606.09993164 105.68164062 605.74682617 C103.93238085 605.05097283 102.1851626 604.34997642 100.43945312 603.64526367 C98.43024338 602.84000598 96.41439881 602.05112526 94.39257812 601.27807617 C82.9320293 596.77259324 74.07406825 590.64616151 68.82836914 579.22363281 C65.76184595 571.63598761 65.59016812 564.18405779 65.53710938 556.12963867 C65.51589727 554.58129853 65.49428801 553.03296379 65.4723053 551.4846344 C65.43362342 548.25979592 65.41612384 545.03560274 65.41088867 541.81054688 C65.40019248 537.70443133 65.3109572 533.60403636 65.20262814 529.49949551 C65.13159431 526.30856853 65.1155184 523.119002 65.1140461 519.92735481 C65.10454416 518.41504715 65.07560068 516.90271625 65.02567863 515.39120293 C64.65116149 503.05293484 64.65116149 503.05293484 69.04714966 498.18630981 C71.06491805 496.23820806 73.18483762 494.50218834 75.41798401 492.8082428 C80.25421651 489.03700605 83.72951277 484.28172347 87.44726562 479.44604492 C88.33716516 478.31005957 89.22782053 477.17466601 90.11914062 476.03979492 C91.0210656 474.88423381 91.92212342 473.7279953 92.82226562 472.57104492 C93.23943848 472.03560059 93.65661133 471.50015625 94.08642578 470.94848633 C98.56535775 465.78182625 98.56535775 465.78182625 100.42382812 459.54370117 C99.26998973 457.06525631 97.76609957 454.93297008 96.15869141 452.72851562 C85.54835234 438.08066537 81.0758559 421.15081219 78.44726562 403.44604492 C78.34269043 402.74213623 78.23811523 402.03822754 78.13037109 401.31298828 C77.0221969 392.30785139 77.29655407 383.18981641 77.32226562 374.13354492 C77.32315186 373.23466553 77.32403809 372.33578613 77.32495117 371.40966797 C77.33615089 361.74431186 77.37007719 352.0972431 77.94726562 342.44604492 C79.12753728 321.98729271 78.81005455 301.66717647 77.07226562 281.25854492 C77.00914185 280.49757507 76.94601807 279.73660522 76.88098145 278.95257568 C76.69753563 276.78912549 76.5012239 274.62732821 76.29882812 272.46557617 C76.18361816 271.22912354 76.0684082 269.9926709 75.94970703 268.71875 C74.66579519 260.35585482 69.81386804 256.56140587 63.30566406 251.74682617 C40.88879486 236.05619571 14.70617296 233.07714714 -11.92749023 233.13037109 C-15.21632349 233.13352201 -18.50424659 233.11003167 -21.79296875 233.0847168 C-46.0237144 232.71327985 -46.0237144 232.71327985 -68.55273438 240.44604492 C-69.46410156 240.96295898 -70.37546875 241.47987305 -71.31445312 242.01245117 C-76.4098989 245.05339144 -80.62685924 248.02929984 -84.23632812 252.77026367 C-85.55273437 254.44604492 -85.55273437 254.44604492 -87.52539062 256.25268555 C-89.70486875 258.61063731 -90.40821037 260.16518168 -91.30664062 263.21557617 C-91.59837158 264.17197998 -91.89010254 265.12838379 -92.19067383 266.11376953 C-92.49577881 267.15154541 -92.80088379 268.18932129 -93.11523438 269.25854492 C-96.67858889 280.9046093 -100.64736576 292.3582911 -104.78344727 303.81054688 C-112.26562684 324.61060056 -111.70469107 335.09880917 -104.1963501 355.92419434 C-103.47081102 357.93744142 -102.75117155 359.95272128 -102.03271484 361.96850586 C-99.64300945 368.66492335 -97.22574024 375.35075636 -94.78320312 382.02807617 C-88.69406264 398.73244956 -82.98074659 415.12798027 -80.91210938 432.85620117 C-80.69639636 435.42541558 -80.69639636 435.42541558 -79.55273438 437.44604492 C-78.54625141 443.19357236 -78.52843355 448.92969857 -78.65820312 454.74682617 C-79.61347504 470.8297852 -79.61347504 470.8297852 -73.4855957 484.96044922 C-70.0667001 488.22686733 -66.33152969 490.92437396 -62.40185547 493.55664062 C-57.35277267 498.73945062 -58.71976053 507.27040897 -58.79101562 514.01635742 C-58.78951129 515.66055581 -58.78607659 517.30475346 -58.7808075 518.94894409 C-58.77647998 522.39397895 -58.79327135 525.83807662 -58.82543945 529.28295898 C-58.86503325 533.66754125 -58.85598971 538.05034792 -58.83120441 542.43498421 C-58.81691154 545.8326329 -58.82719721 549.22987816 -58.84471703 552.62749863 C-58.85051185 554.24198311 -58.84934698 555.85650991 -58.84069252 557.4709816 C-58.79191669 571.12257042 -61.16376071 582.1869371 -71.00585938 592.27026367 C-79.13542086 599.21530316 -96.54804732 607.44604492 -107.55273438 607.44604492 C-101.32631089 629.68754804 -90.81368142 647.39954039 -76.8984375 665.67602539 C-51.23531572 699.43103862 -31.0212394 737.61011387 -35.77978516 781.54223633 C-37.2973062 792.08459149 -41.02918615 802.94566391 -47.55273438 811.44604492 C-47.9471875 811.99518555 -48.34164063 812.54432617 -48.74804688 813.11010742 C-56.23888618 822.82679613 -68.58364143 828.59515426 -80.55273438 830.44604492 C-93.55064077 831.05821357 -105.8025141 830.55853325 -117.55273438 824.44604492 C-117.55273438 823.78604492 -117.55273438 823.12604492 -117.55273438 822.44604492 C-116.46734375 821.97295898 -115.38195312 821.49987305 -114.26367188 821.01245117 C-102.63793591 815.74255862 -102.63793591 815.74255862 -95.55273438 805.44604492 C-95.22144531 804.77186523 -94.89015625 804.09768555 -94.54882812 803.40307617 C-90.79115365 794.42172867 -91.28396395 782.97223594 -94.51757812 773.90307617 C-98.41417491 764.65417287 -102.94832146 757.01309367 -109.55273438 749.44604492 C-110.56980469 748.22981445 -110.56980469 748.22981445 -111.60742188 746.98901367 C-122.74481208 734.03618807 -136.82335104 724.42514369 -150.55273438 714.44604492 C-172.94724976 698.11356605 -191.78808401 681.4905777 -203.08007812 655.68823242 C-204.3977856 652.78717883 -205.85243547 650.13607006 -207.55273438 647.44604492 C-210.58487942 649.73986623 -213.57765709 652.07868159 -216.55273438 654.44604492 C-217.29523438 655.03643555 -218.03773438 655.62682617 -218.80273438 656.23510742 C-238.72576021 672.95621839 -250.43935356 698.98341911 -253.55273438 724.44604492 C-253.85803836 729.64906279 -253.92397317 734.84545558 -253.96679688 740.05541992 C-253.98555679 741.51801588 -254.00513358 742.98060156 -254.02548218 744.44317627 C-254.07630097 748.25042599 -254.11619176 752.05771061 -254.15362549 755.8651123 C-254.1939846 759.76717399 -254.24492948 763.66909687 -254.29492188 767.57104492 C-254.39108412 775.19594889 -254.47567512 782.82092138 -254.55273438 790.44604492 C-259.20947811 787.83699355 -263.2275488 785.25397344 -267.30273438 781.75854492 C-268.35425748 780.86205407 -269.4063523 779.9662334 -270.45898438 779.07104492 C-271.24015625 778.40395508 -271.24015625 778.40395508 -272.03710938 777.72338867 C-274.25463214 775.85449707 -276.53297645 774.06341267 -278.80273438 772.25854492 C-290.2228303 762.907425 -300.66784269 752.41551372 -311.11523438 742.00854492 C-311.94788818 741.18056396 -312.78054199 740.35258301 -313.63842773 739.49951172 C-318.48192683 734.64329874 -323.11182256 729.67237538 -327.55273438 724.44604492 C-328.349375 723.51920898 -329.14601563 722.59237305 -329.96679688 721.63745117 C-347.9083641 700.30410357 -363.80481019 677.69500592 -377.55273438 653.44604492 C-378.29765137 652.13772705 -378.29765137 652.13772705 -379.05761719 650.80297852 C-385.41790952 639.58700183 -391.38802654 628.26347761 -396.55273438 616.44604492 C-396.95427734 615.53161621 -397.35582031 614.6171875 -397.76953125 613.67504883 C-412.45940859 579.84967337 -422.39790714 544.97173742 -428.80273438 508.69604492 C-428.990867 507.64534821 -428.990867 507.64534821 -429.18280029 506.57342529 C-433.20233391 483.89754118 -433.96025325 461.31172226 -433.92773438 438.32104492 C-433.92764248 437.61831577 -433.92755058 436.91558662 -433.9274559 436.19156265 C-433.92366383 413.72331375 -433.18347691 391.65694952 -429.55273438 369.44604492 C-429.36549805 368.2452832 -429.17826172 367.04452148 -428.98535156 365.80737305 C-423.06327044 328.47473731 -411.92435554 291.3378433 -395.80810547 257.1184082 C-394.62088414 254.59111831 -393.46699707 252.05139651 -392.32226562 249.50463867 C-380.35899764 223.17838312 -364.81966709 198.58451987 -347.55273438 175.44604492 C-347.10687988 174.84566406 -346.66102539 174.2452832 -346.20166016 173.62670898 C-332.64853015 155.44123274 -317.16424466 138.99431325 -301.17773438 122.94604492 C-300.34564453 122.10928223 -299.51355469 121.27251953 -298.65625 120.41040039 C-293.78263819 115.54947012 -288.79027879 110.91099867 -283.55273438 106.44604492 C-282.53155558 105.5571187 -281.51069793 104.66782337 -280.49023438 103.77807617 C-256.98283616 83.61548063 -230.94331487 66.28197566 -203.6953125 51.60766602 C-201.66292543 50.50578615 -199.64595572 49.37993661 -197.63085938 48.24682617 C-169.5175029 32.64114475 -138.52942166 21.7731114 -107.55273438 13.44604492 C-106.69325195 13.21433594 -105.83376953 12.98262695 -104.94824219 12.74389648 C-94.06734668 9.86403257 -83.08146253 7.7214558 -71.99023438 5.82104492 C-70.87567871 5.62687988 -69.76112305 5.43271484 -68.61279297 5.23266602 C-64.60058544 4.57301008 -60.58224542 3.9875707 -56.55273438 3.44604492 C-55.59985535 3.31789398 -54.64697632 3.18974304 -53.66522217 3.05770874 C-35.76411821 0.72816506 -18.02453112 -0.06186973 0 0 Z " fill="#4BCDAC" transform="translate(496.552734375,62.553955078125)"/>
<path d="M0 0 C1.05214691 0.00223572 1.05214691 0.00223572 2.12554932 0.0045166 C13.01808296 0.04598367 23.60206649 0.69461251 34.296875 2.86816406 C36.50494165 3.31349665 38.71802253 3.7020226 40.9375 4.0859375 C62.56991527 8.0822491 83.9127369 17.82938724 100.5 32.3125 C101.35464844 33.05757812 102.20929688 33.80265625 103.08984375 34.5703125 C105.58926314 36.78784248 108.05169338 39.03877551 110.5 41.3125 C111.10457031 41.86292969 111.70914062 42.41335937 112.33203125 42.98046875 C118.12344629 48.47349706 122.80443185 54.89054159 127.5 61.3125 C127.90621582 61.85841797 128.31243164 62.40433594 128.73095703 62.96679688 C145.42856356 85.62542872 155.31274575 112.83647648 160.5 140.3125 C160.82097656 141.96572266 160.82097656 141.96572266 161.1484375 143.65234375 C162.20021177 149.69623503 162.7104342 155.71427975 163.0234375 161.83203125 C163.06602188 162.65326477 163.10860626 163.47449829 163.15248108 164.32061768 C163.45989343 170.63430042 163.63219716 176.94573613 163.74609375 183.265625 C163.77116249 184.65334862 163.77116249 184.65334862 163.79673767 186.06910706 C163.86243219 189.85459747 163.92483711 193.6400755 163.97680664 197.42578125 C164.1403675 208.88091763 164.59397246 219.99237644 166.5 231.3125 C166.65090088 232.22128906 166.80180176 233.13007813 166.95727539 234.06640625 C173.05850543 268.78652717 187.54649462 301.14094671 201.76904297 333.17041016 C233.19965654 404.16274363 238.94178412 468.27271812 211.5 541.3125 C210.838694 542.98130094 210.1738664 544.6487313 209.5 546.3125 C210.06332031 546.54453125 210.62664062 546.7765625 211.20703125 547.015625 C228.01850882 556.52399051 238.59981755 582.46621415 243.45703125 599.9140625 C246.91753543 613.88449196 247.39323823 628.0712974 247.70050621 642.38870049 C247.78256242 646.17001508 247.9036274 649.9409988 248.11865234 653.71728516 C249.47140754 678.08061897 249.47140754 678.08061897 244.58880615 685.03442383 C239.98166797 689.50360528 234.76710053 692.47839249 228.96798706 695.15000916 C225.99615029 696.54982729 223.28551499 698.22274866 220.52938843 700.00157166 C217.58779632 701.88795964 214.54031152 703.59149663 211.5 705.3125 C210.43700684 705.91505615 210.43700684 705.91505615 209.35253906 706.52978516 C204.79149539 709.10514235 200.20888739 711.63860348 195.61230469 714.14990234 C193.73405988 715.18367509 191.86932173 716.23729293 190.0078125 717.30078125 C172.92614903 726.82785222 153.34970853 735.99053779 134.5 741.3125 C133.51 740.9825 132.52 740.6525 131.5 740.3125 C132.27923828 739.69375 132.27923828 739.69375 133.07421875 739.0625 C138.02424312 734.96340404 141.62910639 731.07472063 144.5 725.3125 C144.89316406 724.52359375 145.28632812 723.7346875 145.69140625 722.921875 C150.03218686 712.81859469 150.0900673 701.75742226 146.5 691.4375 C143.76813929 685.21193574 140.08340369 680.29221303 135.5 675.3125 C134.91734375 674.64992188 134.3346875 673.98734375 133.734375 673.3046875 C124.69199939 663.59396239 112.8723811 656.51382963 101.875 649.25 C81.07833476 635.49907745 62.87234311 621.05983389 55.85546875 596.01171875 C51.23362019 560.9161434 69.59146573 532.37774529 88.19482422 504.31005859 C89.69468052 502.01454339 91.12047078 499.68221395 92.5 497.3125 C91.91734375 497.08175781 91.3346875 496.85101562 90.734375 496.61328125 C88.98511522 495.91742791 87.23789698 495.2164315 85.4921875 494.51171875 C83.48297775 493.70646106 81.46713318 492.91758034 79.4453125 492.14453125 C67.98476367 487.63904831 59.12680263 481.51261659 53.88110352 470.09008789 C50.81458033 462.50244269 50.64290249 455.05051287 50.58984375 446.99609375 C50.56863164 445.44775361 50.54702239 443.89941887 50.52503967 442.35108948 C50.4863578 439.126251 50.46885822 435.90205782 50.46362305 432.67700195 C50.45292685 428.57088641 50.36369157 424.47049144 50.25536251 420.36595058 C50.18432868 417.17502361 50.16825278 413.98545708 50.16678047 410.79380989 C50.15727853 409.28150223 50.12833506 407.76917133 50.07841301 406.257658 C49.70389587 393.91938991 49.70389587 393.91938991 54.09988403 389.05276489 C56.11765243 387.10466314 58.23757199 385.36864342 60.47071838 383.67469788 C65.30695089 379.90346113 68.78224714 375.14817855 72.5 370.3125 C73.38989953 369.17651465 74.2805549 368.04112108 75.171875 366.90625 C76.07379997 365.75068888 76.9748578 364.59445037 77.875 363.4375 C78.29217285 362.90205566 78.7093457 362.36661133 79.13916016 361.81494141 C83.61809212 356.64828132 83.61809212 356.64828132 85.4765625 350.41015625 C84.32272411 347.93171139 82.81883394 345.79942515 81.21142578 343.5949707 C70.60108672 328.94712044 66.12859028 312.01726727 63.5 294.3125 C63.3954248 293.60859131 63.29084961 292.90468262 63.18310547 292.17944336 C62.07493127 283.17430647 62.34928845 274.05627149 62.375 265 C62.37588623 264.10112061 62.37677246 263.20224121 62.37768555 262.27612305 C62.38888526 252.61076694 62.42281157 242.96369818 63 233.3125 C64.18027166 212.85374779 63.86278893 192.53363155 62.125 172.125 C62.06187622 171.36403015 61.99875244 170.6030603 61.93371582 169.81903076 C61.75027 167.65558057 61.55395828 165.49378329 61.3515625 163.33203125 C61.23635254 162.09557861 61.12114258 160.85912598 61.00244141 159.58520508 C59.71852956 151.2223099 54.86660241 147.42786095 48.35839844 142.61328125 C25.94152924 126.92265078 -0.24109266 123.94360221 -26.87475586 123.99682617 C-30.16358912 123.99997709 -33.45151222 123.97648675 -36.74023438 123.95117188 C-60.97098003 123.57973493 -60.97098003 123.57973493 -83.5 131.3125 C-84.41136719 131.82941406 -85.32273437 132.34632813 -86.26171875 132.87890625 C-91.35716452 135.91984652 -95.57412487 138.89575492 -99.18359375 143.63671875 C-100.5 145.3125 -100.5 145.3125 -102.47265625 147.11914062 C-104.65213437 149.47709239 -105.355476 151.03163675 -106.25390625 154.08203125 C-106.54563721 155.03843506 -106.83736816 155.99483887 -107.13793945 156.98022461 C-107.44304443 158.01800049 -107.74814941 159.05577637 -108.0625 160.125 C-111.62585452 171.77106438 -115.59463138 183.22474617 -119.73071289 194.67700195 C-127.21289247 215.47705564 -126.65195669 225.96526424 -119.14361572 246.79064941 C-118.41807664 248.8038965 -117.69843717 250.81917636 -116.97998047 252.83496094 C-114.59027508 259.53137843 -112.17300587 266.21721144 -109.73046875 272.89453125 C-103.64132827 289.59890464 -97.92801221 305.99443535 -95.859375 323.72265625 C-95.64366198 326.29187066 -95.64366198 326.29187066 -94.5 328.3125 C-93.49351704 334.06002743 -93.47569917 339.79615364 -93.60546875 345.61328125 C-94.56074067 361.69624028 -94.56074067 361.69624028 -88.43286133 375.8269043 C-85.01396572 379.09332241 -81.27879531 381.79082903 -77.34912109 384.4230957 C-72.30003829 389.6059057 -73.66702615 398.13686405 -73.73828125 404.8828125 C-73.73677692 406.52701089 -73.73334221 408.17120854 -73.72807312 409.81539917 C-73.72374561 413.26043403 -73.74053697 416.7045317 -73.77270508 420.14941406 C-73.81229887 424.53399633 -73.80325534 428.916803 -73.77847004 433.30143929 C-73.76417717 436.69908798 -73.77446283 440.09633324 -73.79198265 443.4939537 C-73.79777748 445.10843819 -73.7966126 446.72296499 -73.78795815 448.33743668 C-73.73918231 461.9890255 -76.11102633 473.05339217 -85.953125 483.13671875 C-94.08268648 490.08175824 -111.49531295 498.3125 -122.5 498.3125 C-116.27357652 520.55400312 -105.76094705 538.26599547 -91.84570312 556.54248047 C-66.18258135 590.29749369 -45.96850502 628.47656895 -50.72705078 672.40869141 C-52.24457182 682.95104657 -55.97645178 693.81211899 -62.5 702.3125 C-62.89445313 702.86164062 -63.28890625 703.41078125 -63.6953125 703.9765625 C-71.18615181 713.6932512 -83.53090705 719.46160934 -95.5 721.3125 C-108.49790639 721.92466865 -120.74977972 721.42498833 -132.5 715.3125 C-132.5 714.6525 -132.5 713.9925 -132.5 713.3125 C-131.41460937 712.83941406 -130.32921875 712.36632812 -129.2109375 711.87890625 C-117.58520154 706.6090137 -117.58520154 706.6090137 -110.5 696.3125 C-110.16871094 695.63832031 -109.83742188 694.96414063 -109.49609375 694.26953125 C-105.73841928 685.28818375 -106.23122957 673.83869102 -109.46484375 664.76953125 C-113.36144053 655.52062795 -117.89558708 647.87954875 -124.5 640.3125 C-125.51707031 639.09626953 -125.51707031 639.09626953 -126.5546875 637.85546875 C-137.6920777 624.90264315 -151.77061667 615.29159877 -165.5 605.3125 C-191.10912667 586.63558233 -213.89073353 566.01025381 -222.5 534.3125 C-222.850625 533.2296875 -223.20125 532.146875 -223.5625 531.03125 C-232.19414644 501.6031497 -226.64444154 466.83547866 -217.5 438.3125 C-217.19787598 437.36141357 -216.89575195 436.41032715 -216.58447266 435.43041992 C-214.29777952 428.38501002 -211.66072082 421.5593591 -208.75 414.75 C-208.28754883 413.66082275 -207.82509766 412.57164551 -207.34863281 411.44946289 C-202.52143549 400.18417518 -197.40800831 389.04905727 -192.24707031 377.93334961 C-183.27431093 358.59827434 -183.27431093 358.59827434 -176.25 338.5 C-176.00677002 337.68305664 -175.76354004 336.86611328 -175.51293945 336.02441406 C-173.12737629 327.63453006 -171.81096254 319.12068905 -170.76586914 310.47265625 C-170.52353548 308.50372305 -170.23677816 306.54038678 -169.9453125 304.578125 C-169.22480806 298.67767977 -169.22052562 292.74960632 -169.1875 286.8125 C-169.18355225 286.13755493 -169.17960449 285.46260986 -169.17553711 284.76721191 C-169.1403004 271.45309812 -170.26513411 258.30990593 -171.5 245.0625 C-173.0094744 228.76885034 -173.90031463 212.6166146 -173.875 196.25 C-173.8764502 195.34382935 -173.87790039 194.43765869 -173.87939453 193.50402832 C-173.87685168 179.6143181 -173.58623698 165.60429332 -168.875 152.375 C-168.48586426 151.25605347 -168.48586426 151.25605347 -168.08886719 150.11450195 C-161.61957438 132.13389699 -151.73614769 113.36748875 -134 104.3125 C-128.83699464 102.83735561 -123.22847575 102.10344708 -118.19921875 104.33203125 C-117.63847656 104.65558594 -117.07773437 104.97914063 -116.5 105.3125 C-116.54640625 104.343125 -116.5928125 103.37375 -116.640625 102.375 C-117.43938045 78.27263017 -107.81058014 56.96646706 -92 39.0625 C-90.50727215 37.47230882 -89.00746556 35.88872715 -87.5 34.3125 C-86.82710937 33.56484375 -86.15421875 32.8171875 -85.4609375 32.046875 C-70.26238529 15.76677788 -48.95426851 6.74649679 -27.5 2.3125 C-26.60941895 2.12631104 -25.71883789 1.94012207 -24.80126953 1.74829102 C-16.53495822 0.18681494 -8.39397872 -0.04423508 0 0 Z " fill="#624428" transform="translate(511.5,171.6875)"/>
<path d="M0 0 C3.29094672 0.00315807 6.58098995 -0.02037227 9.87182617 -0.0456543 C37.95348435 -0.13014019 65.7672122 4.6155894 87.93237305 23.06567383 C88.47023438 23.51313965 89.0080957 23.96060547 89.56225586 24.42163086 C94.83562212 29.07510894 95.71016791 33.50667398 96.34643555 40.33520508 C96.44234482 41.35959435 96.44234482 41.35959435 96.54019165 42.40467834 C96.74442559 44.64502986 96.93390039 46.88623608 97.11987305 49.12817383 C97.2184259 50.28558075 97.2184259 50.28558075 97.31896973 51.46636963 C98.95966593 71.07950442 99.12318199 90.66224907 97.99487305 110.31567383 C96.26285484 140.5601004 95.4668831 171.37603918 105.49487305 200.31567383 C105.85194336 201.37915039 106.20901367 202.44262695 106.5769043 203.53833008 C109.12159902 210.36314737 112.74700166 215.8651206 117.28076172 221.50976562 C119.16032353 223.93431212 120.46290021 225.64744155 120.61206055 228.76489258 C118.98581983 232.47795268 116.72005679 235.49647484 114.24487305 238.69067383 C113.71345703 239.38604248 113.18204102 240.08141113 112.63452148 240.79785156 C108.79701806 245.76406544 104.82792504 250.61219573 100.74487305 255.37817383 C100.23923828 255.97227051 99.73360352 256.56636719 99.21264648 257.1784668 C95.02715298 261.9724895 95.02715298 261.9724895 92.4657135 263.6239624 C88.68790718 266.16006552 86.77182381 268.08065831 85.75796509 272.60179138 C85.48415462 276.79207841 85.46091622 280.91325091 85.5378418 285.10864258 C85.54007553 286.66172639 85.53948214 288.21481659 85.53620911 289.76789856 C85.53794847 293.01900005 85.56693979 296.26832938 85.61669922 299.51904297 C85.67880867 303.65372906 85.68400972 307.78598058 85.66971874 311.921031 C85.66325404 315.12917007 85.68220776 318.33677502 85.70897865 321.54479408 C85.7197445 323.06715038 85.7241607 324.58956708 85.72170067 326.11195946 C85.73025974 338.74472384 87.92082294 349.85352615 97.0144043 359.28833008 C105.65311319 366.34894412 117.02055906 369.86137879 127.49487305 373.31567383 C124.27578211 379.60991262 120.7333943 385.55207004 116.74487305 391.37817383 C100.07649372 415.93045959 85.81341986 443.58429913 91.1550293 474.08520508 C98.43965293 500.1647884 118.60550103 513.93884394 139.96972656 528.10400391 C177.5146029 553.04197729 177.5146029 553.04197729 183.04956055 572.69458008 C185.13162318 584.94952771 183.57522704 595.47463699 177.49487305 606.31567383 C174.74912065 609.95368077 171.79621023 613.17940351 168.49487305 616.31567383 C167.83487305 616.97567383 167.17487305 617.63567383 166.49487305 618.31567383 C157.97602103 623.0351293 148.17448291 625.36810932 138.80737305 627.75317383 C137.63182861 628.05392822 136.45628418 628.35468262 135.24511719 628.66455078 C119.45247461 632.64959029 103.57883451 635.93366144 87.49487305 638.50317383 C86.54862061 638.65810303 85.60236816 638.81303223 84.62744141 638.97265625 C63.60573246 642.17392288 42.47170728 642.72246035 21.24487305 642.69067383 C19.9339267 642.69046234 18.62298035 642.69025085 17.27230835 642.69003296 C-11.59500445 642.66011546 -39.34443353 640.36957435 -67.54516602 633.9777832 C-70.57485311 633.30007688 -73.61204874 632.67232935 -76.65356445 632.05004883 C-122.17154266 622.47362149 -165.96632012 603.53206125 -205.50512695 579.31567383 C-206.39796387 578.76959473 -207.29080078 578.22351563 -208.21069336 577.66088867 C-210.75299673 576.09788491 -213.28771713 574.52364981 -215.81762695 572.94067383 C-216.90043945 572.26379517 -216.90043945 572.26379517 -218.00512695 571.57324219 C-219.37904727 570.6997806 -220.74086536 569.80687873 -222.08757019 568.89201355 C-224.52549053 567.25550219 -224.52549053 567.25550219 -227.29829407 565.80404663 C-231.70692296 563.16425134 -234.93130691 561.17353212 -236.49183655 556.1210022 C-236.82810103 552.20104805 -236.82436378 548.36476889 -236.68481445 544.44067383 C-236.67187282 542.98831383 -236.66342355 541.53590764 -236.65921021 540.08349609 C-236.63938457 537.04262136 -236.58412823 534.005336 -236.49975586 530.96557617 C-236.39309146 527.1174762 -236.3454278 523.27184312 -236.321455 519.42242432 C-236.29600707 515.69902714 -236.24201758 511.97619817 -236.18481445 508.25317383 C-236.17614223 507.56604309 -236.16747002 506.87891235 -236.158535 506.17095947 C-235.95005255 492.66216878 -234.2247744 479.35763054 -229.31762695 466.69067383 C-229.01719482 465.89927002 -228.7167627 465.10786621 -228.40722656 464.29248047 C-223.87260413 452.73718456 -217.62889471 442.72129843 -209.50512695 433.31567383 C-208.90313477 432.56930664 -208.30114258 431.82293945 -207.6809082 431.05395508 C-202.11987593 424.37372134 -195.48293541 419.41075043 -188.50512695 414.31567383 C-185.605834 416.78884591 -184.54382696 419.28676659 -183.19262695 422.81567383 C-171.79833108 450.94639837 -150.24084561 467.73057995 -126.54711914 485.11962891 C-77.77995919 520.95848316 -77.77995919 520.95848316 -72.71606445 547.06567383 C-71.53886225 559.62249729 -72.29929874 569.79550285 -79.63793945 580.23754883 C-84.59735771 585.7572361 -91.36057275 588.76250987 -98.50512695 590.31567383 C-98.50512695 590.97567383 -98.50512695 591.63567383 -98.50512695 592.31567383 C-81.8671889 598.41625111 -64.19264636 599.94580073 -47.50512695 593.31567383 C-33.23964096 586.26025054 -25.62030264 576.18958894 -20.50512695 561.31567383 C-11.17406543 531.30697998 -20.67480713 496.50637766 -34.3527832 469.29614258 C-40.16641733 458.26122708 -47.85277271 448.39991718 -55.35668945 438.48364258 C-88.50512695 394.64988012 -88.50512695 394.64988012 -88.50512695 375.31567383 C-87.73434814 375.04416504 -86.96356934 374.77265625 -86.16943359 374.49291992 C-83.2639466 373.46273525 -80.36275219 372.42140758 -77.46386719 371.37280273 C-75.61019568 370.70598695 -73.7520347 370.05169346 -71.89379883 369.39770508 C-60.76314542 365.35567918 -51.0712925 360.57822913 -45.17729187 349.91293335 C-41.07962893 341.05938438 -40.62163764 332.78534903 -40.5246582 323.22973633 C-40.49834993 321.59890611 -40.4719556 319.96807727 -40.44548035 318.33724976 C-40.39780082 314.9367306 -40.37233252 311.53680156 -40.35888672 308.13598633 C-40.34138092 304.67366436 -40.27868409 301.21688366 -40.17431641 297.75610352 C-38.51459648 276.55684862 -38.51459648 276.55684862 -46.40324402 257.98910522 C-48.76776953 255.88680941 -51.21499085 254.10144482 -53.88392639 252.40748596 C-56.41462881 250.7031616 -57.9305643 248.91677771 -59.50512695 246.31567383 C-60.03515625 243.06103516 -60.03515625 243.06103516 -60.0793457 239.39770508 C-60.09351028 238.74041916 -60.10767487 238.08313324 -60.12226868 237.40592957 C-60.1639635 235.31317809 -60.17933815 233.22128038 -60.19262695 231.12817383 C-60.23144111 228.38455846 -60.28011837 225.64115096 -60.3293457 222.89770508 C-60.36257935 220.9430835 -60.36257935 220.9430835 -60.39648438 218.94897461 C-60.60635807 211.93023245 -61.38515396 205.11686969 -62.87231445 198.25708008 C-63.33066867 196.12658178 -63.74725528 193.98695729 -64.13793945 191.84301758 C-68.48162419 169.12177173 -77.33958532 147.02168152 -85.55981445 125.47583008 C-95.89701146 98.28930274 -95.89701146 98.28930274 -91.30981445 84.91333008 C-91.0818367 84.23798218 -90.85385895 83.56263428 -90.61897278 82.86682129 C-89.8842312 80.69979963 -89.13254599 78.53911362 -88.38012695 76.37817383 C-87.86846978 74.88038557 -87.3578127 73.38225531 -86.84814453 71.88378906 C-85.41703127 67.68860142 -83.9654735 63.500764 -82.50512695 59.31567383 C-82.17077637 58.35661133 -81.83642578 57.39754883 -81.49194336 56.40942383 C-80.50661521 53.59452693 -79.52010322 50.78052971 -78.50268555 47.97705078 C-77.24583088 44.50406696 -76.09481789 41.01912795 -75.0246582 37.48364258 C-74.64337769 36.2537561 -74.64337769 36.2537561 -74.25439453 34.99902344 C-73.77230776 33.43338028 -73.30596114 31.86275782 -72.859375 30.28662109 C-71.17654856 24.87828434 -69.06016402 22.6580454 -64.50512695 19.31567383 C-63.78325195 18.36692383 -63.06137695 17.41817383 -62.31762695 16.44067383 C-53.68464404 5.77316628 -39.1446506 2.26803782 -26.17456055 0.72363281 C-17.48422926 -0.14283547 -8.72395862 -0.01746733 0 0 Z " fill="#FECFAC" transform="translate(477.505126953125,294.684326171875)"/>
<path d="M0 0 C3.80602943 1.57914607 6.23794728 3.97367393 9.14616776 6.85817242 C9.65391849 7.35912152 10.16166923 7.86007062 10.68480635 8.37619999 C12.39269532 10.0636839 14.09341918 11.75820951 15.79425049 13.45280457 C17.0264915 14.67343647 18.25914584 15.89365122 19.49217868 17.11348325 C22.88541239 20.47305726 26.27228798 23.83897837 29.65807343 27.20605648 C32.56140169 30.09174622 35.46839113 32.97373361 38.37540773 35.85570701 C48.78720541 46.17801126 59.18420927 56.51516289 69.578125 66.85546875 C70.39833063 67.6713919 71.21853626 68.48731505 72.06359661 69.32796314 C88.34759532 85.5273652 104.62541926 101.7329629 120.89165115 117.9502058 C124.46804339 121.51563953 128.04452121 125.08098738 131.62109375 128.64624023 C132.51003495 129.53237778 133.39897614 130.41851532 134.31485495 131.33150551 C148.71805632 145.68762662 163.15040006 160.01408613 177.59455362 174.32899066 C192.42125979 189.02411391 207.21950028 203.74743457 221.9908607 218.49819261 C230.28619763 226.78045603 238.59381978 235.04954238 246.93387604 243.28679466 C254.03625722 250.30169827 261.11274831 257.34146065 268.15665057 264.41510352 C271.75114645 268.0231792 275.35668322 271.61801101 278.99596024 275.18096161 C282.3299048 278.44553596 285.62712801 281.74308286 288.89894471 285.06988672 C290.08627313 286.26492374 291.28633434 287.44747631 292.50017729 288.615572 C302.48426559 298.24570036 302.48426559 298.24570036 302.78186075 305.97154139 C302.71088711 309.01194542 302.39562959 311.98605296 302 315 C301.83832296 316.91002813 301.67784802 318.82015916 301.51953125 320.73046875 C301.29600205 322.55101188 301.06001101 324.370062 300.8125 326.1875 C300.6794043 327.19522461 300.54630859 328.20294922 300.40917969 329.24121094 C293.85101174 377.20239888 280.89648891 424.97162125 258.09423828 467.91308594 C256.82356098 470.33650173 255.59762397 472.7805133 254.37109375 475.2265625 C243.7152408 496.30839014 231.27162006 516.17834443 217 535 C216.2891626 535.93827637 216.2891626 535.93827637 215.56396484 536.89550781 C208.7122615 545.88252689 201.46021215 554.51397662 194 563 C193.20980469 563.90363281 192.41960937 564.80726563 191.60546875 565.73828125 C185.62542094 572.41390813 179.33723887 578.79016301 173.02529907 585.14993286 C172.02569029 586.15758155 171.02756645 587.16670601 170.03109741 588.17745972 C164.12749842 594.15664513 158.06063065 599.75788065 151.48681641 605.01000977 C148.22095334 607.62340559 145.08452601 610.3711748 141.9375 613.125 C127.07620054 626 127.07620054 626 124 626 C123.99453156 624.84513092 123.99453156 624.84513092 123.98895264 623.66693115 C123.95065969 616.31482148 123.89335524 608.96319575 123.81609726 601.6114006 C123.77703639 597.83418099 123.74465023 594.05718008 123.72900391 590.27978516 C123.58075952 556.93866815 119.60433131 527.00807232 97 501 C96.27039063 500.14921875 95.54078125 499.2984375 94.7890625 498.421875 C91.34744773 494.15488796 91.34744773 494.15488796 87 491 C87.6630135 487.16700817 88.75329847 483.69778425 90.109375 480.0546875 C90.74335205 478.33040527 90.74335205 478.33040527 91.39013672 476.57128906 C91.8388916 475.35151367 92.28764648 474.13173828 92.75 472.875 C118.91601768 400.67930458 104.72512542 337.93896575 74.59124756 269.52763367 C73.20291658 266.37422772 71.81871806 263.21902761 70.4375 260.0625 C70.02763855 259.12623276 70.02763855 259.12623276 69.60949707 258.17105103 C64.26653337 245.92837648 59.53655868 233.50073992 55.0480957 220.91772461 C54.35356144 218.98425641 53.64648983 217.05524266 52.92651367 215.13110352 C50.73261488 209.2555603 48.910062 203.40802168 47.4375 197.3125 C47.22770508 196.45672363 47.01791016 195.60094727 46.80175781 194.71923828 C43.31486814 180.25321293 40.95640734 165.96838566 40.71875 151.06640625 C40.69113586 149.69028419 40.69113586 149.69028419 40.66296387 148.28636169 C40.6048747 145.37846571 40.55188983 142.47051272 40.5 139.5625 C40.37309736 113.07264223 40.37309736 113.07264223 37.375 86.8125 C37.20315186 85.86528076 37.03130371 84.91806152 36.85424805 83.94213867 C33.29216158 65.33096274 27.4074585 47.95659479 19 31 C18.66887207 30.31615234 18.33774414 29.63230469 17.99658203 28.92773438 C13.58258795 19.86212134 8.24333488 11.85954239 2.125 3.8515625 C0 1 0 1 0 0 Z " fill="#3AA489" transform="translate(634,227)"/>
<path d="M0 0 C2.35417608 2.17010295 3.88358664 4.30168571 5.41796875 7.10546875 C5.86325928 7.9152417 6.3085498 8.72501465 6.76733398 9.55932617 C7.47031616 10.86027222 7.47031616 10.86027222 8.1875 12.1875 C8.67871338 13.09024658 9.16992676 13.99299316 9.67602539 14.9230957 C13.97151931 22.86138159 18.05775972 30.88159941 22 39 C22.64291992 40.31484375 22.64291992 40.31484375 23.29882812 41.65625 C34.04979622 63.6665769 44.85640564 85.87108404 53 109 C54.44581809 112.91811735 55.93101473 116.8205629 57.4296875 120.71875 C64.25919511 138.50821401 68.88961609 156.40429113 73 175 C73.11480713 174.42894531 73.22961426 173.85789062 73.34790039 173.26953125 C85.74143288 112.3371859 112.83772005 55.54981219 142 1 C145.50710505 1 145.64245304 1.34763464 148 3.6875 C155.94302704 10.75165348 167.10232558 13.60444746 177 17 C173.78090906 23.29423879 170.23852125 29.23639621 166.25 35.0625 C149.58162067 59.61478576 135.31854681 87.2686253 140.66015625 117.76953125 C147.94477989 143.84911457 168.11062798 157.62317011 189.47485352 171.78833008 C227.01972985 196.72630346 227.01972985 196.72630346 232.5546875 216.37890625 C234.63675014 228.63385388 233.080354 239.15896316 227 250 C224.2542476 253.63800695 221.30133718 256.86372968 218 260 C217.34 260.66 216.68 261.32 216 262 C207.48114798 266.71945548 197.67960986 269.0524355 188.3125 271.4375 C187.13695557 271.73825439 185.96141113 272.03900879 184.75024414 272.34887695 C168.95760157 276.33391646 153.08396146 279.61798761 137 282.1875 C136.05374756 282.3424292 135.10749512 282.4973584 134.13256836 282.65698242 C113.11085942 285.85824905 91.97683423 286.40678652 70.75 286.375 C69.43905365 286.37478851 68.1281073 286.37457703 66.7774353 286.37435913 C37.9101225 286.34444163 10.16069342 284.05390052 -18.04003906 277.66210938 C-21.06972616 276.98440306 -24.10692179 276.35665552 -27.1484375 275.734375 C-72.66641571 266.15794766 -116.46119316 247.21638742 -156 223 C-156.89283691 222.4539209 -157.78567383 221.9078418 -158.70556641 221.34521484 C-161.24786978 219.78221108 -163.78259018 218.20797598 -166.3125 216.625 C-167.034375 216.17374756 -167.75625 215.72249512 -168.5 215.25756836 C-169.87392032 214.38410677 -171.2357384 213.4912049 -172.58244324 212.57633972 C-175.02036358 210.93982836 -175.02036358 210.93982836 -177.79316711 209.4883728 C-182.20179601 206.84857751 -185.42617996 204.85785829 -186.98670959 199.80532837 C-187.32297408 195.88537422 -187.31923683 192.04909507 -187.1796875 188.125 C-187.16674587 186.67264 -187.15829659 185.22023381 -187.15408325 183.76782227 C-187.13425761 180.72694753 -187.07900128 177.68966217 -186.99462891 174.64990234 C-186.88796451 170.80180237 -186.84030085 166.95616929 -186.81632805 163.10675049 C-186.79088011 159.38335332 -186.73689063 155.66052434 -186.6796875 151.9375 C-186.67101528 151.25036926 -186.66234306 150.56323853 -186.65340805 149.85528564 C-186.4449256 136.34649495 -184.71964745 123.04195672 -179.8125 110.375 C-179.51206787 109.58359619 -179.21163574 108.79219238 -178.90209961 107.97680664 C-174.36747718 96.42151073 -168.12376776 86.4056246 -160 77 C-159.39800781 76.25363281 -158.79601562 75.50726562 -158.17578125 74.73828125 C-152.61474897 68.05804751 -145.97780846 63.0950766 -139 58 C-136.10070705 60.47317208 -135.03870001 62.97109276 -133.6875 66.5 C-122.29320412 94.63072454 -100.73571865 111.41490613 -77.04199219 128.80395508 C-28.27483224 164.64280933 -28.27483224 164.64280933 -23.2109375 190.75 C-22.0337353 203.30682346 -22.79417179 213.47982902 -30.1328125 223.921875 C-35.09223076 229.44156227 -41.8554458 232.44683604 -49 234 C-49 234.66 -49 235.32 -49 236 C-32.36206195 242.10057728 -14.68751941 243.63012691 2 237 C16.265486 229.94457671 23.88482431 219.87391511 29 205 C38.33106152 174.99130615 28.83031983 140.19070383 15.15234375 112.98046875 C9.33870962 101.94555325 1.65235424 92.08424335 -5.8515625 82.16796875 C-39 38.33420629 -39 38.33420629 -39 19 C-38.22922119 18.72849121 -37.45844238 18.45698242 -36.66430664 18.17724609 C-33.75881965 17.14706142 -30.85762523 16.10573375 -27.95874023 15.05712891 C-26.10506872 14.39031312 -24.24690775 13.73601963 -22.38867188 13.08203125 C-13.90137364 9.99992295 -6.30932026 6.6083691 0 0 Z " fill="#FC6D6A" transform="translate(428,651)"/>
<path d="M0 0 C1.52173828 0.69996094 1.52173828 0.69996094 3.07421875 1.4140625 C25.80204708 12.29781128 41.39940501 30.03992172 53 52 C53.3307251 52.61399658 53.6614502 53.22799316 54.00219727 53.8605957 C56.65782727 58.93721919 58.50700136 64.09324078 60.1875 69.5625 C60.44724609 70.37396484 60.70699219 71.18542969 60.97460938 72.02148438 C62.43108245 76.68445631 63.45899583 81.14399867 64 86 C62.83333333 85.125 61.66666667 84.25 60.5 83.375 C59.75878906 82.82328125 59.01757812 82.2715625 58.25390625 81.703125 C56.8906658 80.6730161 55.53998929 79.62554927 54.21484375 78.546875 C44.66851079 70.90980863 34.12057044 65.99111133 22.4375 62.625 C21.6122583 62.38652344 20.7870166 62.14804687 19.93676758 61.90234375 C5.54804369 58.01782334 -8.5659558 57.65473268 -23.37475586 57.68432617 C-26.66358912 57.68747709 -29.95151222 57.66398675 -33.24023438 57.63867188 C-57.47761776 57.24910646 -57.47761776 57.24910646 -80 65 C-81.40185547 65.84498047 -81.40185547 65.84498047 -82.83203125 66.70703125 C-87.0178127 69.31285849 -91.08647901 71.99872166 -95 75 C-101.00302025 62.99395949 -96.92961459 44.23461653 -93 32 C-87.41612756 17.96445107 -77.27767209 7.07612465 -64 0 C-63.26265625 -0.39703125 -62.5253125 -0.7940625 -61.765625 -1.203125 C-42.30164002 -10.72200817 -19.1668933 -8.90682333 0 0 Z " fill="#46311C" transform="translate(508,238)"/>
<path d="M0 0 C3.17255475 0.26861447 4.05862239 1.06348228 6.26171875 3.44921875 C7.08270565 4.51925015 7.89056318 5.59943824 8.6875 6.6875 C9.11957764 7.2654834 9.55165527 7.8434668 9.99682617 8.43896484 C24.49008947 28.0821589 32.17119915 45.96451207 32.1875 70.5625 C32.19974609 71.53896484 32.21199219 72.51542969 32.22460938 73.52148438 C32.23693082 79.66166869 31.55186129 85.05630993 30 91 C29.34 91 28.68 91 28 91 C28.10441406 92.03833984 28.10441406 92.03833984 28.2109375 93.09765625 C28.66554782 101.31311411 26.77108175 107.19892507 23.5078125 114.5546875 C22.14519006 117.66824447 21.02027664 120.76086931 20 124 C19.34 124 18.68 124 18 124 C17.89558594 124.71027344 17.79117188 125.42054688 17.68359375 126.15234375 C16.91778419 129.34248757 15.68238678 131.71482617 14.0625 134.5625 C12.3029489 137.67954261 10.56761279 140.78147133 9 144 C-5.83290304 141.2345435 -20.102404 135.72550814 -29 123 C-34.10031784 113.83355797 -34.84259046 104.94021094 -34.91015625 94.68359375 C-34.93136836 93.13525361 -34.95297761 91.58691887 -34.97496033 90.03858948 C-35.0136422 86.813751 -35.03114178 83.58955782 -35.03637695 80.36450195 C-35.04707315 76.25838641 -35.13630843 72.15799144 -35.24463749 68.05345058 C-35.31567132 64.86252361 -35.33174722 61.67295708 -35.33321953 58.48130989 C-35.34272147 56.96900223 -35.37166494 55.45667133 -35.42158699 53.945158 C-35.79610413 41.60688991 -35.79610413 41.60688991 -31.40011597 36.74026489 C-29.38234757 34.79216314 -27.26242801 33.05614342 -25.02928162 31.36219788 C-20.19304911 27.59096113 -16.71775286 22.83567855 -13 18 C-12.11010047 16.86401465 -11.2194451 15.72862108 -10.328125 14.59375 C-9.42620003 13.43818888 -8.5251422 12.28195037 -7.625 11.125 C-7.20782715 10.58955566 -6.7906543 10.05411133 -6.36083984 9.50244141 C-4.01235988 6.44683039 -1.91328791 3.34516789 0 0 Z " fill="#46311C" transform="translate(597,524)"/>
<path d="M0 0 C17.73601266 9.65417711 28.92821392 34.19401944 34.40332031 52.61254883 C38.44941653 67.14674015 38.87889976 82.0906847 39.20050621 97.07620049 C39.28256242 100.85751508 39.4036274 104.6284988 39.61865234 108.40478516 C40.97140754 132.76811897 40.97140754 132.76811897 36.08880615 139.72192383 C31.48166797 144.19110528 26.26710053 147.16589249 20.46798706 149.83750916 C17.49615029 151.23732729 14.78551499 152.91024866 12.02938843 154.68907166 C9.08779632 156.57545964 6.04031152 158.27899663 3 160 C2.29133789 160.4017041 1.58267578 160.8034082 0.85253906 161.21728516 C-3.67137106 163.77167519 -8.21477061 166.28849341 -12.7734375 168.78027344 C-14.98890515 169.99392216 -17.19761571 171.21928298 -19.40625 172.4453125 C-20.77044177 173.1934228 -22.13500691 173.94085278 -23.5 174.6875 C-24.1290625 175.0388501 -24.758125 175.3902002 -25.40625 175.75219727 C-26.90553268 176.56354178 -28.44974623 177.29088667 -30 178 C-30.66 177.67 -31.32 177.34 -32 177 C-31.40832031 176.16597656 -30.81664062 175.33195313 -30.20703125 174.47265625 C-13.41571725 150.65415601 -8.81188522 125.7463969 -8.81469727 96.88916016 C-8.81252289 94.40118982 -8.79434646 91.91367286 -8.77539062 89.42578125 C-8.74437284 80.37740939 -9.28163993 71.68767352 -10.53491211 62.72949219 C-13.41691844 39.61897842 -9.14906682 20.99659437 0 0 Z " fill="#FB6D6A" transform="translate(720,717)"/>
<path d="M0 0 C3.92749665 2.8563612 6.93250248 6.07727724 10.00202942 9.7979126 C11.89713688 12.02217951 11.89713688 12.02217951 14.07646179 13.57562256 C17.8364632 16.5240094 19.74548763 18.77855196 20.73501587 23.52746582 C21.11187175 27.93822012 21.0338419 32.34378885 20.95703125 36.765625 C20.95479729 38.40696065 20.95539123 40.04830233 20.95866394 41.68963623 C20.95692563 45.12303772 20.92795836 48.55475919 20.87817383 51.98779297 C20.8160028 56.35670236 20.81087374 60.72330859 20.8251543 65.09256363 C20.83161426 68.48169271 20.81267856 71.87031538 20.78589439 75.25933075 C20.77512165 76.86821242 20.77071396 78.47715134 20.77317238 80.0860672 C20.76445029 93.69721985 18.35611923 104.77455187 8.546875 114.82421875 C0.41731352 121.76925824 -16.99531295 130 -28 130 C-34.85302008 109.44093977 -26.3027965 84.73835997 -19.22509766 65.36816406 C-16.82545727 58.77082673 -14.47317444 52.1567348 -12.12985229 45.53921509 C-11.26990523 43.11853166 -10.40098099 40.70120559 -9.53149414 38.28393555 C-5.65440465 27.41325738 -2.60317775 16.62028871 -0.8125 5.1875 C-0.57466797 3.69283203 -0.57466797 3.69283203 -0.33203125 2.16796875 C-0.16767578 1.09482422 -0.16767578 1.09482422 0 0 Z " fill="#46311C" transform="translate(417,540)"/>
<path d="M0 0 C-0.63714784 5.82872286 -2.12759975 11.11990694 -3.9375 16.6875 C-4.38959839 18.09491455 -4.38959839 18.09491455 -4.85083008 19.53076172 C-8.23197754 29.92506616 -11.94734841 40.20003205 -15.66796875 50.4765625 C-17.88361463 56.61714558 -19.9680027 62.79646897 -22 69 C-24.75781551 66.24218449 -24.70681168 63.40300861 -25.125 59.6875 C-25.2084668 58.96981445 -25.29193359 58.25212891 -25.37792969 57.51269531 C-27.16583381 41.04208469 -26.65542418 21.63640594 -16 8 C-11.50772541 3.74416091 -6.27984748 0 0 0 Z " fill="#513C28" transform="translate(406,320)"/>
<path d="M0 0 C-0.89456869 6.64536741 -0.89456869 6.64536741 -1.6875 9.3125 C-1.790625 9.869375 -1.89375 10.42625 -2 11 C-1.34 11.66 -0.68 12.32 0 13 C0.2117572 15.47388875 0.30399471 17.83311124 0.30078125 20.30859375 C0.30506638 21.03111832 0.3093515 21.75364288 0.31376648 22.49806213 C0.31951237 24.02709912 0.32000812 25.55616344 0.31567383 27.08520508 C0.31251671 29.42511674 0.33595758 31.76376067 0.36132812 34.10351562 C0.36360139 35.58854007 0.36430449 37.07356792 0.36328125 38.55859375 C0.372491 39.2586705 0.38170074 39.95874725 0.39118958 40.68003845 C0.34475918 45.55507991 0.34475918 45.55507991 -1.52270508 47.96508789 C-2.25396606 48.47736938 -2.25396606 48.47736938 -3 49 C-2.34 49.33 -1.68 49.66 -1 50 C-1 51.65 -1 53.3 -1 55 C-6.65020618 54.39891424 -11.66164461 52.92471317 -17 51 C-17.25 48.6875 -17.25 48.6875 -17 46 C-16.34 45.54625 -15.68 45.0925 -15 44.625 C-14.34 44.08875 -13.68 43.5525 -13 43 C-12.66619186 39.37436186 -12.66619186 39.37436186 -13 36 C-14.65 36 -16.3 36 -18 36 C-17.67 34.68 -17.34 33.36 -17 32 C-14.525 31.505 -14.525 31.505 -12 31 C-12 30.34 -12 29.68 -12 29 C-12.66 29 -13.32 29 -14 29 C-13.8453125 27.3603125 -13.8453125 27.3603125 -13.6875 25.6875 C-13.790625 24.470625 -13.89375 23.25375 -14 22 C-16.3726974 19.99135641 -16.3726974 19.99135641 -19 19 C-18.67 17.68 -18.34 16.36 -18 15 C-16.68 14.67 -15.36 14.34 -14 14 C-13.23681405 9.17867673 -13.23681405 9.17867673 -13.0625 4.3125 C-12.98971276 1.61937205 -12.56571188 0.19199663 -11 -2 C-7.07040122 -4.18311043 -3.6835409 -1.77093312 0 0 Z " fill="#EAEAEA" transform="translate(32,930)"/>
<path d="M0 0 C7.22330097 -0.60194175 7.22330097 -0.60194175 10.5 1.9375 C12.2864003 5.58473394 12.28750337 8.11751253 12.04296875 12.109375 C12.02169922 13.04523437 12.02169922 13.04523437 12 14 C12.33 14.33 12.66 14.66 13 15 C13.07258946 17.18639453 13.08373783 19.37500389 13.0625 21.5625 C13.05347656 22.76003906 13.04445313 23.95757813 13.03515625 25.19140625 C13.02355469 26.11824219 13.01195313 27.04507813 13 28 C12.01 28 11.02 28 10 28 C10.020625 28.78375 10.04125 29.5675 10.0625 30.375 C10 33 10 33 9 35 C9.28112064 37.00800456 9.61067967 39.01014051 10 41 C5.87248551 40.39301257 2.6678852 38.96189209 -1 37 C-1 38.98 -1 40.96 -1 43 C-1.66 43 -2.32 43 -3 43 C-3.08090971 41.37581255 -3.13914995 39.75048255 -3.1875 38.125 C-3.22230469 37.22007812 -3.25710938 36.31515625 -3.29296875 35.3828125 C-3.19628906 34.59648438 -3.09960938 33.81015625 -3 33 C-2.01 32.34 -1.02 31.68 0 31 C-0.66 30.608125 -1.32 30.21625 -2 29.8125 C-4 28 -4 28 -4.25 25.3125 C-4.12625 24.1678125 -4.12625 24.1678125 -4 23 C-3.01 22.67 -2.02 22.34 -1 22 C-1.99 21.34 -2.98 20.68 -4 20 C-4.24905022 17.24858808 -4.32673572 14.74330188 -4.25 12 C-4.24484375 11.26265625 -4.2396875 10.5253125 -4.234375 9.765625 C-4.15472274 4.30944549 -4.15472274 4.30944549 -3 2 C-2.01 2 -1.02 2 0 2 C0 1.34 0 0.68 0 0 Z " fill="#D9D9D9" transform="translate(19,766)"/>
<path d="M0 0 C3 0.25 3 0.25 5 2.25 C5.7166207 4.56847874 6.38242027 6.90319703 7 9.25 C7.33 10.24 7.66 11.23 8 12.25 C7.0625 14.4375 7.0625 14.4375 6 16.25 C6.66 16.91 7.32 17.57 8 18.25 C8.33333333 23.58333333 8.33333333 23.58333333 7 26.25 C5.35 26.25 3.7 26.25 2 26.25 C2 24.27 2 22.29 2 20.25 C1.34 19.92 0.68 19.59 0 19.25 C-0.226875 20.054375 -0.45375 20.85875 -0.6875 21.6875 C-2 24.25 -2 24.25 -4.5 25.1875 C-5.325 25.208125 -6.15 25.22875 -7 25.25 C-9 23.25 -9 23.25 -9.1875 19.875 C-9.04410663 17.10272822 -8.83710258 14.86594556 -8 12.25 C-7.34 12.25 -6.68 12.25 -6 12.25 C-5.95101563 11.55132813 -5.90203125 10.85265625 -5.8515625 10.1328125 C-5.77679687 9.22273437 -5.70203125 8.31265625 -5.625 7.375 C-5.55539063 6.47007812 -5.48578125 5.56515625 -5.4140625 4.6328125 C-4.76815823 0.91581624 -3.7061928 0.3088494 0 0 Z " fill="#E2E2E2" transform="translate(24,898.75)"/>
<path d="M0 0 C-1.28708387 5.54436129 -2.91864693 10.70201036 -5 16 C-5.66 16 -6.32 16 -7 16 C-7.103125 16.70125 -7.20625 17.4025 -7.3125 18.125 C-8.09359003 21.39137647 -9.42058743 24.0471852 -11 27 C-15.23912402 26.51282794 -16.91307946 25.50081246 -19.5625 22.1875 C-20.15289063 21.46949219 -20.74328125 20.75148438 -21.3515625 20.01171875 C-21.89554688 19.34785156 -22.43953125 18.68398438 -23 18 C-24.31635024 16.64989719 -25.63973902 15.30585054 -27 14 C-26.34 12.68 -25.68 11.36 -25 10 C-23.68 10.66 -22.36 11.32 -21 12 C-21 12.66 -21 13.32 -21 14 C-20.34 14 -19.68 14 -19 14 C-18.34 12.68 -17.68 11.36 -17 10 C-11.25 9.875 -11.25 9.875 -9 11 C-9.04640625 10.38511719 -9.0928125 9.77023437 -9.140625 9.13671875 C-9.43487501 2.54762038 -9.43487501 2.54762038 -7.3125 -0.125 C-4.46377442 -1.20289616 -2.87657748 -0.87895423 0 0 Z " fill="#503B27" transform="translate(622,632)"/>
<path d="M0 0 C1 1 1 1 1.0625 4.0625 C1.041875 5.031875 1.02125 6.00125 1 7 C0.01 7.33 -0.98 7.66 -2 8 C-1.505 8.928125 -1.01 9.85625 -0.5 10.8125 C1 14 1 14 1 17 C-0.32 17 -1.64 17 -3 17 C-1.02 17.66 0.96 18.32 3 19 C3 20.32 3 21.64 3 23 C-0.96 23 -4.92 23 -9 23 C-9 23.99 -9 24.98 -9 26 C-9.66 26 -10.32 26 -11 26 C-11.94220126 20.47291389 -12.12116149 15.16241648 -12.0625 9.5625 C-12.05798828 8.73556641 -12.05347656 7.90863281 -12.04882812 7.05664062 C-12.03715811 5.03772854 -12.01922718 3.01885426 -12 1 C-10.824375 0.7834375 -10.824375 0.7834375 -9.625 0.5625 C-3.18677043 -0.81712062 -3.18677043 -0.81712062 0 0 Z " fill="#D9D9D9" transform="translate(28,811)"/>
<path d="M0 0 C-0.50797009 4.3177458 -1.19682779 8.03302114 -3 12 C-3.66 12 -4.32 12 -5 12 C-5.33 12.66 -5.66 13.32 -6 14 C-6.66 14 -7.32 14 -8 14 C-8.33 16.64 -8.66 19.28 -9 22 C-10.258125 22.28875 -11.51625 22.5775 -12.8125 22.875 C-15.8539399 23.57303539 -17.30669878 24.20446585 -20 26 C-20 25.34 -20 24.68 -20 24 C-20.66 24 -21.32 24 -22 24 C-22.77639784 17.94409684 -20.38771873 13.81412661 -17 9 C-12.60267264 4.21609441 -6.53409531 0 0 0 Z " fill="#46311C" transform="translate(406,320)"/>
<path d="M0 0 C3.44165321 0.35299007 5.06872538 1.04581692 8 3 C8.33 2.01 8.66 1.02 9 0 C9.66 0 10.32 0 11 0 C11.33 4.62 11.66 9.24 12 14 C10.35 14.33 8.7 14.66 7 15 C7.495 15.433125 7.99 15.86625 8.5 16.3125 C10 18 10 18 10 21 C9.34 21.33 8.68 21.66 8 22 C8.66 22.66 9.32 23.32 10 24 C8.35 24.33 6.7 24.66 5 25 C5 24.34 5 23.68 5 23 C3.68 23.33 2.36 23.66 1 24 C1 23.34 1 22.68 1 22 C0.34 21.67 -0.32 21.34 -1 21 C-0.34 21 0.32 21 1 21 C1 20.34 1 19.68 1 19 C0.01 19 -0.98 19 -2 19 C-1.505 17.515 -1.505 17.515 -1 16 C-1.33 15.34 -1.66 14.68 -2 14 C-2.12199138 12.0027458 -2.17547512 10.00094019 -2.1875 8 C-2.20167969 6.9275 -2.21585938 5.855 -2.23046875 4.75 C-2 2 -2 2 0 0 Z " fill="#CBCBCB" transform="translate(18,838)"/>
<path d="M0 0 C7.22330097 -0.60194175 7.22330097 -0.60194175 10.5 1.9375 C12.2864003 5.58473394 12.28750337 8.11751253 12.04296875 12.109375 C12.02169922 13.04523437 12.02169922 13.04523437 12 14 C12.33 14.33 12.66 14.66 13 15 C13.07258946 17.18639453 13.08373783 19.37500389 13.0625 21.5625 C13.05347656 22.76003906 13.04445313 23.95757813 13.03515625 25.19140625 C13.02355469 26.11824219 13.01195313 27.04507813 13 28 C12.34 27.67 11.68 27.34 11 27 C10.3671875 24.49609375 10.3671875 24.49609375 9.875 21.4375 C9.70742188 20.42558594 9.53984375 19.41367187 9.3671875 18.37109375 C9.24601562 17.58863281 9.12484375 16.80617188 9 16 C7.35 15.67 5.7 15.34 4 15 C3.34 16.32 2.68 17.64 2 19 C1.01 19 0.02 19 -1 19 C-1 17.68 -1 16.36 -1 15 C-1.66 15 -2.32 15 -3 15 C-3 16.65 -3 18.3 -3 20 C-3.33 20 -3.66 20 -4 20 C-4.02690844 17.37493198 -4.04679404 14.75013827 -4.0625 12.125 C-4.07087891 11.37863281 -4.07925781 10.63226562 -4.08789062 9.86328125 C-4.11328125 4.2265625 -4.11328125 4.2265625 -3 2 C-2.01 2 -1.02 2 0 2 C0 1.34 0 0.68 0 0 Z " fill="#E7E7E7" transform="translate(19,766)"/>
<path d="M0 0 C0.33 0 0.66 0 1 0 C1 5.94 1 11.88 1 18 C0.34 18 -0.32 18 -1 18 C-1 18.66 -1 19.32 -1 20 C-3.97 20.33 -6.94 20.66 -10 21 C-10.33 20.01 -10.66 19.02 -11 18 C-11.66 18 -12.32 18 -13 18 C-13 16.35 -13 14.7 -13 13 C-14.32 13 -15.64 13 -17 13 C-17 11.68 -17 10.36 -17 9 C-13.535 8.505 -13.535 8.505 -10 8 C-10.66 7.34 -11.32 6.68 -12 6 C-11.67 5.01 -11.34 4.02 -11 3 C-9.68 3.99 -8.36 4.98 -7 6 C-5.35 5.01 -3.7 4.02 -2 3 C-2 4.32 -2 5.64 -2 7 C-1.855625 6.21625 -1.71125 5.4325 -1.5625 4.625 C-1 2 -1 2 0 0 Z " fill="#E9E9E9" transform="translate(31,876)"/>
<path d="M0 0 C0.66 0.33 1.32 0.66 2 1 C-0.09754093 10.7149264 -3.38244941 19.77466062 -7 29 C-7.74507813 28.24460937 -8.49015625 27.48921875 -9.2578125 26.7109375 C-10.81440815 25.17208083 -12.39768958 23.65674702 -14.0546875 22.2265625 C-15.93574207 20.57155741 -17.54397842 19.04361486 -19 17 C-18.9375 13.0625 -18.9375 13.0625 -18 10 C-17.67 10.99 -17.34 11.98 -17 13 C-12.95377498 13.36980013 -12.95377498 13.36980013 -10 11 C-6.8125 10.875 -6.8125 10.875 -4 11 C-3.67 8.36 -3.34 5.72 -3 3 C-2.34 3 -1.68 3 -1 3 C-0.67 2.01 -0.34 1.02 0 0 Z " fill="#523D29" transform="translate(401,331)"/>
<path d="M0 0 C0.33 0 0.66 0 1 0 C1.06993164 0.69222656 1.13986328 1.38445313 1.21191406 2.09765625 C2.82116294 17.8072369 4.85938261 33.34533492 7.68041992 48.88476562 C8 51 8 51 8 54 C4.62537285 53.45276317 2.91765 52.9451 0 51 C-0.36076355 48.82333374 -0.36076355 48.82333374 -0.34057617 46.09130859 C-0.34034958 45.07040131 -0.34012299 44.04949402 -0.33988953 42.99765015 C-0.32440567 41.89240997 -0.30892181 40.7871698 -0.29296875 39.6484375 C-0.28872391 38.5192691 -0.28447906 37.39010071 -0.28010559 36.22671509 C-0.26327132 32.60923727 -0.22560975 28.99231031 -0.1875 25.375 C-0.17245934 22.92709136 -0.15876986 20.47917402 -0.14648438 18.03125 C-0.11335227 12.0206444 -0.06310579 6.01036154 0 0 Z " fill="#3FA287" transform="translate(332,853)"/>
<path d="M0 0 C-0.88188976 6.5511811 -0.88188976 6.5511811 -1.625 9.375 C-1.74875 9.91125 -1.8725 10.4475 -2 11 C-1.67 11.33 -1.34 11.66 -1 12 C-0.95919217 13.99958364 -0.95745644 16.00045254 -1 18 C-1.66 18.33 -2.32 18.66 -3 19 C-3.4640625 17.5459375 -3.4640625 17.5459375 -3.9375 16.0625 C-4.69523342 13.15934208 -4.69523342 13.15934208 -6 12 C-7.66617115 11.95936168 -9.33388095 11.957279 -11 12 C-11.99 14.475 -11.99 14.475 -13 17 C-14.65 17 -16.3 17 -18 17 C-18.33 17.66 -18.66 18.32 -19 19 C-18.67 17.68 -18.34 16.36 -18 15 C-16.68 14.67 -15.36 14.34 -14 14 C-13.23681405 9.17867673 -13.23681405 9.17867673 -13.0625 4.3125 C-12.98971276 1.61937205 -12.56571188 0.19199663 -11 -2 C-7.07040122 -4.18311043 -3.6835409 -1.77093312 0 0 Z " fill="#DCDCDC" transform="translate(32,930)"/>
<path d="M0 0 C0.66 0.33 1.32 0.66 2 1 C2 3.31 2 5.62 2 8 C5.3 8.33 8.6 8.66 12 9 C11.01 10.32 10.02 11.64 9 13 C6.69 12.67 4.38 12.34 2 12 C2.99 13.485 2.99 13.485 4 15 C3.625 17.1875 3.625 17.1875 3 19 C-0.80172161 17.42626408 -3.24341988 15.02378358 -6.125 12.125 C-6.99382813 11.26132812 -7.86265625 10.39765625 -8.7578125 9.5078125 C-10.68517954 7.35211626 -11.90515161 5.64485847 -13 3 C-12.01 2.67 -11.02 2.34 -10 2 C-8.17578125 3.21484375 -8.17578125 3.21484375 -6.3125 4.9375 C-5.68988281 5.50339844 -5.06726563 6.06929688 -4.42578125 6.65234375 C-3.95527344 7.09707031 -3.48476563 7.54179687 -3 8 C-2.690625 6.865625 -2.38125 5.73125 -2.0625 4.5625 C-1 1 -1 1 0 0 Z " fill="#694E33" transform="translate(627,448)"/>
<path d="M0 0 C1.32 0.66 2.64 1.32 4 2 C4 2.99 4 3.98 4 5 C3.34 5 2.68 5 2 5 C2.99 6.485 2.99 6.485 4 8 C4.37167184 10.76020996 4.17850636 13.18852476 4 16 C3.34 16.66 2.68 17.32 2 18 C2.33 18.66 2.66 19.32 3 20 C3.23076923 25.53846154 3.23076923 25.53846154 2 28 C0.02 27.67 -1.96 27.34 -4 27 C-3.34 26.34 -2.68 25.68 -2 25 C-1.01 25.33 -0.02 25.66 1 26 C0.505 25.071875 0.01 24.14375 -0.5 23.1875 C-2 20 -2 20 -2 17 C-1.34 16.67 -0.68 16.34 0 16 C0 14.02 0 12.04 0 10 C-3.58327753 8.99782936 -3.58327753 8.99782936 -7 10 C-8.66619446 10.0396713 -10.33391013 10.04384447 -12 10 C-12 9.01 -12 8.02 -12 7 C-11.34 7 -10.68 7 -10 7 C-10 5.02 -10 3.04 -10 1 C-6.27566618 2.2125738 -2.62197194 3.50859979 1 5 C0.67 3.35 0.34 1.7 0 0 Z " fill="#E5E5E5" transform="translate(28,802)"/>
<path d="M0 0 C0.33 0 0.66 0 1 0 C1 16.17 1 32.34 1 49 C2.65 49.66 4.3 50.32 6 51 C8 54 8 54 7.875 57.4375 C6.93581987 61.26130483 6.09846576 62.65267745 3 65 C2.34 65 1.68 65 1 65 C0.505 65.99 0.505 65.99 0 67 C0 44.89 0 22.78 0 0 Z " fill="#E57E76" transform="translate(242,787)"/>
<path d="M0 0 C4.70588235 0.70588235 4.70588235 0.70588235 6 2 C6.35179197 4.3306218 6.68330179 6.66435067 7 9 C7.30903983 10.33917261 7.62942911 11.67653254 8 13 C7.01 13.495 7.01 13.495 6 14 C6 13.01 6 12.02 6 11 C1.71 11 -2.58 11 -7 11 C-7.33 11.99 -7.66 12.98 -8 14 C-8 12.35 -8 10.7 -8 9 C-7.01 8.67 -6.02 8.34 -5 8 C-5.66 7.67 -6.32 7.34 -7 7 C-7 5.02 -7 3.04 -7 1 C-6.34 1 -5.68 1 -5 1 C-5 2.32 -5 3.64 -5 5 C-4.01 5 -3.02 5 -2 5 C-1.855625 4.360625 -1.71125 3.72125 -1.5625 3.0625 C-1 1 -1 1 0 0 Z " fill="#DBDBDB" transform="translate(23,780)"/>
<path d="M0 0 C0.67127578 4.44720207 0.48814198 6.33054814 -2.1875 10 C-5 12 -5 12 -7.8125 11.8125 C-8.534375 11.544375 -9.25625 11.27625 -10 11 C-10 10.34 -10 9.68 -10 9 C-8.34997172 7.64613064 -6.6825613 6.31321858 -5 5 C-4.67 4.34 -4.34 3.68 -4 3 C-5.051875 3.33 -6.10375 3.66 -7.1875 4 C-10.38873357 4.83966782 -12.7411008 5.19750904 -16 5 C-16.33 4.01 -16.66 3.02 -17 2 C-15 -1 -15 -1 -11.6875 -1.6875 C-3.56390977 -2.37593985 -3.56390977 -2.37593985 0 0 Z " fill="#694E34" transform="translate(310,611)"/>
<path d="M0 0 C1.17791932 3.53375797 0.75415072 4.44851107 -0.43359375 7.88671875 C-0.75263672 8.82451172 -1.07167969 9.76230469 -1.40039062 10.72851562 C-1.74263672 11.70498047 -2.08488281 12.68144531 -2.4375 13.6875 C-2.77587891 14.67556641 -3.11425781 15.66363281 -3.46289062 16.68164062 C-4.30059974 19.12397565 -5.14657083 21.56312271 -6 24 C-8.31399023 21.68600977 -8.32256804 21.01395276 -8.6328125 17.8671875 C-8.71660156 17.06152344 -8.80039062 16.25585938 -8.88671875 15.42578125 C-8.96535156 14.58402344 -9.04398437 13.74226563 -9.125 12.875 C-9.21136719 12.02550781 -9.29773438 11.17601562 -9.38671875 10.30078125 C-9.59902557 8.20130273 -9.80053603 6.10073758 -10 4 C-8.906875 3.71125 -7.81375 3.4225 -6.6875 3.125 C-2.95986155 2.18106796 -2.95986155 2.18106796 0 0 Z " fill="#46311B" transform="translate(390,365)"/>
<path d="M0 0 C6.6 0 13.2 0 20 0 C20.33 1.65 20.66 3.3 21 5 C13.74 5 6.48 5 -1 5 C-0.67 3.35 -0.34 1.7 0 0 Z " fill="#A9A9A9" transform="translate(14,868)"/>
<path d="M0 0 C3.83605489 1.58363082 6.28445649 4.02614122 9.203125 6.9375 C9.6857782 7.41823975 10.1684314 7.89897949 10.66571045 8.39428711 C11.67999064 9.40721093 12.69176804 10.42264638 13.70117188 11.44042969 C15.25171972 13.00173165 16.81270503 14.55202497 18.375 16.1015625 C19.36001734 17.08790061 20.34441453 18.0748585 21.328125 19.0625 C22.67245605 20.41021484 22.67245605 20.41021484 24.04394531 21.78515625 C26 24 26 24 26 26 C25.34 26 24.68 26 24 26 C24 25.34 24 24.68 24 24 C23.360625 23.87625 22.72125 23.7525 22.0625 23.625 C21.0415625 23.315625 21.0415625 23.315625 20 23 C19.67 22.34 19.34 21.68 19 21 C18.25621094 21.11214844 17.51242187 21.22429687 16.74609375 21.33984375 C14 21 14 21 11.97265625 18.69140625 C11.34230469 17.65886719 10.71195313 16.62632812 10.0625 15.5625 C9.38316406 14.47582031 8.70382812 13.38914063 8.00390625 12.26953125 C7.34261719 11.19058594 6.68132813 10.11164063 6 9 C4.84182286 7.24436996 3.67627483 5.49355632 2.5 3.75 C1.25 1.875 1.25 1.875 0 0 Z " fill="#3BA387" transform="translate(634,227)"/>
<path d="M0 0 C0.80566406 0.09023438 1.61132812 0.18046875 2.44140625 0.2734375 C4.4375 0.625 4.4375 0.625 5.4375 1.625 C5.6875 4.0625 5.6875 4.0625 5.4375 6.625 C1.74263897 9.08824069 -0.19543092 9.01491688 -4.5625 8.625 C-6.5625 7.4375 -6.5625 7.4375 -7.5625 5.625 C-7.375 3 -7.375 3 -6.5625 0.625 C-4.06581711 -0.62334144 -2.74920849 -0.32655125 0 0 Z " fill="#555555" transform="translate(23.5625,769.375)"/>
<path d="M0 0 C2.31243792 -0.02685412 4.6249627 -0.04632841 6.9375 -0.0625 C8.22527344 -0.07410156 9.51304688 -0.08570313 10.83984375 -0.09765625 C14 0 14 0 15 1 C15.1875 3.9375 15.1875 3.9375 15 7 C13 9 13 9 10 9.3125 C9.01 9.209375 8.02 9.10625 7 9 C5 6 5 6 5 3 C3.35 3 1.7 3 0 3 C0 2.01 0 1.02 0 0 Z " fill="#656565" transform="translate(14,963)"/>
<path d="M0 0 C2.625 0.25 2.625 0.25 4.4375 1.375 C5.625 3.25 5.625 3.25 5.625 9.25 C0.675 9.25 -4.275 9.25 -9.375 9.25 C-9.375 8.26 -9.375 7.27 -9.375 6.25 C-7.725 6.25 -6.075 6.25 -4.375 6.25 C-4.230625 5.445625 -4.08625 4.64125 -3.9375 3.8125 C-3.17394875 0.33409987 -3.17394875 0.33409987 0 0 Z " fill="#656565" transform="translate(23.375,940.75)"/>
<path d="M0 0 C1.97909398 -0.02686553 3.95828971 -0.04633375 5.9375 -0.0625 C7.03964844 -0.07410156 8.14179688 -0.08570313 9.27734375 -0.09765625 C12 0 12 0 13 1 C13.34568689 6.39881588 13.11582647 11.69982429 12 17 C10.21590198 13.93753253 9.77119979 11.77920727 9.875 8.25 C9.89304687 7.45078125 9.91109375 6.6515625 9.9296875 5.828125 C9.95289063 5.22484375 9.97609375 4.6215625 10 4 C9.34 4 8.68 4 8 4 C7.67 5.32 7.34 6.64 7 8 C6.1646875 7.2575 6.1646875 7.2575 5.3125 6.5 C2.61837017 4.75245633 1.14624993 4.73781251 -2 5 C-2 4.34 -2 3.68 -2 3 C-1.34 3 -0.68 3 0 3 C0 2.01 0 1.02 0 0 Z " fill="#EBEBEB" transform="translate(19,834)"/>
<path d="M0 0 C7.625 5.625 7.625 5.625 11 9 C6.545 12.465 6.545 12.465 2 16 C1.34 15.67 0.68 15.34 0 15 C0 10.05 0 5.1 0 0 Z " fill="#46A88F" transform="translate(759,836)"/>
<path d="M0 0 C0.66 0.33 1.32 0.66 2 1 C2 2.32 2 3.64 2 5 C3.65 5.33 5.3 5.66 7 6 C7 7.32 7 8.64 7 10 C3.04 10 -0.92 10 -5 10 C-5 10.99 -5 11.98 -5 13 C-5.66 13 -6.32 13 -7 13 C-7.625 9.625 -7.625 9.625 -8 6 C-5.64046906 3.64046906 -4.22104383 3.50858587 -1 3 C-0.67 2.01 -0.34 1.02 0 0 Z " fill="#DDDDDD" transform="translate(24,824)"/>
<path d="M0 0 C0 0.99 0 1.98 0 3 C-0.99 3.33 -1.98 3.66 -3 4 C-3.33 5.65 -3.66 7.3 -4 9 C-2.68 9 -1.36 9 0 9 C0 9.99 0 10.98 0 12 C-0.67546875 11.79503906 -1.3509375 11.59007812 -2.046875 11.37890625 C-2.93890625 11.10949219 -3.8309375 10.84007812 -4.75 10.5625 C-5.63171875 10.29566406 -6.5134375 10.02882813 -7.421875 9.75390625 C-9.60565835 9.11531506 -11.78835498 8.53224167 -14 8 C-14 6.68 -14 5.36 -14 4 C-12.0429132 3.32968281 -10.08428887 2.66385317 -8.125 2 C-7.03445312 1.62875 -5.94390625 1.2575 -4.8203125 0.875 C-2 0 -2 0 0 0 Z " fill="#545454" transform="translate(29,973)"/>
<path d="M0 0 C3 0.25 3 0.25 5 2.25 C5.25 4.75 5.25 4.75 5 7.25 C3 9.25 3 9.25 0 9.5 C-3 9.25 -3 9.25 -5 7.25 C-5.25 4.75 -5.25 4.75 -5 2.25 C-3 0.25 -3 0.25 0 0 Z " fill="#585858" transform="translate(24,951.75)"/>
<path d="M0 0 C3 0.25 3 0.25 5 2.25 C5.25 4.75 5.25 4.75 5 7.25 C3 9.25 3 9.25 0 9.5 C-3 9.25 -3 9.25 -5 7.25 C-5.25 4.75 -5.25 4.75 -5 2.25 C-3 0.25 -3 0.25 0 0 Z " fill="#555555" transform="translate(24,898.75)"/>
<path d="M0 0 C1.65 0.99 3.3 1.98 5 3 C6.65 2.01 8.3 1.02 10 0 C9.125 3.875 9.125 3.875 8 5 C8.66 5.33 9.32 5.66 10 6 C10 6.99 10 7.98 10 9 C5.05 9 0.1 9 -5 9 C-5 8.01 -5 7.02 -5 6 C-1.535 5.505 -1.535 5.505 2 5 C1.34 4.34 0.68 3.68 0 3 C0 2.01 0 1.02 0 0 Z " fill="#5F5F5F" transform="translate(19,879)"/>
<path d="M0 0 C0 0.99 0 1.98 0 3 C-0.99 3 -1.98 3 -3 3 C-3 4.65 -3 6.3 -3 8 C-6.93370357 7.43804235 -9.83175607 6.44407389 -13 4 C-13 2.68 -13 1.36 -13 0 C-4.57142857 -1.28571429 -4.57142857 -1.28571429 0 0 Z " fill="#575757" transform="translate(29,791)"/>
<path d="M0 0 C0.66 0.66 1.32 1.32 2 2 C4.21072977 2.24253813 4.21072977 2.24253813 6.625 2.125 C7.44226563 2.10695313 8.25953125 2.08890625 9.1015625 2.0703125 C9.72804688 2.04710937 10.35453125 2.02390625 11 2 C12.90608098 5.21182149 13.22266247 7.53882603 13.125 11.25 C13.10695313 12.14203125 13.08890625 13.0340625 13.0703125 13.953125 C13.03550781 14.96632813 13.03550781 14.96632813 13 16 C9.71669856 13.07651242 9.04133067 10.24542505 8 6 C3.85906302 5.79029441 3.85906302 5.79029441 0 7 C0 4.69 0 2.38 0 0 Z " fill="#E8E8E8" transform="translate(19,894)"/>
<path d="M0 0 C0.66 0.33 1.32 0.66 2 1 C1.01 2.32 0.02 3.64 -1 5 C12.86 5.495 12.86 5.495 27 6 C27 6.33 27 6.66 27 7 C22.53426489 7.02479481 18.0685667 7.04290486 13.6027832 7.05493164 C12.08487245 7.05994766 10.5669665 7.06676203 9.04907227 7.07543945 C6.86212984 7.08762497 4.67525154 7.09325572 2.48828125 7.09765625 C1.17384033 7.10289307 -0.14060059 7.10812988 -1.49487305 7.11352539 C-4.48205125 7.01677552 -7.10592611 6.70343764 -10 6 C-9.505 5.54625 -9.01 5.0925 -8.5 4.625 C-6.77390663 3.12364481 -6.77390663 3.12364481 -7 1 C-5.5459375 1.0309375 -5.5459375 1.0309375 -4.0625 1.0625 C-1.12534105 1.35618499 -1.12534105 1.35618499 0 0 Z " fill="#675039" transform="translate(465,288)"/>
<path d="M0 0 C-0.33 5.28 -0.66 10.56 -1 16 C-1.33 15.34 -1.66 14.68 -2 14 C-2.99 13.67 -3.98 13.34 -5 13 C-6.56430248 9.87139505 -6.35627284 7.44397075 -6 4 C-2 0 -2 0 0 0 Z " fill="#694D33" transform="translate(381,353)"/>
<path d="M0 0 C4.7539867 1.14751403 9.37892907 2.38262517 14 4 C11.50730649 6.39298577 10.18185678 6.9828437 6.6875 7.3125 C2.80785143 6.98371622 -0.314065 6.20357061 -4 5 C-2.68 4.67 -1.36 4.34 0 4 C0 2.68 0 1.36 0 0 Z " fill="#695136" transform="translate(560,178)"/>
<path d="M0 0 C1.2065625 0.0309375 1.2065625 0.0309375 2.4375 0.0625 C2.7675 1.7125 3.0975 3.3625 3.4375 5.0625 C3.7675 3.7425 4.0975 2.4225 4.4375 1.0625 C5.0975 1.0625 5.7575 1.0625 6.4375 1.0625 C6.5625 3.4375 6.5625 3.4375 6.4375 6.0625 C4.4375 8.0625 4.4375 8.0625 1.4375 8.3125 C-1.5625 8.0625 -1.5625 8.0625 -3.5625 6.0625 C-3.75 3.5 -3.75 3.5 -3.5625 1.0625 C-2.5625 0.0625 -2.5625 0.0625 0 0 Z " fill="#515151" transform="translate(22.5625,930.9375)"/>
<path d="M0 0 C0 0.66 0 1.32 0 2 C1.32 1.67 2.64 1.34 4 1 C4 1.66 4 2.32 4 3 C4.99 3 5.98 3 7 3 C7 3.66 7 4.32 7 5 C6.01 5.495 6.01 5.495 5 6 C5.66 6.66 6.32 7.32 7 8 C5.35 8.33 3.7 8.66 2 9 C2 8.34 2 7.68 2 7 C0.68 7.33 -0.64 7.66 -2 8 C-2 7.34 -2 6.68 -2 6 C-2.66 5.67 -3.32 5.34 -4 5 C-3.34 5 -2.68 5 -2 5 C-2 4.34 -2 3.68 -2 3 C-2.99 3 -3.98 3 -5 3 C-5 2.34 -5 1.68 -5 1 C-2 0 -2 0 0 0 Z " fill="#757575" transform="translate(21,854)"/>
<path d="M0 0 C0.33 0.66 0.66 1.32 1 2 C1.66 2 2.32 2 3 2 C2.0022242 4.99332739 1.2477975 5.94766315 -1 8 C-0.01 8.33 0.98 8.66 2 9 C1.01 10.32 0.02 11.64 -1 13 C-1.99 12.67 -2.98 12.34 -4 12 C-5.35439668 9.29120665 -5.06501451 6.99066732 -5 4 C-4.34 4 -3.68 4 -3 4 C-3 3.34 -3 2.68 -3 2 C-2.01 1.34 -1.02 0.68 0 0 Z " fill="#523C29" transform="translate(424,644)"/>
<path d="M0 0 C4.70588235 0.70588235 4.70588235 0.70588235 6 2 C6.04080783 3.99958364 6.04254356 6.00045254 6 8 C5.01 7.67 4.02 7.34 3 7 C3 5.68 3 4.36 3 3 C2.34 2.67 1.68 2.34 1 2 C0.773125 2.804375 0.54625 3.60875 0.3125 4.4375 C-1 7 -1 7 -3.5 7.9375 C-4.325 7.958125 -5.15 7.97875 -6 8 C-8 6 -8 6 -8.125 3.375 C-8.08375 2.59125 -8.0425 1.8075 -8 1 C-7.34 1 -6.68 1 -6 1 C-5.814375 1.9590625 -5.814375 1.9590625 -5.625 2.9375 C-5.315625 3.9584375 -5.315625 3.9584375 -5 5 C-4.34 5.33 -3.68 5.66 -3 6 C-2.690625 5.195625 -2.38125 4.39125 -2.0625 3.5625 C-1 1 -1 1 0 0 Z " fill="#515151" transform="translate(23,916)"/>
<path d="M0 0 C2.88611196 4.9476205 4 10.33165837 4 16 C-0.875 14.25 -0.875 14.25 -2 12 C-2.25785684 7.44452917 -1.99851462 4.1219364 0 0 Z " fill="#724F36" transform="translate(454,791)"/>
<path d="M0 0 C0.66 0 1.32 0 2 0 C1.979375 0.969375 1.95875 1.93875 1.9375 2.9375 C1.64381501 5.87465895 1.64381501 5.87465895 3 7 C3.07258946 9.18639453 3.08373783 11.37500389 3.0625 13.5625 C3.05347656 14.76003906 3.04445313 15.95757813 3.03515625 17.19140625 C3.02355469 18.11824219 3.01195312 19.04507813 3 20 C2.34 19.67 1.68 19.34 1 19 C0.43380948 16.20050245 0.10518492 13.40081735 -0.2421875 10.56640625 C-0.74281743 7.84844653 -0.74281743 7.84844653 -3.0703125 6.65234375 C-3.70710938 6.43707031 -4.34390625 6.22179687 -5 6 C-5 5.34 -5 4.68 -5 4 C-4.360625 3.71125 -3.72125 3.4225 -3.0625 3.125 C-0.84793921 2.17176549 -0.84793921 2.17176549 0 0 Z " fill="#E8E8E8" transform="translate(29,774)"/>
<path d="M0 0 C3.44165321 0.35299007 5.06872538 1.04581692 8 3 C8.33 2.01 8.66 1.02 9 0 C9.66 0 10.32 0 11 0 C11 2.64 11 5.28 11 8 C8.53199953 6.84826645 6.95216435 5.95216435 5 4 C3.68 4 2.36 4 1 4 C1 5.32 1 6.64 1 8 C0.01 7.67 -0.98 7.34 -2 7 C-2.125 4.625 -2.125 4.625 -2 2 C-1.34 1.34 -0.68 0.68 0 0 Z " fill="#5C5C5C" transform="translate(18,838)"/>
<path d="M0 0 C3.66075376 -0.3327958 5.39500988 -0.46170299 8.375 1.8125 C10 4 10 4 10 7 C9.01 7 8.02 7 7 7 C6.67 6.01 6.34 5.02 6 4 C5.01 5.32 4.02 6.64 3 8 C1.35 7.67 -0.3 7.34 -2 7 C-2.33 5.68 -2.66 4.36 -3 3 C-2.34 2.67 -1.68 2.34 -1 2 C-0.67 2.99 -0.34 3.98 0 5 C0.66 5 1.32 5 2 5 C2.33 3.68 2.66 2.36 3 1 C2.01 0.67 1.02 0.34 0 0 Z " fill="#4C4C4C" transform="translate(19,821)"/>
<path d="M0 0 C0.66 0.33 1.32 0.66 2 1 C2.1953125 7.0546875 2.1953125 7.0546875 2 9 C1.34 9.66 0.68 10.32 0 11 C0.33 11.66 0.66 12.32 1 13 C1.23076923 18.53846154 1.23076923 18.53846154 0 21 C-1.98 20.67 -3.96 20.34 -6 20 C-5.34 19.34 -4.68 18.68 -4 18 C-3.01 18.33 -2.02 18.66 -1 19 C-1.7425 17.6078125 -1.7425 17.6078125 -2.5 16.1875 C-4 13 -4 13 -4 10 C-2.68 9.34 -1.36 8.68 0 8 C0 5.36 0 2.72 0 0 Z " fill="#EAEAEA" transform="translate(30,809)"/>
<path d="M0 0 C4.70588235 0.70588235 4.70588235 0.70588235 6 2 C6.04080783 3.99958364 6.04254356 6.00045254 6 8 C5.01 7.67 4.02 7.34 3 7 C3 5.68 3 4.36 3 3 C2.34 3 1.68 3 1 3 C0.34 4.65 -0.32 6.3 -1 8 C-3.97 7.505 -3.97 7.505 -7 7 C-7 5.02 -7 3.04 -7 1 C-6.34 1 -5.68 1 -5 1 C-5 2.32 -5 3.64 -5 5 C-4.01 5 -3.02 5 -2 5 C-1.855625 4.360625 -1.71125 3.72125 -1.5625 3.0625 C-1 1 -1 1 0 0 Z " fill="#515151" transform="translate(23,780)"/>
<path d="M0 0 C1 1 1 1 1.0625 4.0625 C1.041875 5.031875 1.02125 6.00125 1 7 C0.01 6.67 -0.98 6.34 -2 6 C-2 4.68 -2 3.36 -2 2 C-2.66 2 -3.32 2 -4 2 C-4.33 2.99 -4.66 3.98 -5 5 C-5.66 5 -6.32 5 -7 5 C-7 4.01 -7 3.02 -7 2 C-7.99 2 -8.98 2 -10 2 C-9.67 3.65 -9.34 5.3 -9 7 C-9.99 6.67 -10.98 6.34 -12 6 C-12 4.35 -12 2.7 -12 1 C-10.824375 0.7834375 -10.824375 0.7834375 -9.625 0.5625 C-3.18677043 -0.81712062 -3.18677043 -0.81712062 0 0 Z " fill="#4F4F4F" transform="translate(28,811)"/>
<path d="M0 0 C0.08886184 3.19902639 -0.08941469 5.92677456 -1 9 C-0.34 9.33 0.32 9.66 1 10 C1 11.65 1 13.3 1 15 C0.01 15 -0.98 15 -2 15 C-4.74755245 12.25244755 -4.74493771 9.97114466 -5.109375 6.19921875 C-5 4 -5 4 -3.125 1.4375 C-1 0 -1 0 0 0 Z " fill="#54D0B1" transform="translate(241,835)"/>
<path d="M0 0 C8.51304348 6.95869565 8.51304348 6.95869565 11 11 C10.75 13.8125 10.75 13.8125 10 16 C8 14 8 14 7.125 11.5625 C5.83721361 8.62920877 4.70891891 7.64176904 2 6 C1.01 5.67 0.02 5.34 -1 5 C-0.67 3.35 -0.34 1.7 0 0 Z " fill="#47321D" transform="translate(382,348)"/>
<path d="M0 0 C0.33 0 0.66 0 1 0 C1.19477739 1.62414378 1.38059458 3.24936423 1.5625 4.875 C1.66691406 5.77992188 1.77132813 6.68484375 1.87890625 7.6171875 C2 10 2 10 1 12 C-0.32 11.34 -1.64 10.68 -3 10 C-3 9.34 -3 8.68 -3 8 C-3.66 8 -4.32 8 -5 8 C-4.625 6.0625 -4.625 6.0625 -4 4 C-3.34 3.67 -2.68 3.34 -2 3 C-1.34 3.33 -0.68 3.66 0 4 C0 2.68 0 1.36 0 0 Z " fill="#6F5237" transform="translate(413,484)"/>
<path d="M0 0 C0.33 1.32 0.66 2.64 1 4 C1.99 4.33 2.98 4.66 4 5 C3.67 7.31 3.34 9.62 3 12 C-0.465 10.02 -0.465 10.02 -4 8 C-2.68 5.36 -1.36 2.72 0 0 Z " fill="#56D0B0" transform="translate(124,275)"/>
<path d="M0 0 C4.85963179 0.60745397 8.7405518 2.72758967 13 5 C13 5.66 13 6.32 13 7 C8.87248551 6.39301257 5.6678852 4.96189209 2 3 C2 4.98 2 6.96 2 9 C1.34 9 0.68 9 0 9 C0 6.03 0 3.06 0 0 Z " fill="#535353" transform="translate(16,800)"/>
<path d="M0 0 C3.78786597 0.5260925 6.17152224 1.38103911 9 4 C9 4.66 9 5.32 9 6 C11.64 6.33 14.28 6.66 17 7 C16.67 8.32 16.34 9.64 16 11 C11.74756898 11 9.50347498 8.59661122 6.3125 6.0625 C5.70599609 5.59392578 5.09949219 5.12535156 4.47460938 4.64257812 C2.95941803 3.45803596 1.47662877 2.23227936 0 1 C0 0.67 0 0.34 0 0 Z " fill="#ECF5F3" transform="translate(758,146)"/>
<path d="M0 0 C0.66 0 1.32 0 2 0 C2 0.66 2 1.32 2 2 C3.98 2 5.96 2 8 2 C8 1.34 8 0.68 8 0 C8.66 0 9.32 0 10 0 C9.67 1.65 9.34 3.3 9 5 C4.545 5.495 4.545 5.495 0 6 C0 5.34 0 4.68 0 4 C-0.99 4 -1.98 4 -3 4 C-3 3.34 -3 2.68 -3 2 C-2.01 2 -1.02 2 0 2 C0 1.34 0 0.68 0 0 Z " fill="#686868" transform="translate(19,909)"/>
<path d="M0 0 C3.86848614 1.11756266 6.28922757 2.02873292 9 5 C8.06027344 5.30744141 8.06027344 5.30744141 7.1015625 5.62109375 C6.28429688 5.89050781 5.46703125 6.15992188 4.625 6.4375 C3.81289063 6.70433594 3.00078125 6.97117187 2.1640625 7.24609375 C-0.01031799 7.95179729 -0.01031799 7.95179729 -2 9 C-2 8.01 -2 7.02 -2 6 C-1.34 6 -0.68 6 0 6 C0 4.02 0 2.04 0 0 Z " fill="#E6E6E6" transform="translate(18,803)"/>
<path d="M0 0 C1.60597325 0.45196245 3.20972508 0.91182327 4.8125 1.375 C6.15248047 1.75785156 6.15248047 1.75785156 7.51953125 2.1484375 C10 3 10 3 13 5 C9.26317891 6.81502739 6.99179743 7.33059914 3 6 C2.67 5.34 2.34 4.68 2 4 C1.01 3.67 0.02 3.34 -1 3 C-0.67 2.01 -0.34 1.02 0 0 Z " fill="#F5F8F7" transform="translate(333,905)"/>
<path d="M0 0 C1.42098605 2.66434884 1.19767261 4.90991085 1 7.875 C0.34 7.545 -0.32 7.215 -1 6.875 C-1.33 5.555 -1.66 4.235 -2 2.875 C-6.29 2.545 -10.58 2.215 -15 1.875 C-14 -0.125 -14 -0.125 -12.4375 -0.75 C-3.71812081 -2.09144295 -3.71812081 -2.09144295 0 0 Z " fill="#DEDEDE" transform="translate(30,961.125)"/>
<path d="M0 0 C1.2065625 0.0309375 1.2065625 0.0309375 2.4375 0.0625 C2.1075 1.0525 1.7775 2.0425 1.4375 3.0625 C0.4475 3.0625 -0.5425 3.0625 -1.5625 3.0625 C-1.8925 4.3825 -2.2225 5.7025 -2.5625 7.0625 C-0.5825 7.0625 1.3975 7.0625 3.4375 7.0625 C3.4375 7.3925 3.4375 7.7225 3.4375 8.0625 C-0.8525 8.0625 -5.1425 8.0625 -9.5625 8.0625 C-9.5625 7.4025 -9.5625 6.7425 -9.5625 6.0625 C-7.9125 6.0625 -6.2625 6.0625 -4.5625 6.0625 C-4.418125 5.258125 -4.27375 4.45375 -4.125 3.625 C-3.347189 0.08163876 -3.347189 0.08163876 0 0 Z " fill="#515151" transform="translate(23.5625,940.9375)"/>
<path d="M0 0 C1.32 0.33 2.64 0.66 4 1 C3.625 3.4375 3.625 3.4375 3 6 C2.01 6.495 2.01 6.495 1 7 C1 5.68 1 4.36 1 3 C-1.475 4.485 -1.475 4.485 -4 6 C-4.99 5.01 -5.98 4.02 -7 3 C-7.99 3.495 -7.99 3.495 -9 4 C-9 3.01 -9 2.02 -9 1 C-6.03 1.33 -3.06 1.66 0 2 C0 1.34 0 0.68 0 0 Z " fill="#E3E3E3" transform="translate(27,877)"/>
<path d="M0 0 C1.32 0 2.64 0 4 0 C3.37240135 2.92879371 2.41377341 5.36095629 1 8 C1.66 8.33 2.32 8.66 3 9 C0.03 8.505 0.03 8.505 -3 8 C-2.25 2.25 -2.25 2.25 0 0 Z " fill="#533D2A" transform="translate(444,288)"/>
<path d="M0 0 C0.66 0 1.32 0 2 0 C1.67 1.32 1.34 2.64 1 4 C-0.76774419 4.53122363 -2.53934083 5.04964073 -4.3125 5.5625 C-5.29863281 5.85253906 -6.28476562 6.14257812 -7.30078125 6.44140625 C-10 7 -10 7 -13 6 C-7.81454918 1.06147541 -7.81454918 1.06147541 -3.6875 0.75 C-2.3571875 0.87375 -2.3571875 0.87375 -1 1 C-0.67 0.67 -0.34 0.34 0 0 Z " fill="#E0E0E0" transform="translate(28,970)"/>
<path d="M0 0 C0.66 0 1.32 0 2 0 C2 2.64 2 5.28 2 8 C3.65 8 5.3 8 7 8 C7.33 8.99 7.66 9.98 8 11 C6.3125 11.8125 6.3125 11.8125 4 12 C1.03777344 9.65777434 -0.68588189 7.9004719 -1.9375 4.3125 C-1.958125 3.549375 -1.97875 2.78625 -2 2 C-1.34 1.34 -0.68 0.68 0 0 Z " fill="#55D1B1" transform="translate(832,416)"/>
<path d="M0 0 C2.31 0.33 4.62 0.66 7 1 C7 1.66 7 2.32 7 3 C4.69 3.66 2.38 4.32 0 5 C-0.33 6.32 -0.66 7.64 -1 9 C-2.65 9 -4.3 9 -6 9 C-6.33 9.66 -6.66 10.32 -7 11 C-6.67 9.68 -6.34 8.36 -6 7 C-5.38125 6.95875 -4.7625 6.9175 -4.125 6.875 C-3.42375 6.58625 -2.7225 6.2975 -2 6 C-0.6954344 3.00384054 -0.6954344 3.00384054 0 0 Z " fill="#E4E4E4" transform="translate(20,938)"/>
<path d="M0 0 C1.32 0.66 2.64 1.32 4 2 C3.00233891 4.49415272 2.31383315 5.78740335 0.0625 7.3125 C-2 8 -2 8 -5 7 C-4.34 5.35 -3.68 3.7 -3 2 C-2.34 2 -1.68 2 -1 2 C-0.67 1.34 -0.34 0.68 0 0 Z " fill="#57D1B1" transform="translate(120,285)"/>
<path d="M0 0 C2.64 0 5.28 0 8 0 C8.125 2.875 8.125 2.875 8 6 C6 8 6 8 2.875 8.125 C1.451875 8.063125 1.451875 8.063125 0 8 C-0.33 6.68 -0.66 5.36 -1 4 C1.97 4.495 1.97 4.495 5 5 C5.33 3.68 5.66 2.36 6 1 C4.02 1 2.04 1 0 1 C0 0.67 0 0.34 0 0 Z " fill="#515151" transform="translate(21,964)"/>
<path d="M0 0 C0.66 0 1.32 0 2 0 C2.33 1.32 2.66 2.64 3 4 C4.32 4.33 5.64 4.66 7 5 C7.33 3.35 7.66 1.7 8 0 C8.66 0 9.32 0 10 0 C10.125 2.375 10.125 2.375 10 5 C8 7 8 7 5 7.3125 C3.515 7.1578125 3.515 7.1578125 2 7 C0 4 0 4 0 0 Z " fill="#535353" transform="translate(19,890)"/>
<path d="M0 0 C2.31 0.33 4.62 0.66 7 1 C7 1.99 7 2.98 7 4 C0.25 5.125 0.25 5.125 -2 4 C-1.34 2.68 -0.68 1.36 0 0 Z " fill="#CCCCCC" transform="translate(20,771)"/>
<path d="M0 0 C0.99 0 1.98 0 3 0 C3 0.66 3 1.32 3 2 C3.66 2 4.32 2 5 2 C4.67 4.31 4.34 6.62 4 9 C3.01 8.67 2.02 8.34 1 8 C1 6.68 1 5.36 1 4 C0.34 4 -0.32 4 -1 4 C-0.67 2.68 -0.34 1.36 0 0 Z " fill="#D3D3D3" transform="translate(16,913)"/>
<path d="M0 0 C2.25 1.9375 2.25 1.9375 4 4 C3.01 4.495 3.01 4.495 2 5 C1.34444881 7.52733235 1.34444881 7.52733235 1 10 C0.67 10 0.34 10 0 10 C0 8.02 0 6.04 0 4 C-1.32 4 -2.64 4 -4 4 C-4 3.01 -4 2.02 -4 1 C-2.25 0.25 -2.25 0.25 0 0 Z " fill="#D8D8D8" transform="translate(25,927)"/>
<path d="M0 0 C3.16115776 1.36983503 3.9927092 1.9890638 6 5 C6.07905064 7.33199388 6.08798769 9.66832622 6 12 C3.02404533 9.44918171 1.55997434 6.56565563 0 3 C0 2.01 0 1.02 0 0 Z " fill="#F77471" transform="translate(394,686)"/>
<path d="M0 0 C-1.28965176 1.37562854 -2.62689293 2.70766393 -4 4 C-4.66 4 -5.32 4 -6 4 C-6.33 5.32 -6.66 6.64 -7 8 C-7.66 8 -8.32 8 -9 8 C-9 6.68 -9 5.36 -9 4 C-9.66 3.34 -10.32 2.68 -11 2 C-9.54494642 1.47007308 -8.08581873 0.9513211 -6.625 0.4375 C-5.81289063 0.14746094 -5.00078125 -0.14257812 -4.1640625 -0.44140625 C-2 -1 -2 -1 0 0 Z " fill="#EB6764" transform="translate(413,663)"/>
<path d="M0 0 C2.125 0.9375 2.125 0.9375 4 2 C3.67 3.98 3.34 5.96 3 8 C1.68 7.34 0.36 6.68 -1 6 C-1 5.34 -1 4.68 -1 4 C-1.66 4 -2.32 4 -3 4 C-2.67 3.01 -2.34 2.02 -2 1 C-1.34 0.67 -0.68 0.34 0 0 Z " fill="#46311D" transform="translate(608,646)"/>
<path d="M0 0 C4.29 0 8.58 0 13 0 C13 0.66 13 1.32 13 2 C9.7 2 6.4 2 3 2 C3 2.99 3 3.98 3 5 C2.34 5 1.68 5 1 5 C0.67 3.35 0.34 1.7 0 0 Z " fill="#4D4D4D" transform="translate(16,849)"/>
<path d="M0 0 C4.29 0 8.58 0 13 0 C13 0.66 13 1.32 13 2 C9.7 2 6.4 2 3 2 C3 2.99 3 3.98 3 5 C2.34 5 1.68 5 1 5 C0.67 3.35 0.34 1.7 0 0 Z " fill="#4D4D4D" transform="translate(16,832)"/>
<path d="M0 0 C2.475 0.99 2.475 0.99 5 2 C4.67 3.65 4.34 5.3 4 7 C2.125 6.75 2.125 6.75 0 6 C-1.25 3.9375 -1.25 3.9375 -2 2 C-1.34 1.34 -0.68 0.68 0 0 Z " fill="#47321E" transform="translate(392,346)"/>
<path d="M0 0 C3 3.75 3 3.75 3 6 C1.59538911 8.80922178 -0.48095333 10.19145367 -3 12 C-4 10 -4 10 -3.22265625 7.6171875 C-2.83980469 6.71226562 -2.45695312 5.80734375 -2.0625 4.875 C-1.68222656 3.96492187 -1.30195313 3.05484375 -0.91015625 2.1171875 C-0.60980469 1.41851563 -0.30945313 0.71984375 0 0 Z " fill="#EEC19D" transform="translate(436,635)"/>
<path d="M0 0 C1.13441522 3.82161154 0.61768994 5.33891223 -1 9 C-1.68255989 11.32873375 -2.35050775 13.66182791 -3 16 C-3.33 16.99 -3.66 17.98 -4 19 C-4.66 19 -5.32 19 -6 19 C-4.3186083 12.51292846 -2.46937673 6.2322365 0 0 Z " fill="#E6C4A6" transform="translate(397,349)"/>
<path d="M0 0 C-0.309375 0.598125 -0.61875 1.19625 -0.9375 1.8125 C-2.10209704 4.08956772 -2.10209704 4.08956772 -3 7 C-3.99 7 -4.98 7 -6 7 C-6 5.68 -6 4.36 -6 3 C-6.66 2.67 -7.32 2.34 -8 2 C-4.77208445 -0.1519437 -3.71599191 -0.20086443 0 0 Z " fill="#DADADA" transform="translate(24,778)"/>
<path d="M0 0 C0.66 0 1.32 0 2 0 C2.33 0.99 2.66 1.98 3 3 C3.66 3.33 4.32 3.66 5 4 C5 5.65 5 7.3 5 9 C4.34 9 3.68 9 3 9 C3 8.01 3 7.02 3 6 C1.68 6 0.36 6 -1 6 C-1.042721 4.33388095 -1.04063832 2.66617115 -1 1 C-0.67 0.67 -0.34 0.34 0 0 Z " fill="#DEDEDE" transform="translate(26,976)"/>
<path d="M0 0 C0.66 0.33 1.32 0.66 2 1 C6.14503661 1.24787017 6.14503661 1.24787017 10 0 C9.34 1.65 8.68 3.3 8 5 C6.02 5 4.04 5 2 5 C2 4.34 2 3.68 2 3 C1.34 3 0.68 3 0 3 C-0.33 3.66 -0.66 4.32 -1 5 C-0.67 3.35 -0.34 1.7 0 0 Z " fill="#DBDBDB" transform="translate(19,906)"/>
<path d="M0 0 C2.3828125 0.99609375 2.3828125 0.99609375 5.125 2.4375 C6.03507812 2.91058594 6.94515625 3.38367188 7.8828125 3.87109375 C8.58148438 4.24363281 9.28015625 4.61617187 10 5 C8.265625 6.1171875 8.265625 6.1171875 6 7 C3.859375 6.3203125 3.859375 6.3203125 1.75 5.125 C0.69039063 4.54105469 0.69039063 4.54105469 -0.390625 3.9453125 C-0.92171875 3.63335938 -1.4528125 3.32140625 -2 3 C-2 2.34 -2 1.68 -2 1 C-1.34 0.67 -0.68 0.34 0 0 Z " fill="#F87775" transform="translate(342,904)"/>
<path d="M0 0 C1.2065625 0.0309375 1.2065625 0.0309375 2.4375 0.0625 C2.4375 2.0425 2.4375 4.0225 2.4375 6.0625 C1.81875 5.876875 1.2 5.69125 0.5625 5.5 C-1.60410178 4.82563824 -1.60410178 4.82563824 -3.5625 6.0625 C-3.605221 4.39638095 -3.60313832 2.72867115 -3.5625 1.0625 C-2.5625 0.0625 -2.5625 0.0625 0 0 Z " fill="#7E7E7E" transform="translate(22.5625,930.9375)"/>
<path d="M0 0 C0.99 0 1.98 0 3 0 C3.33 3.3 3.66 6.6 4 10 C2.68 9.34 1.36 8.68 0 8 C-0.8125 4.4375 -0.8125 4.4375 -1 1 C-0.67 0.67 -0.34 0.34 0 0 Z " fill="#539E84" transform="translate(333,880)"/>
<path d="M0 0 C0.33 0.66 0.66 1.32 1 2 C1.99 2 2.98 2 4 2 C4 2.66 4 3.32 4 4 C3.01 4.495 3.01 4.495 2 5 C2.66 5.66 3.32 6.32 4 7 C2.35 7.33 0.7 7.66 -1 8 C-1 7.34 -1 6.68 -1 6 C-1.99 6.33 -2.98 6.66 -4 7 C-4 6.34 -4 5.68 -4 5 C-3.01 5 -2.02 5 -1 5 C-1.33 4.01 -1.66 3.02 -2 2 C-1.34 2 -0.68 2 0 2 C0 1.34 0 0.68 0 0 Z " fill="#595959" transform="translate(24,855)"/>
<path d="M0 0 C0.94875 0.04125 1.8975 0.0825 2.875 0.125 C2.215 0.785 1.555 1.445 0.875 2.125 C0.22732207 4.69561311 0.22732207 4.69561311 -0.125 7.125 C-3.125 6.125 -3.125 6.125 -4.3125 4.0625 C-4.7146875 3.1034375 -4.7146875 3.1034375 -5.125 2.125 C-3.125 0.125 -3.125 0.125 0 0 Z " fill="#A1A1A1" transform="translate(21.125,819.875)"/>
<path d="M0 0 C4.455 0.99 4.455 0.99 9 2 C9 2.99 9 3.98 9 5 C5.625 4.75 5.625 4.75 2 4 C1.34 2.68 0.68 1.36 0 0 Z " fill="#F87471" transform="translate(591,664)"/>
<path d="M0 0 C0.33 0.66 0.66 1.32 1 2 C2.32 1.67 3.64 1.34 5 1 C3.79618552 3.49361571 2.54571278 5.68143083 1 8 C0.34 8 -0.32 8 -1 8 C-1.33 8.99 -1.66 9.98 -2 11 C-1.85892253 9.54119891 -1.71197585 8.08296449 -1.5625 6.625 C-1.48128906 5.81289063 -1.40007812 5.00078125 -1.31640625 4.1640625 C-1 2 -1 2 0 0 Z " fill="#645C42" transform="translate(289,629)"/>
<path d="M0 0 C0.33 0.99 0.66 1.98 1 3 C0.21625 3.45375 -0.5675 3.9075 -1.375 4.375 C-4.03698031 5.88428742 -4.03698031 5.88428742 -6 8 C-7.98356483 8.71408334 -9.98315437 9.38617742 -12 10 C-8.74897716 5.25892502 -4.89367634 2.79129597 0 0 Z " fill="#EAC7A8" transform="translate(426,303)"/>
<path d="M0 0 C0.33 0 0.66 0 1 0 C1 2.31 1 4.62 1 7 C0.34 6.67 -0.32 6.34 -1 6 C-0.67 4.02 -0.34 2.04 0 0 Z M-8 7 C-5.69 7 -3.38 7 -1 7 C-1 9.62113708 -1.31292445 11.50935112 -2 14 C-2.37125 13.1028125 -2.37125 13.1028125 -2.75 12.1875 C-4.16370012 9.71352479 -5.65055383 8.56629745 -8 7 Z " fill="#EEEEEE" transform="translate(31,845)"/>
<path d="M0 0 C3.3 0 6.6 0 10 0 C10 0.33 10 0.66 10 1 C8.02 1.33 6.04 1.66 4 2 C4.66 2.66 5.32 3.32 6 4 C5.34 4.66 4.68 5.32 4 6 C1.4375 5.75 1.4375 5.75 -1 5 C-1.33 4.34 -1.66 3.68 -2 3 C-1.34 3 -0.68 3 0 3 C0 2.01 0 1.02 0 0 Z " fill="#C7C7C7" transform="translate(19,834)"/>
<path d="M0 0 C0 0.99 0 1.98 0 3 C-1.32 3.33 -2.64 3.66 -4 4 C-4 4.66 -4 5.32 -4 6 C-6.31 6.33 -8.62 6.66 -11 7 C-8.21677024 3.90752249 -4.31039412 0 0 0 Z " fill="#F9F3F2" transform="translate(744,864)"/>
<path d="M0 0 C0.66 0.33 1.32 0.66 2 1 C2 1.99 2 2.98 2 4 C2.66 4.33 3.32 4.66 4 5 C3.34 6.65 2.68 8.3 2 10 C0.4375 8.9375 0.4375 8.9375 -1 7 C-0.6875 3.3125 -0.6875 3.3125 0 0 Z " fill="#47A990" transform="translate(843,760)"/>
<path d="M0 0 C0.66 0.33 1.32 0.66 2 1 C0.25 8.625 0.25 8.625 -2 12 C-3 11 -3 11 -3.0625 7.9375 C-3.041875 6.968125 -3.02125 5.99875 -3 5 C-2.34 4.67 -1.68 4.34 -1 4 C-0.34786708 1.97536745 -0.34786708 1.97536745 0 0 Z " fill="#54C7A8" transform="translate(295,601)"/>
<path d="M0 0 C1.32 0.33 2.64 0.66 4 1 C4.33 2.32 4.66 3.64 5 5 C4.01 5.66 3.02 6.32 2 7 C1.34 6.67 0.68 6.34 0 6 C0 4.02 0 2.04 0 0 Z " fill="#45301B" transform="translate(381,358)"/>
<path d="M0 0 C1.65 0.33 3.3 0.66 5 1 C4.67 2.32 4.34 3.64 4 5 C2.35 4.67 0.7 4.34 -1 4 C-0.67 2.68 -0.34 1.36 0 0 Z " fill="#CFCFCF" transform="translate(22,954)"/>
<path d="M0 0 C1.65 0.33 3.3 0.66 5 1 C4.67 2.32 4.34 3.64 4 5 C2.35 4.67 0.7 4.34 -1 4 C-0.67 2.68 -0.34 1.36 0 0 Z " fill="#CDCDCD" transform="translate(22,901)"/>
<path d="M0 0 C0.66 0.33 1.32 0.66 2 1 C1.67 5.29 1.34 9.58 1 14 C-1.04379831 9.91240337 -1.18594005 9.01314435 -0.625 4.75 C-0.51414062 3.85796875 -0.40328125 2.9659375 -0.2890625 2.046875 C-0.19367187 1.37140625 -0.09828125 0.6959375 0 0 Z " fill="#E2E2E2" transform="translate(30,837)"/>
<path d="M0 0 C4.875 2.75 4.875 2.75 6 5 C3.36 5.33 0.72 5.66 -2 6 C-1.34 4.02 -0.68 2.04 0 0 Z " fill="#E66E6A" transform="translate(720,717)"/>
<path d="M0 0 C0.99 0.33 1.98 0.66 3 1 C3.33 1.99 3.66 2.98 4 4 C2.5625 6.1875 2.5625 6.1875 1 8 C0.67 6.68 0.34 5.36 0 4 C-0.66 4 -1.32 4 -2 4 C-1.34 2.68 -0.68 1.36 0 0 Z " fill="#54402A" transform="translate(430,639)"/>
<path d="M0 0 C2.125 0.9375 2.125 0.9375 4 2 C3.67 2.66 3.34 3.32 3 4 C2.34 4 1.68 4 1 4 C0.67 4.99 0.34 5.98 0 7 C-0.66 6.67 -1.32 6.34 -2 6 C-2 4.35 -2 2.7 -2 1 C-1.34 0.67 -0.68 0.34 0 0 Z " fill="#694D33" transform="translate(629,612)"/>
<path d="M0 0 C2.1875 0.3125 2.1875 0.3125 4 1 C3.34 2.65 2.68 4.3 2 6 C1.01 6 0.02 6 -1 6 C-1.66 5.01 -2.32 4.02 -3 3 C-1.75 1.4375 -1.75 1.4375 0 0 Z " fill="#57D0B1" transform="translate(179,202)"/>
<path d="M0 0 C0 1.32 0 2.64 0 4 C-2.97 3.505 -2.97 3.505 -6 3 C-6 2.34 -6 1.68 -6 1 C-6.66 0.67 -7.32 0.34 -8 0 C-4.71023192 -1.09658936 -3.28696233 -0.79953138 0 0 Z " fill="#929292" transform="translate(23,977)"/>
<path d="M0 0 C1.875 0.3125 1.875 0.3125 4 1 C6 4 6 4 6 7 C5.01 7 4.02 7 3 7 C2.67 6.01 2.34 5.02 2 4 C1.34 4.66 0.68 5.32 0 6 C0 4.02 0 2.04 0 0 Z " fill="#636363" transform="translate(23,821)"/>
<path d="M0 0 C4.875 0.875 4.875 0.875 6 2 C6.04080783 3.99958364 6.04254356 6.00045254 6 8 C5.01 7.67 4.02 7.34 3 7 C3 5.68 3 4.36 3 3 C1.68 2.67 0.36 2.34 -1 2 C-0.67 1.34 -0.34 0.68 0 0 Z " fill="#565656" transform="translate(23,810)"/>
<path d="M0 0 C-0.99 2.64 -1.98 5.28 -3 8 C-3.66 7.67 -4.32 7.34 -5 7 C-4.67 5.02 -4.34 3.04 -4 1 C-4.66 0.67 -5.32 0.34 -6 0 C-4 -1 -4 -1 0 0 Z " fill="#6C5036" transform="translate(722,714)"/>
<path d="M0 0 C2.5 1.25 2.5 1.25 5 3 C5 4.32 5 5.64 5 7 C1.125 6.125 1.125 6.125 0 5 C-0.04063832 3.33382885 -0.042721 1.66611905 0 0 Z " fill="#59D2B2" transform="translate(762,150)"/>
<path d="M0 0 C2 2 2 2 2.125 5.125 C2.08375 6.07375 2.0425 7.0225 2 8 C0.68 8 -0.64 8 -2 8 C-1.34 5.36 -0.68 2.72 0 0 Z " fill="#645539" transform="translate(298,598)"/>
<path d="M0 0 C1.32 0.33 2.64 0.66 4 1 C3.67 3.31 3.34 5.62 3 8 C2.34 8 1.68 8 1 8 C0.67 5.36 0.34 2.72 0 0 Z " fill="#E7E7E7" transform="translate(28,929)"/>
<path d="M0 0 C1.5 1.3125 1.5 1.3125 3 3 C3 3.99 3 4.98 3 6 C-1.75 5.25 -1.75 5.25 -4 3 C-2.68 2.01 -1.36 1.02 0 0 Z " fill="#4CAC93" transform="translate(337,901)"/>
<path d="M0 0 C0.99 0 1.98 0 3 0 C3 0.66 3 1.32 3 2 C3.66 2 4.32 2 5 2 C5.33 1.34 5.66 0.68 6 0 C5.67 1.65 5.34 3.3 5 5 C3.35 4.67 1.7 4.34 0 4 C0 2.68 0 1.36 0 0 Z " fill="#CECECE" transform="translate(21,890)"/>
<path d="M0 0 C5.53846154 0.61538462 5.53846154 0.61538462 7.875 2.5625 C8.431875 3.2740625 8.431875 3.2740625 9 4 C8.01 4.33 7.02 4.66 6 5 C6 4.34 6 3.68 6 3 C4.68 3.33 3.36 3.66 2 4 C2 3.34 2 2.68 2 2 C1.34 2 0.68 2 0 2 C0 1.34 0 0.68 0 0 Z " fill="#E2E2E2" transform="translate(19,852)"/>
<path d="M0 0 C1.98 0 3.96 0 6 0 C5.67 1.32 5.34 2.64 5 4 C3.35 3.67 1.7 3.34 0 3 C0 2.01 0 1.02 0 0 Z " fill="#D2D2D2" transform="translate(21,966)"/>
<path d="M0 0 C0.66 0 1.32 0 2 0 C2 0.99 2 1.98 2 3 C3.32 3.33 4.64 3.66 6 4 C4.68 4 3.36 4 2 4 C2 4.66 2 5.32 2 6 C1.34 6 0.68 6 0 6 C0 5.34 0 4.68 0 4 C-0.99 4 -1.98 4 -3 4 C-3 3.34 -3 2.68 -3 2 C-2.01 2 -1.02 2 0 2 C0 1.34 0 0.68 0 0 Z " fill="#494949" transform="translate(19,909)"/>
<path d="M0 0 C2.475 0.99 2.475 0.99 5 2 C5.125 4.875 5.125 4.875 5 8 C4.34 8.66 3.68 9.32 3 10 C2.01 6.7 1.02 3.4 0 0 Z " fill="#F9C29F" transform="translate(486,774)"/>
<path d="M0 0 C2 0.1875 2 0.1875 4 1 C6 4 6 4 6 7 C5.34 7 4.68 7 4 7 C3.67 6.01 3.34 5.02 3 4 C0.49552484 2.78130071 0.49552484 2.78130071 -2 2 C-1.34 1.34 -0.68 0.68 0 0 Z " fill="#DBDBDB" transform="translate(25,767)"/>
<path d="M0 0 C1.32 1.65 2.64 3.3 4 5 C2.68 6.32 1.36 7.64 0 9 C-0.84454356 5.62182575 -1.10844919 3.32534757 0 0 Z " fill="#48AA90" transform="translate(850,753)"/>
<path d="M0 0 C2.95929119 2.75520215 5.03681826 5.46627288 7 9 C6.01 9.495 6.01 9.495 5 10 C2.17970072 8.58985036 1.41850081 6.77252431 0 4 C0 2.68 0 1.36 0 0 Z " fill="#5DD3B3" transform="translate(848,235)"/>
<path d="M0 0 C2.31 0.66 4.62 1.32 7 2 C5.75 3.5625 5.75 3.5625 4 5 C1.8125 4.6875 1.8125 4.6875 0 4 C0 2.68 0 1.36 0 0 Z " fill="#F4F0ED" transform="translate(339,907)"/>
<path d="M0 0 C0.99 0.33 1.98 0.66 3 1 C2.34 1.66 1.68 2.32 1 3 C0.83318891 6.08347826 0.83318891 6.08347826 1 9 C0.01 8.34 -0.98 7.68 -2 7 C-2.3125 4.5 -2.3125 4.5 -2 2 C-1.34 1.34 -0.68 0.68 0 0 Z " fill="#5C5C5C" transform="translate(21,899)"/>
<path d="M0 0 C0.66 0.66 1.32 1.32 2 2 C-0.39509338 4.89932357 -2.31245243 5.50168276 -6 6 C-4.75453595 2.26360784 -3.36595047 1.81243487 0 0 Z " fill="#F7EFEE" transform="translate(754,856)"/>
<path d="M0 0 C3.37503669 1.1858237 5.64722731 2.27573689 8 5 C7.01 5.66 6.02 6.32 5 7 C3.5 5.625 3.5 5.625 2 4 C2 3.34 2 2.68 2 2 C1.34 2 0.68 2 0 2 C0 1.34 0 0.68 0 0 Z " fill="#FAF1EF" transform="translate(243,855)"/>
<path d="M0 0 C1.9375 0.3125 1.9375 0.3125 4 1 C4.33 1.99 4.66 2.98 5 4 C3.02 4 1.04 4 -1 4 C-0.67 2.68 -0.34 1.36 0 0 Z " fill="#D5D5D5" transform="translate(22,943)"/>
<path d="M0 0 C0.66 0 1.32 0 2 0 C2 0.99 2 1.98 2 3 C1.34 3 0.68 3 0 3 C-0.33 6.63 -0.66 10.26 -1 14 C-1.33 14 -1.66 14 -2 14 C-2.1799928 8.78020872 -1.97094808 4.92737019 0 0 Z " fill="#EDEDED" transform="translate(16,908)"/>
<path d="M0 0 C1.32 0.33 2.64 0.66 4 1 C4.33 2.32 4.66 3.64 5 5 C3.35 4.67 1.7 4.34 0 4 C0 2.68 0 1.36 0 0 Z " fill="#EEEEEE" transform="translate(21,842)"/>
<path d="M0 0 C0.99 0.33 1.98 0.66 3 1 C3 3.62113708 2.68707555 5.50935112 2 8 C1.34 8 0.68 8 0 8 C-1.125 2.25 -1.125 2.25 0 0 Z " fill="#6B4D32" transform="translate(404,836)"/>
<path d="M0 0 C0.99 0.66 1.98 1.32 3 2 C2 4 1 6 0 8 C-0.66 8 -1.32 8 -2 8 C-1.34 5.36 -0.68 2.72 0 0 Z " fill="#684D32" transform="translate(622,632)"/>
<path d="M0 0 C1 3 1 3 0.25 5.5625 C-1 8 -1 8 -4 10 C-4.33 9.34 -4.66 8.68 -5 8 C-4.00390625 6.0546875 -4.00390625 6.0546875 -2.5625 3.875 C-2.08941406 3.15054688 -1.61632812 2.42609375 -1.12890625 1.6796875 C-0.75636719 1.12539062 -0.38382813 0.57109375 0 0 Z " fill="#56D2B0" transform="translate(140,250)"/>
<path d="M0 0 C2.31 0 4.62 0 7 0 C5.35 1.65 3.7 3.3 2 5 C1.34 4.34 0.68 3.68 0 3 C0 2.01 0 1.02 0 0 Z " fill="#4CC6A2" transform="translate(417,206)"/>
<path d="M0 0 C0.94875 0.165 1.8975 0.33 2.875 0.5 C5.80168901 1.0526635 5.80168901 1.0526635 8 1 C7.67 1.99 7.34 2.98 7 4 C5.02 4 3.04 4 1 4 C0.67 2.68 0.34 1.36 0 0 Z " fill="#4E4E4E" transform="translate(20,957)"/>
<path d="M0 0 C0.66 0.66 1.32 1.32 2 2 C4.06874034 2.6425235 4.06874034 2.6425235 6 3 C6 3.66 6 4.32 6 5 C4.02 5.66 2.04 6.32 0 7 C0 4.69 0 2.38 0 0 Z " fill="#DFDFDF" transform="translate(19,894)"/>
<path d="M0 0 C1.32 0.33 2.64 0.66 4 1 C3.34 2.32 2.68 3.64 2 5 C0.68 4.34 -0.64 3.68 -2 3 C-1.34 2.01 -0.68 1.02 0 0 Z " fill="#6F4F35" transform="translate(605,811)"/>
<path d="M0 0 C-2 3 -2 3 -4.9375 3.8125 C-8 4 -8 4 -11 2 C-2.81818182 -1.40909091 -2.81818182 -1.40909091 0 0 Z " fill="#D1D1D1" transform="translate(29,808)"/>
<path d="M0 0 C0.99 0 1.98 0 3 0 C3 1.65 3 3.3 3 5 C1.02 5.99 1.02 5.99 -1 7 C-0.67 4.69 -0.34 2.38 0 0 Z " fill="#E4E4E4" transform="translate(26,794)"/>
<path d="M0 0 C2.32472205 2.85306797 3.7508258 5.54074837 5 9 C2.525 8.01 2.525 8.01 0 7 C0 4.69 0 2.38 0 0 Z " fill="#734E33" transform="translate(396,693)"/>
<path d="M0 0 C0.99 0.33 1.98 0.66 3 1 C3 2.32 3 3.64 3 5 C1 6.75 1 6.75 -1 8 C-1.66 7.67 -2.32 7.34 -3 7 C-2.2575 6.38125 -2.2575 6.38125 -1.5 5.75 C0.43386092 3.87797662 0.43386092 3.87797662 0 0 Z " fill="#694E32" transform="translate(293,628)"/>
<path d="M0 0 C0.66 0 1.32 0 2 0 C1.75 3.375 1.75 3.375 1 7 C-0.98 7.99 -0.98 7.99 -3 9 C-2.01 6.03 -1.02 3.06 0 0 Z " fill="#5F4E33" transform="translate(403,235)"/>
<path d="M0 0 C0.66 0.66 1.32 1.32 2 2 C1.34 2 0.68 2 0 2 C-0.268125 2.598125 -0.53625 3.19625 -0.8125 3.8125 C-1.98493467 5.97224808 -3.19369282 7.35790256 -5 9 C-5.66 8.67 -6.32 8.34 -7 8 C-4.69 5.36 -2.38 2.72 0 0 Z " fill="#59D2B1" transform="translate(170,212)"/>
<path d="M0 0 C-0.33 0.99 -0.66 1.98 -1 3 C-3.64 3.33 -6.28 3.66 -9 4 C-3.7826087 0 -3.7826087 0 0 0 Z " fill="#5CD2B3" transform="translate(315,104)"/>
<path d="M0 0 C2.0625 0.4375 2.0625 0.4375 4 1 C3.34 1 2.68 1 2 1 C2 2.32 2 3.64 2 5 C2.66 5.33 3.32 5.66 4 6 C2.68 5.67 1.36 5.34 0 5 C-0.5625 3.0625 -0.5625 3.0625 -1 1 C-0.67 0.67 -0.34 0.34 0 0 Z " fill="#DADADA" transform="translate(19,841)"/>
<path d="M0 0 C1.9375 0.8125 1.9375 0.8125 4 2 C4.33 2.99 4.66 3.98 5 5 C4.34 5 3.68 5 3 5 C2.67 5.66 2.34 6.32 2 7 C1.34 6.67 0.68 6.34 0 6 C0 4.02 0 2.04 0 0 Z " fill="#45AA91" transform="translate(731,691)"/>
<path d="M0 0 C0.99 0.33 1.98 0.66 3 1 C3 2.32 3 3.64 3 5 C3.66 5.33 4.32 5.66 5 6 C2 6 2 6 0.3125 4.5 C-0.120625 4.005 -0.55375 3.51 -1 3 C-0.67 2.01 -0.34 1.02 0 0 Z " fill="#54D0B1" transform="translate(660,248)"/>
<path d="M0 0 C0.66 0.33 1.32 0.66 2 1 C1.25 2.9375 1.25 2.9375 0 5 C-2.125 5.75 -2.125 5.75 -4 6 C-1.125 1.125 -1.125 1.125 0 0 Z " fill="#F2726F" transform="translate(692,889)"/>
<path d="M0 0 C1.98 0.99 1.98 0.99 4 2 C3.6875 3.9375 3.6875 3.9375 3 6 C2.01 6.33 1.02 6.66 0 7 C0 4.69 0 2.38 0 0 Z " fill="#FA7774" transform="translate(744,856)"/>
<path d="M0 0 C0.99 0.99 1.98 1.98 3 3 C3 3.99 3 4.98 3 6 C2.34 6 1.68 6 1 6 C0.67 7.32 0.34 8.64 0 10 C0 6.7 0 3.4 0 0 Z " fill="#F76969" transform="translate(243,840)"/>
<path d="M0 0 C0.66 0 1.32 0 2 0 C2 2.64 2 5.28 2 8 C1.01 7.67 0.02 7.34 -1 7 C-0.67 4.69 -0.34 2.38 0 0 Z " fill="#464646" transform="translate(27,838)"/>
<path d="M0 0 C1.65 0 3.3 0 5 0 C4.67 1.32 4.34 2.64 4 4 C2.68 4 1.36 4 0 4 C0 2.68 0 1.36 0 0 Z " fill="#A4A4A4" transform="translate(19,793)"/>
<path d="M0 0 C0.66 0 1.32 0 2 0 C3.125 5.75 3.125 5.75 2 8 C1.34 8 0.68 8 0 8 C0 5.36 0 2.72 0 0 Z " fill="#5E4B2E" transform="translate(729,550)"/>
<path d="M0 0 C0.66 1.32 1.32 2.64 2 4 C1.34 4 0.68 4 0 4 C-0.33 4.99 -0.66 5.98 -1 7 C-1.66 6.34 -2.32 5.68 -3 5 C-1.125 1.125 -1.125 1.125 0 0 Z " fill="#55D1B1" transform="translate(212,170)"/>
<path d="M0 0 C-0.9977758 2.99332739 -1.7522025 3.94766315 -4 6 C-5.32 5.34 -6.64 4.68 -8 4 C-2.25 0 -2.25 0 0 0 Z " fill="#57D1B1" transform="translate(264,132)"/>
</svg>
